<svg id="Capa_1" data-name="Capa 1" xmlns="http://www.w3.org/2000/svg" viewBox="0 0 25 25"><defs><style>.cls-1{fill:#bdccd4;}</style></defs><title>wa_icon_svg_mio</title><path class="cls-1" d="M20.41,15.84c-.09-.15-.34-.24-.71-.43s-1.37-.68-2-1h0l-.47-.2a.71.71,0,0,0-.91.27,15.2,15.2,0,0,1-1,1.31.78.78,0,0,1-.89.14,9.2,9.2,0,0,1-3-1.83,11.48,11.48,0,0,1-2-2.54.6.6,0,0,1-.09-.36.8.8,0,0,1,.24-.43c.18-.23.36-.39.55-.61a2.35,2.35,0,0,0,.41-.58.41.41,0,0,0,.05-.18.9.9,0,0,0-.1-.5c-.09-.19-.84-2-1.14-2.73A2,2,0,0,0,9.22,6h0a.65.65,0,0,0-.71-.43H8.08A1.85,1.85,0,0,0,6.79,6,4,4,0,0,0,5.5,9.06v0h0c0,.05,0,.11,0,.17h0A7.38,7.38,0,0,0,7,12.87c.19.25,2.58,4,6.29,5.56a9.72,9.72,0,0,0,3.8,1h0a3.35,3.35,0,0,0,.61-.08,3.55,3.55,0,0,0,2.48-1.78c0-.12.08-.24.11-.35s0-.06,0-.09l.06-.24s0-.05,0-.07a2,2,0,0,0,0-.24v0c0-.08,0-.17,0-.24h0A1.15,1.15,0,0,0,20.41,15.84Z"/><path class="cls-1" d="M13,.48A12,12,0,0,0,2.28,18L0,24.5l6.63-1.81A12,12,0,1,0,13,.48Zm0,22.43A10.41,10.41,0,1,1,23.39,12.5,10.41,10.41,0,0,1,13,22.91Z"/></svg>