<svg id="afterEffects_icon_svg" data-name="afterEffects_icon_svg" xmlns="http://www.w3.org/2000/svg" viewBox="0 0 25 25"><defs><style>.cls-1{fill:#21244d;}.cls-2{fill:#9193c8;}</style></defs><title>afterEffects_icon</title><path class="cls-1" d="M3.91,0H21.09A3.91,3.91,0,0,1,25,3.91V21.09A3.91,3.91,0,0,1,21.09,25H3.91A3.91,3.91,0,0,1,0,21.09V3.91A3.91,3.91,0,0,1,3.91,0"/><path class="cls-2" d="M10.27,15.26H6.45l-.78,2.52a.19.19,0,0,1-.19.15H3.54c-.11,0-.15-.06-.11-.18l3.3-9.39c0-.1.07-.21.1-.34a3.7,3.7,0,0,0,.07-.66A.1.1,0,0,1,7,7.24H9.64c.08,0,.12,0,.13.08l3.75,10.44c0,.11,0,.17-.1.17H11.27a.15.15,0,0,1-.16-.12ZM7.05,13.5H9.66c-.07-.22-.15-.67-.24-.94s-.18-.57-.28-.89-.2-.62-.29-.94-.19-.62-.28-.91-.15-.56-.22-.8h0c-.09.45-.21.89-.34,1.32l-.48,1.52c-.15.52-.31,1.2-.46,1.64"/><path class="cls-2" d="M19.58,14.36H16.32a2.46,2.46,0,0,0,.34,1,1.69,1.69,0,0,0,.75.62,3.25,3.25,0,0,0,1.34.28,4.52,4.52,0,0,0,1.89-.36c.05,0,.08,0,.08.08V17.5a.23.23,0,0,1,0,.12.2.2,0,0,1-.08.08,4.47,4.47,0,0,1-1.07.35,6.65,6.65,0,0,1-1.34.06,4.79,4.79,0,0,1-2-.37,3.49,3.49,0,0,1-1.28-1,3.73,3.73,0,0,1-.71-1.35A5,5,0,0,1,14,13.93a5.34,5.34,0,0,1,.26-1.63,4.15,4.15,0,0,1,.76-1.4,3.63,3.63,0,0,1,3-1.33,4,4,0,0,1,1.68.33,2.84,2.84,0,0,1,1.09.85,3.91,3.91,0,0,1,.61,1.16,4.14,4.14,0,0,1,.19,1.26c0,.24,0,.46,0,.66s0,.24-.06.35a.15.15,0,0,1-.15.13l-.34,0H19.58m-3.27-1.31h2.75l.24,0v-.1a2.88,2.88,0,0,0,0-.59,1.37,1.37,0,0,0-1.34-.95,1.43,1.43,0,0,0-1.36.78,3.38,3.38,0,0,0-.26.89"/></svg>