<svg id="Capa_1" data-name="Capa 1" xmlns="http://www.w3.org/2000/svg" viewBox="0 0 25 37"><defs><style>.cls-1{fill:#21244d;}.cls-2{fill:#9193c8;}</style></defs><title>characterAnimator_logotipo</title><path class="cls-1" d="M3.91,0H21.09A3.91,3.91,0,0,1,25,3.91V21.09A3.91,3.91,0,0,1,21.09,25H3.91A3.91,3.91,0,0,1,0,21.09V3.91A3.91,3.91,0,0,1,3.91,0"/><path class="cls-2" d="M11.88,17.78h0a6.08,6.08,0,0,1-2.18.32A5.32,5.32,0,0,1,6,16.75a5.25,5.25,0,0,1-1.48-4.08A5.27,5.27,0,0,1,5.93,8.78,5.29,5.29,0,0,1,9.83,7.3,5.26,5.26,0,0,1,12,7.64a.24.24,0,0,1,.13.11.39.39,0,0,1,0,.18V9.28a.37.37,0,0,1,0,.11.21.21,0,0,1-.07.11.17.17,0,0,1-.15,0l-.1,0a3.89,3.89,0,0,0-1.93-.42A3.06,3.06,0,0,0,7.54,10a3.65,3.65,0,0,0-.87,2.61A5.11,5.11,0,0,0,7,14.42a2.81,2.81,0,0,0,.81,1.14,3.82,3.82,0,0,0,1,.57,3.8,3.8,0,0,0,1.16.18A5.4,5.4,0,0,0,11.77,16,.22.22,0,0,1,12,16a.27.27,0,0,1,.08.19v1.24a.33.33,0,0,1-.18.32Z"/><path class="cls-2" d="M13.93,17.89a.23.23,0,0,1-.06-.18V6.86a.21.21,0,0,1,.07-.17.27.27,0,0,1,.17-.06h1.67a.25.25,0,0,1,.17.06.18.18,0,0,1,.07.17v3.63a3.36,3.36,0,0,1,1.8-.49,2.64,2.64,0,0,1,1.89.75,3.18,3.18,0,0,1,.79,2.41v4.55a.24.24,0,0,1-.23.26H18.6a.24.24,0,0,1-.26-.22V13.13a1.66,1.66,0,0,0-.28-1.06,1,1,0,0,0-.81-.33,1.87,1.87,0,0,0-1.22.44v5.55a.24.24,0,0,1-.21.24H14.11a.23.23,0,0,1-.18-.08"/><path d="M7,31.34v.32a.05.05,0,0,1,0,.05,1.41,1.41,0,0,1-.58.09,1.59,1.59,0,0,1-.53-.08,1.18,1.18,0,0,1-.42-.24,1.07,1.07,0,0,1-.31-.42A1.83,1.83,0,0,1,5,30.45a1.28,1.28,0,0,1,.39-1,1.39,1.39,0,0,1,1-.37,1.41,1.41,0,0,1,.58.09s0,0,0,0v.36s0,0,0,0a1.06,1.06,0,0,0-.55-.12.91.91,0,0,0-.67.24,1,1,0,0,0-.24.68,1.27,1.27,0,0,0,.09.47.68.68,0,0,0,.23.3.89.89,0,0,0,.29.15,1.19,1.19,0,0,0,.32,0A1.7,1.7,0,0,0,7,31.32s0,0,0,0m.31.39V29a0,0,0,0,1,0,0h.45s0,0,0,0v1a1,1,0,0,1,.52-.16.71.71,0,0,1,.48.19.81.81,0,0,1,.2.61v1.11a0,0,0,0,1,0,0H8.51a0,0,0,0,1,0,0V30.61a.4.4,0,0,0-.09-.3.32.32,0,0,0-.24-.11.55.55,0,0,0-.37.14v1.39a0,0,0,0,1,0,0H7.32s0,0,0,0h0m3.09-.31v-.54l-.22,0a.62.62,0,0,0-.33.08.27.27,0,0,0-.11.22.29.29,0,0,0,.09.22.4.4,0,0,0,.29.09.87.87,0,0,0,.28,0m.48-.83v.75a2.09,2.09,0,0,0,0,.25,0,0,0,0,1,0,0,2.06,2.06,0,0,1-.84.19,1,1,0,0,1-.57-.15.52.52,0,0,1-.21-.47.5.5,0,0,1,.24-.46,1.22,1.22,0,0,1,.65-.15h.25V30.5a.27.27,0,0,0,0-.12.28.28,0,0,0-.11-.13.54.54,0,0,0-.25-.06,1.14,1.14,0,0,0-.54.14s0,0,0,0V30a.05.05,0,0,1,0,0,1.49,1.49,0,0,1,.63-.14.77.77,0,0,1,.58.22.74.74,0,0,1,.2.55m.38-.73h.39s0,0,0,0a1.06,1.06,0,0,1,.05.23.78.78,0,0,1,.62-.3,0,0,0,0,1,0,0h0v.4s0,0,0,0h0a.69.69,0,0,0-.57.18.12.12,0,0,0,0,.1v1.16a0,0,0,0,1,0,0h-.44a0,0,0,0,1,0,0V30.41c0-.2,0-.37,0-.52s0,0,0,0m2.3,1.56v-.54l-.22,0a.62.62,0,0,0-.33.08.27.27,0,0,0-.11.22.29.29,0,0,0,.09.22.4.4,0,0,0,.29.09.87.87,0,0,0,.28,0m.48-.83v.75a2.09,2.09,0,0,0,0,.25,0,0,0,0,1,0,0,2.06,2.06,0,0,1-.84.19,1,1,0,0,1-.57-.15.52.52,0,0,1-.21-.47.5.5,0,0,1,.24-.46,1.22,1.22,0,0,1,.65-.15h.25V30.5a.27.27,0,0,0,0-.12.28.28,0,0,0-.11-.13.54.54,0,0,0-.25-.06,1.14,1.14,0,0,0-.54.14s0,0,0,0V30a.05.05,0,0,1,0,0,1.49,1.49,0,0,1,.63-.14.77.77,0,0,1,.58.22A.74.74,0,0,1,14,30.59Zm1.73.79v.32s0,0,0,0a1.15,1.15,0,0,1-.45.07.92.92,0,0,1-.72-.27,1,1,0,0,1-.26-.71.9.9,0,0,1,.29-.71,1,1,0,0,1,.75-.29,1.32,1.32,0,0,1,.39.06.05.05,0,0,1,0,0v.31s0,0,0,0a.69.69,0,0,0-.34-.07.52.52,0,0,0-.42.17.64.64,0,0,0-.15.44.62.62,0,0,0,.17.47.59.59,0,0,0,.4.15.93.93,0,0,0,.34-.06s0,0,0,0m1.32.07v.24s0,0,0,0a.73.73,0,0,1-.36.07c-.34,0-.52-.18-.52-.55v-1h-.24s0,0,0,0v-.29s0,0,0,0h.24a3.91,3.91,0,0,1,.05-.48,0,0,0,0,1,0,0l.42-.06s0,0,0,0,0,.3,0,.55H17a0,0,0,0,1,0,0v.3s0,0,0,0h-.38v1a.25.25,0,0,0,.05.19.18.18,0,0,0,.17.06l.16,0s0,0,0,0m1.4-.55h-.78a.53.53,0,0,0,.15.39.6.6,0,0,0,.43.14,1.15,1.15,0,0,0,.48-.1s0,0,0,0v.29a0,0,0,0,1,0,.05,1.35,1.35,0,0,1-.59.11,1.21,1.21,0,0,1-.46-.08.73.73,0,0,1-.3-.22,1,1,0,0,1-.16-.31,1.13,1.13,0,0,1-.06-.36,1.08,1.08,0,0,1,.25-.71.85.85,0,0,1,.68-.3.79.79,0,0,1,.61.25.82.82,0,0,1,.2.56,1.77,1.77,0,0,1,0,.23,0,0,0,0,1,0,0h-.41m-.78-.3h.76v-.05a.5.5,0,0,0-.08-.27.33.33,0,0,0-.28-.12.37.37,0,0,0-.28.13.47.47,0,0,0-.12.32m1.52-.74h.38a.05.05,0,0,1,.05,0,2.23,2.23,0,0,1,0,.23.78.78,0,0,1,.62-.3,0,0,0,0,1,0,0h0v.4a.05.05,0,0,1,0,0h0a.69.69,0,0,0-.57.18.17.17,0,0,0,0,.1v1.16a0,0,0,0,1,0,0h-.43s0,0,0,0V30.41c0-.2,0-.37,0-.52a0,0,0,0,1,0,0M6.63,35.73h-.9l-.23.69s0,0,0,0H5.05s0,0,0,0l.81-2.32a.54.54,0,0,0,0-.22l0,0h.57l0,0,.9,2.54s0,0,0,0H6.91s0,0,0,0Zm-.8-.37h.7s-.06-.21-.16-.5-.16-.5-.2-.61h0c0,.13-.14.5-.34,1.11m1.81,1V35c0-.14,0-.28,0-.42s0,0,0,0H8a.05.05,0,0,1,.05,0,.8.8,0,0,1,0,.15.85.85,0,0,1,.57-.22.67.67,0,0,1,.46.18.81.81,0,0,1,.19.6v1.12s0,0,0,0H8.86a0,0,0,0,1,0,0h0V35.28A.54.54,0,0,0,8.75,35a.34.34,0,0,0-.25-.11.49.49,0,0,0-.37.18v1.35a0,0,0,0,1,0,0H7.67s0,0,0,0m2.07,0V34.58s0,0,0,0h.44s0,0,0,0h0v1.84s0,0,0,0H9.74a0,0,0,0,1,0,0h0m.44-2.26a.23.23,0,0,1-.19.07A.27.27,0,0,1,9.69,34,.26.26,0,0,1,10,33.7a.23.23,0,0,1,.19.07.29.29,0,0,1,0,.38m.89,2.3h-.43s0,0,0,0V35c0-.06,0-.19,0-.38,0,0,0,0,0,0H11s0,0,0,0a.41.41,0,0,1,0,.16.87.87,0,0,1,.57-.22.57.57,0,0,1,.51.26.94.94,0,0,1,.65-.26.66.66,0,0,1,.47.18.71.71,0,0,1,.19.59v1.14a0,0,0,0,1,0,0H13s0,0,0,0V35.28a.54.54,0,0,0-.08-.28.27.27,0,0,0-.25-.11.49.49,0,0,0-.37.18.74.74,0,0,1,0,.21v1.13s0,0,0,0H11.8s0,0,0,0V35.28a.38.38,0,0,0-.09-.29.33.33,0,0,0-.23-.1.46.46,0,0,0-.36.17v1.36s0,0,0,0m3.8-.34v-.54a.82.82,0,0,0-.22,0,.51.51,0,0,0-.32.08.25.25,0,0,0-.12.22.28.28,0,0,0,.1.22.48.48,0,0,0,.29.09.86.86,0,0,0,.27,0m.48-.84V36a2.17,2.17,0,0,0,0,.26s0,0,0,0a2,2,0,0,1-.84.19,1,1,0,0,1-.57-.15.58.58,0,0,1-.21-.48.49.49,0,0,1,.24-.45,1.23,1.23,0,0,1,.65-.16h.25v-.07a.5.5,0,0,0,0-.12.3.3,0,0,0-.12-.13.42.42,0,0,0-.25-.06,1.1,1.1,0,0,0-.53.14s0,0,0,0v-.3s0,0,0,0a1.42,1.42,0,0,1,.64-.14.71.71,0,0,1,.77.76m1.32.87v.23s0,.05,0,.05a.89.89,0,0,1-.36.07c-.35,0-.52-.19-.52-.55v-1H15.5s0,0,0,0v-.29s0,0,0,0h.24c0-.16,0-.32,0-.48s0,0,0,0l.41-.06s0,0,0,0,0,.3,0,.55h.37a0,0,0,0,1,0,0v.3l0,0h-.38v1a.31.31,0,0,0,0,.19.2.2,0,0,0,.18.06l.16,0s0,0,0,0m1.1-1.63a.93.93,0,0,1,.7.28,1,1,0,0,1,.25.7,1,1,0,0,1-.27.73.93.93,0,0,1-.69.27A.9.9,0,0,1,17,36.2a1.09,1.09,0,0,1-.25-.7,1,1,0,0,1,.27-.71.94.94,0,0,1,.71-.28m0,.34a.39.39,0,0,0-.33.17.8.8,0,0,0-.13.47.89.89,0,0,0,.13.48.4.4,0,0,0,.35.17.36.36,0,0,0,.32-.16.81.81,0,0,0,.13-.48,1,1,0,0,0-.12-.47.39.39,0,0,0-.35-.18m1.25-.3h.39s0,0,0,0a1,1,0,0,1,.05.23.75.75,0,0,1,.62-.3l0,0h0v.4a0,0,0,0,1,0,0h0a.74.74,0,0,0-.57.19s0,.06,0,.09v1.17a0,0,0,0,1,0,0H19a0,0,0,0,1,0,0V35.1c0-.2,0-.38,0-.53s0,0,0,0"/></svg>