<svg id="dreamweaver_icon_svg" data-name="dreamweaver_icon_svg" xmlns="http://www.w3.org/2000/svg" viewBox="0 0 25 25"><defs><style>.cls-1{fill:#431238;}.cls-2,.cls-3{fill:#be74ad;}.cls-2{fill-rule:evenodd;}</style></defs><title>dreamweaver_icon</title><path class="cls-1" d="M3.91,0H21.09A3.91,3.91,0,0,1,25,3.91V21.09A3.91,3.91,0,0,1,21.09,25H3.91A3.91,3.91,0,0,1,0,21.09V3.91A3.91,3.91,0,0,1,3.91,0"/><path class="cls-2" d="M2.86,7h0L6,7a5.24,5.24,0,0,1,4,1.48,5.48,5.48,0,0,1,1.38,3.88A6.74,6.74,0,0,1,11,14.58a4.78,4.78,0,0,1-.92,1.63,4.75,4.75,0,0,1-1.33,1,5.94,5.94,0,0,1-1.52.57h0A7.33,7.33,0,0,1,5.69,18c-1,0-1.95,0-2.81,0a.21.21,0,0,1-.19-.1.37.37,0,0,1,0-.18V7.25a.34.34,0,0,1,0-.17A.27.27,0,0,1,2.85,7ZM8.24,9.59A2.88,2.88,0,0,0,6,8.69l-1.09,0v7.48l.9,0a3.16,3.16,0,0,0,2.4-.91,4.2,4.2,0,0,0,.87-2.94,4,4,0,0,0-.82-2.77Z"/><path class="cls-3" d="M18.65,17.7h0q-.88-3.72-1.19-5.07c0,.15-.08.31-.13.5-.12.46-.31,1.16-.58,2.1s-.49,1.75-.68,2.47a.27.27,0,0,1-.1.17.33.33,0,0,1-.19.06H14.06a.3.3,0,0,1-.19-.05.33.33,0,0,1-.13-.16h0l-2.07-7.61h0a.28.28,0,0,1,0-.22.25.25,0,0,1,.21-.09h1.77a.28.28,0,0,1,.16.05A.36.36,0,0,1,14,10h0v0q.83,3.29,1.21,5.24c.2-.85.64-2.6,1.31-5.23h0a.54.54,0,0,1,.1-.16.28.28,0,0,1,.18-.06h1.66a.21.21,0,0,1,.17.07.28.28,0,0,1,.08.15q.93,3.83,1.24,5.26.44-2.1,1.25-5.26a.3.3,0,0,1,.1-.17.29.29,0,0,1,.18-.05H23a.21.21,0,0,1,.18.07.24.24,0,0,1,.05.2h0L21,17.71h0a.32.32,0,0,1-.3.2H19a.31.31,0,0,1-.19-.06.29.29,0,0,1-.1-.16Z"/></svg>