<svg id="illustrator_icon_svg" data-name="illustrator_icon_svg" xmlns="http://www.w3.org/2000/svg" viewBox="0 0 25 25"><defs><style>.cls-1{fill:#2c0d0e;}.cls-2{fill:#f39719;}</style></defs><title>illustrator_icon</title><path class="cls-1" d="M3.91,0H21.09A3.91,3.91,0,0,1,25,3.91V21.09A3.91,3.91,0,0,1,21.09,25H3.91A3.91,3.91,0,0,1,0,21.09V3.91A3.91,3.91,0,0,1,3.91,0"/><path class="cls-2" d="M12.19,15.22H8.37l-.78,2.55a.19.19,0,0,1-.19.15H5.46c-.11,0-.15-.06-.11-.19L8.64,8.22c0-.1.07-.21.1-.34a2.1,2.1,0,0,0,.07-.56.1.1,0,0,1,.08-.12h2.66c.08,0,.12,0,.13.08l3.76,10.47c0,.11,0,.17-.1.17H13.19A.16.16,0,0,1,13,17.8ZM9,13.46h2.79c-.06-.22-.29-.73-.38-1s-.21-.5-.31-.81-.19-.63-.29-.94l-.28-.91c-.08-.29-.15-.56-.22-.8h0c-.09.44-.21.88-.34,1.32s-.32,1-.47,1.52S9.1,13,9,13.46Z"/><path class="cls-2" d="M17.67,8.93a1.17,1.17,0,0,1-.9-.37,1.26,1.26,0,0,1-.35-.94,1.23,1.23,0,0,1,.37-.92,1.31,1.31,0,0,1,.92-.35,1.25,1.25,0,0,1,.93.35,1.3,1.3,0,0,1,.34.92,1.3,1.3,0,0,1-.36.94,1.28,1.28,0,0,1-.95.37M16.6,17.75V10.2c0-.1,0-.15.14-.15h1.87c.09,0,.14,0,.14.15v7.55c0,.11-.05.17-.14.17H16.75c-.1,0-.15-.06-.15-.17"/></svg>