<svg id="inDesign_icon_svg" data-name="inDesign_icon_svg" xmlns="http://www.w3.org/2000/svg" viewBox="0 0 25 25"><defs><style>.cls-1{fill:#450c21;}.cls-2{fill:#e73b68;}</style></defs><title>inDesign_icon</title><path class="cls-1" d="M3.91,0H21.09A3.91,3.91,0,0,1,25,3.91V21.09A3.91,3.91,0,0,1,21.09,25H3.91A3.91,3.91,0,0,1,0,21.09V3.91A3.91,3.91,0,0,1,3.91,0"/><path class="cls-2" d="M8.88,7.4V17.75c0,.11-.05.16-.15.16H6.84c-.09,0-.13-.05-.13-.16V7.4c0-.09,0-.14.15-.14H8.75a.13.13,0,0,1,.13.1v0Z"/><path class="cls-2" d="M15,18.14a5.2,5.2,0,0,1-2.2-.46,3.56,3.56,0,0,1-1.55-1.4,4.53,4.53,0,0,1-.56-2.34,4.4,4.4,0,0,1,.56-2.16,4.25,4.25,0,0,1,1.64-1.59,5.3,5.3,0,0,1,2.59-.59h.22l.4,0V6.5c0-.07,0-.11.1-.11h1.92a.08.08,0,0,1,.09.07,0,0,0,0,1,0,0v9.63c0,.19,0,.39,0,.61s0,.42,0,.6a.18.18,0,0,1-.1.16,7.35,7.35,0,0,1-1.59.5,10.44,10.44,0,0,1-1.59.15m1.1-2.05V11.58l-.36-.05-.34,0a2.6,2.6,0,0,0-1.16.27,2.12,2.12,0,0,0-1.2,2.06,3,3,0,0,0,.17,1.06,2.15,2.15,0,0,0,.46.73,1.78,1.78,0,0,0,.7.41,2.7,2.7,0,0,0,.85.13h.43a3.5,3.5,0,0,0,.45-.07Z"/></svg>