<svg id="js_icon_svg" data-name="js_icon_svg" xmlns="http://www.w3.org/2000/svg" viewBox="0 0 25 25"><defs><style>.cls-1{fill:#e7a408;}.cls-2{fill:#f3c000;}.cls-3{fill:#fff;}.cls-4{fill:#cdcdcc;}.cls-5{fill:#1a1a1a;}</style></defs><title>javascript_icon</title><polygon class="cls-1" points="21.38 4.9 12.5 4.9 12.5 4.9 3.62 4.9 5.28 22.95 12.5 25 12.5 25 12.5 25 12.5 25 12.5 25 19.71 22.95 21.38 4.9"/><polygon class="cls-2" points="12.5 6.37 12.5 23.47 12.5 23.47 18.34 21.82 19.77 6.37 12.5 6.37"/><polygon class="cls-3" points="17.15 8.59 8.16 8.59 7.54 15.35 7.55 15.3 15.18 15.3 14.94 18.16 12.5 18.86 10.03 18.15 9.88 16.42 7.63 16.42 7.96 19.88 12.5 21.17 17.05 19.88 17.67 13.09 9.87 13.09 9.98 10.83 15.29 10.83 15.38 12.13 17.64 12.13 17.15 8.59"/><path class="cls-4" d="M12.5,8.59H8.16l-.62,6.76v0h5V13.09H9.88l.1-2.26H12.5ZM9.88,16.42H7.63L8,19.88l4.54,1.29v-2.3L10,18.15Z"/><polygon class="cls-5" points="10.92 0 10.92 2.74 8.6 2.74 8.6 3.37 11.9 3.37 11.9 0 10.92 0"/><polygon class="cls-5" points="14.4 0.63 16.35 2.74 16.35 2.74 16.35 3.37 13.05 3.37 13.05 2.74 15.01 2.74 13.05 0.63 13.05 0 16.35 0 16.35 0.63 14.4 0.63"/></svg>