<svg id="Capa_1" data-name="Capa 1" xmlns="http://www.w3.org/2000/svg" viewBox="0 0 25 33"><defs><style>.cls-1{fill:#132034;}.cls-2{fill:#529fd7;}</style></defs><title>lightroom_logotipo</title><path class="cls-1" d="M3.91,0H21.09A3.91,3.91,0,0,1,25,3.91V21.09A3.91,3.91,0,0,1,21.09,25H3.91A3.91,3.91,0,0,1,0,21.09V3.91A3.91,3.91,0,0,1,3.91,0"/><path class="cls-2" d="M13.08,17.92H6.57c-.11,0-.17-.06-.17-.18V7.38a.13.13,0,0,1,.11-.15s0,0,0,0H8.47a.1.1,0,0,1,.12.08v0l0,8.39H13.4c.1,0,.14,0,.12.14l-.28,1.9a.16.16,0,0,1-.06.13l-.1,0"/><path class="cls-2" d="M14.91,9.71h1.8a.22.22,0,0,1,.21.17.92.92,0,0,1,.09.23c0,.11,0,.21,0,.32s0,.24,0,.37a4.1,4.1,0,0,1,1.1-.88,2.82,2.82,0,0,1,1.45-.37.12.12,0,0,1,.11,0l0,.05a.13.13,0,0,1,0,.06v2c0,.07-.06.11-.17.11a3.38,3.38,0,0,0-1,.08,4.29,4.29,0,0,0-.86.27,2.47,2.47,0,0,0-.67.38v5.23c0,.1,0,.15-.13.15H15.06a.15.15,0,0,1-.17-.12V12.08c0-.25,0-.5,0-.77s0-.54,0-.8a5.05,5.05,0,0,0-.07-.68.11.11,0,0,1,.07-.12Z"/><path d="M6,31.76H4.43s0,0,0,0V29.2s0,0,0,0h.44s0,0,0,0v2.2H6s0,0,0,0L6,31.73s0,0,0,0m.35,0V29.89s0,0,0,0h.44a.05.05,0,0,1,0,0h0v1.84a0,0,0,0,1,0,0H6.34s0,0,0,0h0m.44-2.27a.27.27,0,0,1-.38,0,.29.29,0,0,1,0-.38A.26.26,0,0,1,6.55,29a.23.23,0,0,1,.19.07.26.26,0,0,1,.07.19.23.23,0,0,1-.07.19m1.44,1a.38.38,0,0,0-.08-.27.31.31,0,0,0-.23-.1.29.29,0,0,0-.23.1.35.35,0,0,0-.09.26.32.32,0,0,0,.09.26.28.28,0,0,0,.23.09.26.26,0,0,0,.23-.09.33.33,0,0,0,.08-.25M8.45,32q0-.27-.48-.27a1.51,1.51,0,0,0-.3,0,.33.33,0,0,0-.2.27.28.28,0,0,0,.13.23.65.65,0,0,0,.36.1.62.62,0,0,0,.37-.11A.29.29,0,0,0,8.45,32m.43-2.15v.29s0,0,0,0h0l-.3,0a.44.44,0,0,1,.09.31.53.53,0,0,1-.21.45.91.91,0,0,1-.55.16H7.74a.18.18,0,0,0-.1.15.15.15,0,0,0,.11.16h.36c.55,0,.83.19.83.57a.64.64,0,0,1-.28.51,1.15,1.15,0,0,1-.72.21,1.17,1.17,0,0,1-.69-.18A.51.51,0,0,1,7,32.09c0-.17.11-.32.35-.45a.38.38,0,0,1-.17-.3A.38.38,0,0,1,7.4,31a.54.54,0,0,1-.32-.54A.58.58,0,0,1,7.29,30a.86.86,0,0,1,.58-.19,2.19,2.19,0,0,1,.36,0h.62s0,0,0,0h0m.21,1.84V29s0,0,0,0h.45s0,0,0,0h0v1a.94.94,0,0,1,.52-.16.71.71,0,0,1,.48.19.8.8,0,0,1,.19.61v1.11s0,0,0,0h-.44a0,0,0,0,1,0,0V30.61a.51.51,0,0,0-.09-.3A.32.32,0,0,0,10,30.2a.55.55,0,0,0-.37.14v1.39a0,0,0,0,1,0,0H9.12s0,0,0,0h0m3-.28v.24s0,0,0,0a.73.73,0,0,1-.36.07c-.34,0-.52-.18-.52-.55v-1H11a0,0,0,0,1,0,0v-.29s0,0,0,0h.24a3.91,3.91,0,0,1,.05-.48,0,0,0,0,1,0,0l.42-.06s0,0,0,0,0,.3,0,.55h.38s0,0,0,0v.3s0,0,0,0h-.38v1a.25.25,0,0,0,.05.19.18.18,0,0,0,.17.06l.16,0s0,0,0,0m.24-1.59h.39s0,0,0,0a1,1,0,0,1,0,.23.77.77,0,0,1,.63-.3s0,0,0,0h0v.4s0,0,0,0h0a.68.68,0,0,0-.56.18.13.13,0,0,0,0,.1v1.16s0,0,0,0h-.44a0,0,0,0,1,0,0V30.41c0-.2,0-.37,0-.52s0,0,0,0Zm2.17,0a.92.92,0,0,1,.7.28,1.14,1.14,0,0,1,0,1.44,1,1,0,0,1-.7.26.93.93,0,0,1-.72-.28,1.07,1.07,0,0,1-.24-.71,1,1,0,0,1,.26-.71,1,1,0,0,1,.71-.28Zm0,.34a.41.41,0,0,0-.33.18.74.74,0,0,0-.12.46.8.8,0,0,0,.12.48.41.41,0,0,0,.35.18.39.39,0,0,0,.32-.16,1,1,0,0,0,0-1,.4.4,0,0,0-.35-.18m2.14-.34a.92.92,0,0,1,.7.28,1.14,1.14,0,0,1,0,1.44,1,1,0,0,1-.7.26.93.93,0,0,1-.72-.28,1.07,1.07,0,0,1-.24-.71,1,1,0,0,1,.26-.71,1,1,0,0,1,.71-.28m0,.34a.41.41,0,0,0-.33.18.74.74,0,0,0-.12.46.8.8,0,0,0,.12.48.41.41,0,0,0,.35.18A.4.4,0,0,0,17,31.3a1,1,0,0,0,0-1,.4.4,0,0,0-.35-.18Zm1.71,1.6h-.43a0,0,0,0,1,0,0V30.28a3.48,3.48,0,0,0,0-.39,0,0,0,0,1,0,0h.38s0,0,0,0a.4.4,0,0,1,0,.15.85.85,0,0,1,.57-.22.58.58,0,0,1,.51.26,1,1,0,0,1,.65-.26.69.69,0,0,1,.47.18.8.8,0,0,1,.19.59v1.14s0,0,0,0h-.42a0,0,0,0,1,0,0V30.59a.47.47,0,0,0-.09-.28.3.3,0,0,0-.24-.11.49.49,0,0,0-.37.18,1.48,1.48,0,0,1,0,.21v1.14a0,0,0,0,1,0,0h-.42s0,0,0,0V30.59A.52.52,0,0,0,19,30.3a.29.29,0,0,0-.23-.09.48.48,0,0,0-.36.16v1.36s0,0,0,0Z"/></svg>