<svg id="photoshop_icon_svg" data-name="photoshop_icon_svg" xmlns="http://www.w3.org/2000/svg" viewBox="0 0 25 25"><defs><style>.cls-1{fill:#132034;}.cls-2{fill:#529fd7;}</style></defs><title>photoshop_icon</title><path class="cls-1" d="M3.91,0H21.09A3.91,3.91,0,0,1,25,3.91V21.09A3.91,3.91,0,0,1,21.09,25H3.91A3.91,3.91,0,0,1,0,21.09V3.91A3.91,3.91,0,0,1,3.91,0"/><path class="cls-2" d="M5.58,17.77V7.21c0-.07,0-.11.1-.11h.63l.78,0H8.92A6.28,6.28,0,0,1,11,7.36a3.72,3.72,0,0,1,1.38.85,3.1,3.1,0,0,1,.75,1.16,3.81,3.81,0,0,1,.24,1.33,3.67,3.67,0,0,1-.62,2.18,3.48,3.48,0,0,1-1.65,1.25,6.71,6.71,0,0,1-2.31.39h-1v3.25a.13.13,0,0,1-.11.15h-2c-.08,0-.12,0-.12-.13M7.86,9.08V12.5l.4,0H8.8A3.92,3.92,0,0,0,10,12.35a1.91,1.91,0,0,0,.85-.54,1.62,1.62,0,0,0,.32-1.06,1.7,1.7,0,0,0-.24-.91,1.66,1.66,0,0,0-.72-.59A3.27,3.27,0,0,0,9,9.05h-.7l-.42,0"/><path class="cls-2" d="M19.82,11.84a6,6,0,0,0-1.19-.35,5.46,5.46,0,0,0-1.14-.13,2.15,2.15,0,0,0-.62.07.61.61,0,0,0-.33.21.54.54,0,0,0-.08.28.52.52,0,0,0,.1.27,1.31,1.31,0,0,0,.35.27,6.07,6.07,0,0,0,.73.34,7.08,7.08,0,0,1,1.57.75,2.28,2.28,0,0,1,.81.85,2.17,2.17,0,0,1,.24,1.06,2.42,2.42,0,0,1-.39,1.36,2.65,2.65,0,0,1-1.15.92,4.75,4.75,0,0,1-1.86.33,6.58,6.58,0,0,1-1.4-.14,4.42,4.42,0,0,1-1.11-.33.2.2,0,0,1-.12-.19V15.62a.11.11,0,0,1,0-.09.07.07,0,0,1,.09,0,4.92,4.92,0,0,0,1.34.5,5.5,5.5,0,0,0,1.21.16,1.78,1.78,0,0,0,.85-.15.45.45,0,0,0,.27-.43.52.52,0,0,0-.24-.41,4.06,4.06,0,0,0-1-.48A6.08,6.08,0,0,1,15.32,14a2.59,2.59,0,0,1-.78-.87,2.28,2.28,0,0,1-.24-1,2.35,2.35,0,0,1,.35-1.24,2.5,2.5,0,0,1,1.07-.94,3.48,3.48,0,0,1,1.67-.42,10.72,10.72,0,0,1,1.39,0,4.52,4.52,0,0,1,1.09.37A.12.12,0,0,1,20,10a.5.5,0,0,1,0,.12v1.67a.12.12,0,0,1,0,.1.13.13,0,0,1-.12,0Z"/></svg>