<svg id="premier_icon_svg" data-name="premier_icon_svg" xmlns="http://www.w3.org/2000/svg" viewBox="0 0 25 25"><defs><style>.cls-1{fill:#21244d;}.cls-2{fill:#9193c8;}</style></defs><title>premier_icon</title><path class="cls-1" d="M3.91,0H21.09A3.91,3.91,0,0,1,25,3.91V21.09A3.91,3.91,0,0,1,21.09,25H3.91A3.91,3.91,0,0,1,0,21.09V3.91A3.91,3.91,0,0,1,3.91,0"/><path class="cls-2" d="M5.9,17.69V7.16c0-.09,0-.14.08-.14H8.31c.31,0,.71.09,1,.09a6.53,6.53,0,0,1,2.1.32,3.28,3.28,0,0,1,1.38.84,3.53,3.53,0,0,1,.76,1.16,4.77,4.77,0,0,1,.23,1.34A3.62,3.62,0,0,1,13.17,13a3.26,3.26,0,0,1-1.65,1.25,6.78,6.78,0,0,1-2.32.4H8.71c-.09,0-.49-.09-.72-.09v3.26a.12.12,0,0,1-.1.14H6a.53.53,0,0,1-.08-.23M8,9v3.44c.13,0,.53.09.67.09h.53a3.48,3.48,0,0,0,1.16-.18,1.71,1.71,0,0,0,.85-.54,1.48,1.48,0,0,0,.31-1.07,2,2,0,0,0-.22-.89,1.44,1.44,0,0,0-.71-.58A3.87,3.87,0,0,0,9.42,9H8.71A2.49,2.49,0,0,1,8,9"/><path class="cls-2" d="M15.23,9.7H17a.29.29,0,0,1,.22.18.45.45,0,0,1,.09.22.7.7,0,0,1,.05.32v.35a3.82,3.82,0,0,1,1.11-.89,2.41,2.41,0,0,1,1.43-.36c.09,0,.14.05.14.09v2.06c0,.09-.05.13-.18.13a2.31,2.31,0,0,0-1,.09,2.49,2.49,0,0,0-.85.27,1.9,1.9,0,0,0-.67.4v5.22a.12.12,0,0,1-.1.14H15.36c-.09,0-.13-.05-.18-.14V11.31a5.29,5.29,0,0,0,0-.8c0-.23-.05-.45-.05-.67,0-.05,0-.05.05-.09s0-.05.09-.05"/></svg>