<svg id="Capa_1" data-name="Capa 1" xmlns="http://www.w3.org/2000/svg" viewBox="0 0 130 100"><defs><style>.cls-1{fill:#e42320;}.cls-2{fill:#666;}.cls-3{fill:#333;}.cls-4{fill:#999;}.cls-5{fill:#9cf;}.cls-6{fill:#fff;}.cls-7{fill:#963;}.cls-8{fill:#633;}.cls-9{fill:#4d4d4d;}.cls-10{fill:#ccc;}.cls-11{fill:#39c;}.cls-12{fill:#c60;}.cls-13{fill:#339;}.cls-14{fill:#336;}.cls-15{fill:#600e0e;}.cls-16{fill:#68c2e7;}.cls-17{fill:#930;}.cls-18{fill:#c6b198;}.cls-19{fill:#c96;}.cls-20{opacity:0.8;}</style></defs><title>illustration_johnK_workspace</title><path class="cls-1" d="M33.41,81.75a11.87,11.87,0,0,1-10.33-7.19,7,7,0,0,1-.22-3.89,16.22,16.22,0,0,0,.2-4A19,19,0,0,0,20.14,58a30.71,30.71,0,0,1-1.42-2.8c-2.3-5.45-1.34-12.54,2.85-21.09l.58.29C18,42.79,17.08,49.7,19.31,55a29.6,29.6,0,0,0,1.4,2.74,20.1,20.1,0,0,1,3,8.91,17.48,17.48,0,0,1-.21,4.14,6.4,6.4,0,0,0,.19,3.58,11.12,11.12,0,0,0,9.69,6.77,7.63,7.63,0,0,0,1.83-.22c3.68-.92,5.45-4.72,7.68-9.53a24,24,0,0,0,2.07-7,51.82,51.82,0,0,1,1.15-5.29c1.63-5.89,3.73-9.7,7.93-17.29l.56-1c2.26-4.19,6.48-12,12.19-12.15l0,.64c-5.34.15-9.44,7.74-11.64,11.82-.21.37-.39.72-.57,1-4.17,7.55-6.26,11.34-7.87,17.15a53,53,0,0,0-1.14,5.23,24.28,24.28,0,0,1-2.11,7.11c-2.31,5-4.13,8.89-8.12,9.89A8.06,8.06,0,0,1,33.41,81.75Z"/><path d="M68.41,29.29l-2,.42c-.15-.06-.46-.54-.4-.69l.58-.54a.29.29,0,0,1,.37-.15l2-.43a.31.31,0,0,1,.16.38l-.35.85A.28.28,0,0,1,68.41,29.29Z"/><path class="cls-2" d="M68.19,28.92l-2,.43a.29.29,0,0,1-.16-.38l.31-.79a.7.7,0,0,1,.41-.28c.5-.06,2-.46,2-.46.15,0,.13.32.07.47l-.34.86A.28.28,0,0,1,68.19,28.92Z"/><ellipse class="cls-3" cx="81.15" cy="9.86" rx="4.03" ry="6.14" transform="matrix(0.27, -0.96, 0.96, 0.27, 49.72, 85.32)"/><rect class="cls-2" x="86.27" y="2.99" width="2.32" height="14.83" rx="1.16" transform="translate(70.41 96.79) rotate(-85.64)"/><circle class="cls-3" cx="94.5" cy="10.93" r="2.97"/><rect class="cls-2" x="89.75" y="8.93" width="2.32" height="14.83" rx="1.16" transform="translate(26.58 -49.94) rotate(35.67)"/><path class="cls-4" d="M68,37.61l22.85-5.17a2.66,2.66,0,0,0,2-1.9l5.18-14c.41-1.08-.82-1.75-1.78-1.53L75,21.87a4.12,4.12,0,0,0-2.5,2.38L65.42,36.44C65,37.52,67,37.83,68,37.61Z"/><path class="cls-2" d="M67.66,37.68l22.93-5.17c1-.23-.58,0-.18-1.09,0,0-25.35-.5-25,5C65.53,38.19,66.69,37.91,67.66,37.68Z"/><path d="M66.61,37.17l22.87-5.31A4.13,4.13,0,0,0,92,29.48l4.85-12.87c.41-1.08,0-1.78-1-1.56L72.94,20.36a4.11,4.11,0,0,0-2.49,2.37L65.6,35.61C65.19,36.69,65.65,37.39,66.61,37.17Z"/><path class="cls-2" d="M71.59,23.16a3,3,0,0,1,1.63-1.62l22.4-5.2L90.83,29.06a2.93,2.93,0,0,1-1.63,1.61l-22.4,5.2Z"/><path class="cls-5" d="M71.84,23.46a3,3,0,0,1,1.63-1.62l22-5.1L90.83,29.06a2.93,2.93,0,0,1-1.63,1.61l-22,5.11Z"/><rect class="cls-6" x="67.43" y="76.77" width="8.25" height="11.44" rx="0.94" transform="translate(143.11 164.99) rotate(180)"/><rect class="cls-4" x="66.83" y="79.54" width="9.46" height="5.91" rx="0.32" transform="translate(-10.94 154.05) rotate(-90)"/><rect class="cls-6" x="67.03" y="79.77" width="9.06" height="5.44" rx="0.28" transform="translate(-10.94 154.05) rotate(-90)"/><rect class="cls-4" x="69.41" y="83" width="4.3" height="3.39" rx="1.69" transform="translate(143.11 169.38) rotate(180)"/><rect class="cls-6" x="70.13" y="82.81" width="2.85" height="3.76" rx="1.43" transform="translate(-13.14 156.25) rotate(-90)"/><rect x="72.13" y="83.8" width="0.26" height="1.09" rx="0.13" transform="translate(144.52 168.68) rotate(180)"/><rect x="70.72" y="83.8" width="0.26" height="1.09" rx="0.13" transform="translate(141.7 168.68) rotate(-180)"/><path d="M71.41,85.25h.29c.09,0,.16,0,.16.06l-.19.35s-.21,0-.23,0l-.18-.35S71.33,85.25,71.41,85.25Z"/><path class="cls-2" d="M43.52,91.5a10.71,10.71,0,0,1-6-1.85c-.86-.56-1.69-1.07-2.5-1.57-4.41-2.74-7.9-4.91-9.11-10-.19-.81-1.08-5.25.48-13.08a36.66,36.66,0,0,0-.31-11.92,43.13,43.13,0,0,0-5.32-14.92l1.09-.67c5.83,9.52,6.9,22.19,5.8,27.76-1.5,7.56-.67,11.77-.48,12.53,1.08,4.55,4.21,6.49,8.53,9.17.81.51,1.65,1,2.52,1.59,8.06,5.26,17-3.51,23.45-9.9,4-3.9,6.82-6.72,8.89-6C72,73.16,72.34,75,72.5,76.3l-1.28.16c-.18-1.48-.55-2.39-1.06-2.57-1.31-.46-4.48,2.67-7.56,5.69C59.17,83,55.27,86.8,51,89.21A15.24,15.24,0,0,1,43.52,91.5Z"/><rect class="cls-7" x="78.99" y="57.85" width="3.56" height="36.52"/><rect class="cls-7" x="6.17" y="49.97" width="3.56" height="44.39"/><rect class="cls-7" x="51.31" y="50.78" width="3.56" height="43.59"/><rect class="cls-8" x="4.91" y="56.99" width="78.68" height="1.72" transform="translate(88.49 115.7) rotate(-180)"/><rect class="cls-8" x="4.91" y="49.17" width="51.34" height="1.72" transform="translate(61.15 100.06) rotate(-180)"/><rect class="cls-4" x="12.22" y="48.19" width="28.93" height="0.98" rx="0.49" transform="translate(53.37 97.36) rotate(180)"/><rect class="cls-9" x="22.68" y="43.03" width="8.01" height="5.39" transform="translate(53.37 91.44) rotate(-180)"/><rect class="cls-10" x="1.03" y="10.93" width="51.32" height="32.5" transform="translate(53.37 54.36) rotate(-180)"/><rect x="1.26" y="11.06" width="50.85" height="28.6" transform="translate(53.37 50.72) rotate(-180)"/><rect class="cls-3" x="3.3" y="12.97" width="46.78" height="25.55" transform="translate(53.37 51.49) rotate(-180)"/><rect class="cls-5" x="3.88" y="13.3" width="45.62" height="24.89" transform="translate(53.37 51.49) rotate(-180)"/><circle class="cls-4" cx="26.69" cy="11.98" r="0.63"/><circle cx="26.69" cy="11.98" r="0.53"/><circle class="cls-1" cx="26.69" cy="11.98" r="0.21"/><rect class="cls-3" x="69.13" y="76.08" width="4.86" height="6.42" rx="2.43"/><path class="cls-3" d="M64,56.1h-.59a.16.16,0,0,1-.16-.15V48.66l.21-3.25a.15.15,0,0,1,.15-.15h.2a.15.15,0,0,1,.15.15l.19,3.25V56A.15.15,0,0,1,64,56.1Z"/><path class="cls-6" d="M64.13,54.76V52.34a.17.17,0,0,0-.12-.05h-.16a.18.18,0,0,0-.18.18v2.15a.18.18,0,0,0,.18.18H64A.21.21,0,0,0,64.13,54.76Z"/><rect class="cls-2" x="63.73" y="52.36" width="0.39" height="2.38" rx="0.2"/><rect class="cls-3" x="63.93" y="53.9" width="0.12" height="0.57" rx="0.06"/><rect class="cls-3" x="63.93" y="52.63" width="0.12" height="0.57" rx="0.06"/><rect class="cls-6" x="63.24" y="50.91" width="0.89" height="0.06"/><path d="M64,48.93h-.4a.12.12,0,0,1-.1-.13v-.25l.14-2.73c0-.07,0-.13.1-.13h.14a.12.12,0,0,1,.1.13l.12,2.73v.25C64.07,48.87,64,48.93,64,48.93Z"/><rect class="cls-2" x="60.9" y="55.21" width="5.67" height="1.78" rx="0.89"/><rect class="cls-4" x="60.9" y="56.03" width="5.67" height="0.15"/><rect class="cls-4" x="73.02" y="42.58" width="0.46" height="13.59" rx="0.23" transform="translate(-11.91 25.88) rotate(-18.56)"/><path class="cls-6" d="M72,49H69.88a1.46,1.46,0,0,0-1.46,1.46v3.65a1.46,1.46,0,0,0,1.46,1.46H72a1.46,1.46,0,0,0,1.46-1.46V50.46A1.46,1.46,0,0,0,72,49Zm.73,5.11a.73.73,0,0,1-.73.73H69.88a.73.73,0,0,1-.73-.73V50.46a.73.73,0,0,1,.73-.73H72a.73.73,0,0,1,.73.73Z"/><path class="cls-6" d="M72.13,47.34H79a.81.81,0,0,1,.81.81v8.44a.39.39,0,0,1-.39.39H71.7a.39.39,0,0,1-.39-.39V48.16A.81.81,0,0,1,72.13,47.34Z"/><rect class="cls-11" x="71.31" y="48.54" width="8.5" height="7.24"/><circle class="cls-12" cx="71.66" cy="49.07" r="0.22"/><circle class="cls-12" cx="72.38" cy="49.04" r="0.22"/><circle class="cls-12" cx="73.18" cy="49.02" r="0.22"/><circle class="cls-12" cx="73.94" cy="49.11" r="0.22"/><circle class="cls-12" cx="74.67" cy="49.04" r="0.22"/><circle class="cls-12" cx="75.42" cy="49.09" r="0.22"/><circle class="cls-12" cx="76.2" cy="49.04" r="0.22"/><circle class="cls-12" cx="76.89" cy="49.13" r="0.22"/><circle class="cls-12" cx="77.5" cy="49.04" r="0.22"/><circle class="cls-12" cx="78.16" cy="49.13" r="0.22"/><circle class="cls-13" cx="71.67" cy="51.35" r="0.22"/><circle class="cls-13" cx="72.39" cy="51.33" r="0.22"/><circle class="cls-13" cx="73.18" cy="51.31" r="0.22"/><circle class="cls-13" cx="73.95" cy="51.4" r="0.22"/><circle class="cls-13" cx="74.68" cy="51.33" r="0.22"/><circle class="cls-13" cx="75.43" cy="51.37" r="0.22"/><circle class="cls-13" cx="76.21" cy="51.33" r="0.22"/><circle class="cls-13" cx="76.9" cy="51.42" r="0.22"/><circle class="cls-13" cx="77.51" cy="51.33" r="0.22"/><circle class="cls-13" cx="78.17" cy="51.42" r="0.22"/><circle class="cls-14" cx="71.67" cy="55.34" r="0.22"/><circle class="cls-14" cx="72.39" cy="55.32" r="0.22"/><circle class="cls-14" cx="73.18" cy="55.3" r="0.22"/><circle class="cls-14" cx="73.95" cy="55.38" r="0.22"/><circle class="cls-14" cx="74.68" cy="55.32" r="0.22"/><circle class="cls-14" cx="75.43" cy="55.36" r="0.22"/><circle class="cls-14" cx="76.21" cy="55.32" r="0.22"/><circle class="cls-14" cx="76.9" cy="55.41" r="0.22"/><circle class="cls-14" cx="77.51" cy="55.32" r="0.22"/><circle class="cls-14" cx="78.17" cy="55.41" r="0.22"/><circle class="cls-15" cx="71.57" cy="54.4" r="0.22"/><circle class="cls-15" cx="72.29" cy="54.38" r="0.22"/><circle class="cls-15" cx="73.09" cy="54.36" r="0.22"/><circle class="cls-15" cx="73.85" cy="54.44" r="0.22"/><circle class="cls-15" cx="74.58" cy="54.38" r="0.22"/><circle class="cls-15" cx="75.33" cy="54.42" r="0.22"/><circle class="cls-15" cx="76.11" cy="54.38" r="0.22"/><circle class="cls-15" cx="76.8" cy="54.47" r="0.22"/><circle class="cls-15" cx="77.41" cy="54.38" r="0.22"/><circle class="cls-15" cx="78.07" cy="54.47" r="0.22"/><circle class="cls-16" cx="71.73" cy="52.11" r="0.22"/><circle class="cls-16" cx="72.45" cy="52.09" r="0.22"/><circle class="cls-16" cx="73.25" cy="52.07" r="0.22"/><circle class="cls-16" cx="74.02" cy="52.16" r="0.22"/><circle class="cls-16" cx="74.75" cy="52.09" r="0.22"/><circle class="cls-16" cx="75.49" cy="52.14" r="0.22"/><circle class="cls-16" cx="76.27" cy="52.09" r="0.22"/><circle class="cls-16" cx="76.96" cy="52.18" r="0.22"/><circle class="cls-16" cx="77.57" cy="52.09" r="0.22"/><circle class="cls-16" cx="78.23" cy="52.18" r="0.22"/><circle class="cls-17" cx="71.55" cy="52.88" r="0.22"/><circle class="cls-17" cx="72.27" cy="52.85" r="0.22"/><circle class="cls-17" cx="73.07" cy="52.83" r="0.22"/><circle class="cls-17" cx="73.84" cy="52.92" r="0.22"/><circle class="cls-17" cx="74.57" cy="52.85" r="0.22"/><circle class="cls-17" cx="75.31" cy="52.9" r="0.22"/><circle class="cls-17" cx="76.09" cy="52.86" r="0.22"/><circle class="cls-17" cx="76.78" cy="52.94" r="0.22"/><circle class="cls-17" cx="77.39" cy="52.86" r="0.22"/><circle class="cls-17" cx="78.05" cy="52.94" r="0.22"/><circle class="cls-18" cx="78.16" cy="49.85" r="0.22"/><circle class="cls-18" cx="77.44" cy="49.87" r="0.22"/><circle class="cls-18" cx="76.65" cy="49.89" r="0.22"/><circle class="cls-18" cx="75.88" cy="49.81" r="0.22"/><circle class="cls-18" cx="75.15" cy="49.87" r="0.22"/><circle class="cls-18" cx="74.4" cy="49.83" r="0.22"/><circle class="cls-18" cx="73.62" cy="49.87" r="0.22"/><circle class="cls-18" cx="72.93" cy="49.78" r="0.22"/><circle class="cls-18" cx="72.32" cy="49.87" r="0.22"/><circle class="cls-18" cx="71.66" cy="49.78" r="0.22"/><circle class="cls-19" cx="78.15" cy="53.66" r="0.22"/><circle class="cls-19" cx="77.43" cy="53.68" r="0.22"/><circle class="cls-19" cx="76.63" cy="53.71" r="0.22"/><circle class="cls-19" cx="75.86" cy="53.62" r="0.22"/><circle class="cls-19" cx="75.13" cy="53.68" r="0.22"/><circle class="cls-19" cx="74.39" cy="53.64" r="0.22"/><circle class="cls-19" cx="73.61" cy="53.68" r="0.22"/><circle class="cls-19" cx="72.91" cy="53.6" r="0.22"/><circle class="cls-19" cx="72.3" cy="53.68" r="0.22"/><circle class="cls-19" cx="71.64" cy="53.6" r="0.22"/><circle class="cls-1" cx="78.18" cy="50.61" r="0.22"/><circle class="cls-1" cx="77.46" cy="50.64" r="0.22"/><circle class="cls-1" cx="76.67" cy="50.66" r="0.22"/><circle class="cls-1" cx="75.9" cy="50.57" r="0.22"/><circle class="cls-1" cx="75.17" cy="50.64" r="0.22"/><circle class="cls-1" cx="74.42" cy="50.59" r="0.22"/><circle class="cls-12" cx="78.8" cy="49.04" r="0.22"/><circle class="cls-12" cx="79.55" cy="49.09" r="0.22"/><circle class="cls-13" cx="78.81" cy="51.33" r="0.22"/><circle class="cls-13" cx="79.49" cy="51.37" r="0.22"/><circle class="cls-14" cx="78.81" cy="55.32" r="0.22"/><circle class="cls-14" cx="79.45" cy="55.38" r="0.22"/><circle class="cls-15" cx="78.75" cy="54.42" r="0.22"/><circle class="cls-15" cx="79.45" cy="54.42" r="0.22"/><circle class="cls-16" cx="78.87" cy="52.09" r="0.22"/><circle class="cls-16" cx="79.53" cy="52.14" r="0.22"/><circle class="cls-17" cx="78.8" cy="52.85" r="0.22"/><circle class="cls-17" cx="79.46" cy="52.9" r="0.22"/><circle class="cls-18" cx="79.55" cy="49.87" r="0.22"/><circle class="cls-18" cx="78.81" cy="49.83" r="0.22"/><circle class="cls-19" cx="79.51" cy="53.68" r="0.22"/><circle class="cls-19" cx="78.77" cy="53.64" r="0.22"/><circle class="cls-1" cx="79.45" cy="50.64" r="0.22"/><circle class="cls-1" cx="78.81" cy="50.59" r="0.22"/><circle class="cls-1" cx="73.64" cy="50.64" r="0.22"/><circle class="cls-1" cx="72.95" cy="50.55" r="0.22"/><circle class="cls-1" cx="72.34" cy="50.64" r="0.22"/><circle class="cls-1" cx="71.68" cy="50.55" r="0.22"/><polygon class="cls-2" points="7.06 56.99 41.72 56.99 41.72 56.16 36.65 55.03 12 55.03 7.06 56.16 7.06 56.99"/><path class="cls-4" d="M7.89,56.16h33a.83.83,0,0,1,.83.83v0a0,0,0,0,1,0,0H7.06a0,0,0,0,1,0,0v0A.83.83,0,0,1,7.89,56.16Z" transform="translate(48.79 113.15) rotate(-180)"/><path class="cls-3" d="M50.86,56c-.17-1-.8-1.76-2.7-1.76h0c-1.89,0-2.53.74-2.7,1.76a1.47,1.47,0,0,0,.26.76c.05.09.18.28.34.28h4.2c.16,0,.29-.19.34-.28A1.47,1.47,0,0,0,50.86,56Z"/><path class="cls-4" d="M50.86,55.92c-.18-1-.81-1.71-2.63-1.73v1.73Z"/><path class="cls-4" d="M48.1,54.19c-1.83,0-2.46.74-2.64,1.73H48.1Z"/><path class="cls-2" d="M45.72,56.71c.05.09.18.28.34.28h4.2c.16,0,.29-.19.34-.28a1.63,1.63,0,0,0,.26-.66h-5.4A1.63,1.63,0,0,0,45.72,56.71Z"/><path class="cls-3" d="M50.86,56v0H48.23V54.19H48.1v1.73H45.46v0a.17.17,0,0,0,0,.1h5.4A.17.17,0,0,0,50.86,56Z"/><ellipse class="cls-20" cx="91.38" cy="92.53" rx="7.44" ry="2.29"/><path class="cls-20" d="M128.25,95.88c0,2.28-7.44,4.12-16.63,4.12s-15.91-3.86-15.91-6.14,6.73-2.1,15.91-2.1S128.25,93.6,128.25,95.88Z"/><path class="cls-12" d="M95,93.52l-12.26-4c-.68.09-1.3-1.64-1.41-2.32C81,85.1,88.26,76.68,88.26,76.68c1.51-1.11,3.19-.83,3.87-.93l7.28,5.39c.68-.09,1.33,1.51,1.42,2.19C100.83,83.33,98,93.13,95,93.52Z"/><path class="cls-17" d="M95,93.52s-6.6.17-8.86-.5c-5.16-1.53-4.72-5.11-4.81-5.79,0,0,15.25,4.48,15.34,5.17C96.69,92.4,97.41,93.21,95,93.52Z"/><ellipse cx="104.7" cy="81.58" rx="1.25" ry="0.93" transform="translate(-23.96 114.21) rotate(-52.16)"/><ellipse class="cls-18" cx="102.43" cy="85.48" rx="5.66" ry="4.22" transform="translate(-29.8 67.79) rotate(-32.22)"/><ellipse class="cls-18" cx="99.83" cy="81.7" rx="3.04" ry="1.34" transform="translate(-2.23 2.8) rotate(-1.59)"/><path class="cls-12" d="M92.43,88.31c.15,1.88-1.23-1.21-1.35-1.27-.88-.49,1.12-4.06.83-4-1.43.49-2.45,3.17-2.27,3.57.28.67,1.44,2.91,1.44,2.91s.47.83.48.83c.91,2.19,3.39,3,6.72,3.16,4.14.14-4.93-1.08-4.83-4.05S92.73,87.85,92.43,88.31Z"/><path class="cls-7" d="M93,82.31s-1.81-.85-1.59-1.3a8.89,8.89,0,0,1,.93-1.37c-1.2.72-1.37-.33-2.13,3.09Z"/><ellipse class="cls-19" cx="98.38" cy="86.4" rx="7.51" ry="5.38" transform="translate(-10.5 13.67) rotate(-7.55)"/><path class="cls-7" d="M97,78.29,96.8,77c-.18-.61.37-.94,1-.72L100,77.77c.79.31.34,2.33-.5,2.42l-3.08.16C95.84,80.13,97.16,79.16,97,78.29Z"/><path class="cls-19" d="M97.56,82.25,96,83.52c-.7.74-1.57.11-1.71-1,0,0,.29-4.74.29-4.75-.16-1.52,2.94-2.29,3.7-1l2.54,4.86C100.94,82.73,98.62,81.33,97.56,82.25Z"/><path class="cls-19" d="M92.6,85.71l1.12-1.54a1.07,1.07,0,0,0-.24-1.8s-2-.19-2.44-.74a1,1,0,0,1,.1-.95,2.93,2.93,0,0,1,1.23-1.06c-1.19.73-1.67-.64-2.43,2.78l-.66,3L91.49,89C92.15,89.19,91.81,86.74,92.6,85.71Z"/><path class="cls-15" d="M95.3,90.09c-.32-2.39,2.27-4.71,5.78-5.17a8.11,8.11,0,0,1,4.73.7,7.37,7.37,0,0,0-5.76-1.4c-3.51.46-6.1,2.78-5.78,5.17a3.77,3.77,0,0,0,2.2,2.77A3.29,3.29,0,0,1,95.3,90.09Z"/><ellipse class="cls-19" cx="114.42" cy="91.76" rx="14.65" ry="6.91" transform="translate(-11.06 15.83) rotate(-7.55)"/><ellipse class="cls-19" cx="104.87" cy="90.32" rx="10.14" ry="6.91" transform="translate(-10.96 14.56) rotate(-7.55)"/></svg>