<svg id="Capa_1" data-name="Capa 1" xmlns="http://www.w3.org/2000/svg" viewBox="0 0 100 100"><defs><style>.cls-1{opacity:0.8;}.cls-2{fill:#c60;}.cls-3{fill:#930;}.cls-4{fill:#c99;}.cls-5{fill:#fcc;}.cls-6{fill:#333;}.cls-7{fill:#339;}.cls-8{fill:#666;}.cls-9{fill:#336;}.cls-10{fill:#999;}.cls-11{fill:#fff;}.cls-12{fill:#e42320;}.cls-13{fill:#600e0e;}</style></defs><title>illustration_johnK_me</title><ellipse class="cls-1" cx="50.26" cy="96.87" rx="27.51" ry="2.75"/><circle class="cls-2" cx="65.93" cy="85.61" r="9.06"/><path class="cls-3" d="M74.65,86.33c-.07.06-.13.13-.2.2C70,91,62.94,91.29,58.78,87.12a12.65,12.65,0,0,1-1.41-1.32,8.21,8.21,0,0,0,2.49,6c3.21,3.21,8.78,3.08,12.25-.39A9.55,9.55,0,0,0,74.65,86.33Z"/><path class="cls-4" d="M39.12,42.49,25.17,46.42c-1.46-.26-3.05-.58-3.93-1.62l-.7-2.07c-.34-1.67,2.05-3.52,2.74-3.65l8.82-1.59c.68-.12,4.69.48,4.86,1.43L40,40.53C40.22,41.49,39.8,42.37,39.12,42.49Z"/><path class="cls-5" d="M33.63,35.64l-6.28,8.68a7.11,7.11,0,0,1-4.27,1.36l-1.71-.76c-1.2-.82-.28-4.11.2-4.78l6.28-8.68a1.5,1.5,0,0,1,2.1-.33l3.35,2.42A1.5,1.5,0,0,1,33.63,35.64Z"/><path class="cls-3" d="M71.31,79.72c.09.42.06.64-.47.92,0,0-3.15.76-4.49.39a11,11,0,0,1-2.75-1.24,2.08,2.08,0,0,1,0-1.51l.58-1.55,1.78,1.08,4-.13,1.16.46.16,1.42Z"/><path class="cls-4" d="M43.42,80.06l-6-3.45-6.24-2-7.07-10a2.1,2.1,0,0,1-.09-2l2.42-.1a.88.88,0,0,1,1.24-.06l11.87,8.06L46.31,77c.35.33,4.26,4.24,3.93,4.6l-1.36,1.53C48.56,83.51,43.77,80.39,43.42,80.06Z"/><path class="cls-4" d="M71,69.09,72.89,63l2.53-5,.45-12.8c.07-.47-.67-1.77-1.14-1.84L72.16,43c-.48-.07-.54.5-.61,1L67.7,59.1l-.65,9.33c-.07.48-.67,5.35-.19,5.42l2.51.38C69.84,74.3,70.9,69.57,71,69.09Z"/><path class="cls-5" d="M29.15,58.48l8.48-3c.48,0,1.69,1.5,1.72,2l2.76,8.49a.89.89,0,0,1-.84.92,13.19,13.19,0,0,1-4.49,2c-2.39.52-9.51-2-9.51-2C25,66,23.18,63.35,23.93,62.45A48.55,48.55,0,0,1,29.15,58.48Z"/><path class="cls-5" d="M65.23,45.37a40.75,40.75,0,0,0-6,4.29,4.89,4.89,0,0,0-.17,3l2.62,9.61a.7.7,0,0,0,1.11.25,10,10,0,0,0,4.35-1.33c2-1.19,7.36-7.49,7.36-7.49,2.49-2.8,1-9,.55-9.95-.67-1.33-2.3-.87-4.12-.54A30.22,30.22,0,0,0,65.23,45.37Z"/><path class="cls-6" d="M26.09,67c.37.3,1.84,3.4,9.21,2.93l2.89-.83s4.63-1.37,5.94-1.8c2.19-.73,3.67-3.61,3.67-3.61.37-.12.74-2,.6-2.42,0,0,.24-.56-1.61-5.29-.61-1.57-4.32-2.34-4.32-2.34-.14-.41-.59-2.05-1-1.93l-7.6,3.91L30.2,57.12c-.37.12-3.7,2.39-4.1,3.14a8.28,8.28,0,0,0-.61,3C25.43,66.36,26.09,67,26.09,67Z"/><path class="cls-6" d="M71.08,58.1a25.8,25.8,0,0,1-5.21,5.38,34.24,34.24,0,0,1-7.49,4c-2.11.45-5.46-2.7-5.46-2.7-.36.07-1.45-1.75-1.51-2.27,0,0,.05.53-.43-5.56-.15-2,2.51-2.28,2.51-2.28a8.61,8.61,0,0,1,1.66-3.42l3.26-2.13L64,47.34c.36-.07,3.9.24,4.54.83,0,0,3.64,1.07,3.93,3C73.17,55.72,71.08,58.1,71.08,58.1Z"/><path d="M62.92,60.75c-.55-5-1.12-7.71-1.12-7.71-.38-.86-2.2,1.3-2.7.93,0,0-2-2.31-4.25-2.31-1.29,0-4.89,1.48-5.26,1.64-.38-.16-4-1.64-5.27-1.64C42,51.66,40.07,54,40.07,54c-.5.37-2-.14-2.42.72,0,0-.59,1-1.13,6-.21,1.89,4.13,6.16,4.13,6.16a2.91,2.91,0,0,0,1.67.92H56.85a2.91,2.91,0,0,0,1.67-.92S63.12,62.65,62.92,60.75Z"/><path class="cls-7" d="M62.87,22.28a33.59,33.59,0,0,0-4-.71A25.73,25.73,0,0,1,54,20.12c-1.78-.4-1.83,2.26-3.66,2.25a9.13,9.13,0,0,1-1.47-.16,9.25,9.25,0,0,1-1.47.16c-1.1,0-3.17-2.4-4-2.11-1.78.65-8.09,1.53-10.15,2.78A10.55,10.55,0,0,0,31,25.25H66.82A13.19,13.19,0,0,0,62.87,22.28Z"/><path class="cls-5" d="M54,10.67c.17-1.12.78-1.95,1.36-1.86.37.06.64.48.74,1.08a8.23,8.23,0,0,1-.33,1.45c0,.28-.08.95-.08,1.15,0,.65-.69.6-1.13.54S53.85,11.78,54,10.67Z"/><ellipse class="cls-5" cx="42.35" cy="10.75" rx="1.06" ry="2.04"/><path class="cls-5" d="M55,10.4c0-4.27-2.79-7.74-6.22-7.74-2.09,0-5.8.68-5.91,2.71-.09,1.46-.32,3.35-.32,5a8.92,8.92,0,0,0,1.57,5.14c.33,2.82,2.29,5,4.66,5s4.32-2.17,4.65-5A8.85,8.85,0,0,0,55,10.4Z"/><path class="cls-4" d="M42.7,10.68c.36,1,.49,1.57-.12,1.58s-.82-1-.83-1.85.08-1.31.69-1.31S42.45,10,42.7,10.68Z"/><path class="cls-4" d="M54.87,10.81c0-.18-.19-1.77.35-1.49,1.11.58.12,1.4.23,2.22s-.28,1.19-.74,1.1S54.91,11.18,54.87,10.81Z"/><path class="cls-8" d="M55.19,7.24a8.41,8.41,0,0,0-.43-3.12c-.22-.84-1-1.29-2.1-2.21a8.89,8.89,0,0,0-7.67,0c-1.07.92-1.88,1.37-2.11,2.21a8.85,8.85,0,0,0-.43,3.12c0,.13-.07,1.75.07,1.73s.37-.17.37.64a9,9,0,0,0,1.33,3.73,11.18,11.18,0,0,0,1.36,1.4c1.06.95,1.66,1,3.24.94s2.19,0,3.24-.94a9.93,9.93,0,0,0,1.36-1.4,8.9,8.9,0,0,0,1.34-3.73c0-.81.23-.67.37-.64S55.18,7.37,55.19,7.24Z"/><path d="M50.92,4.83a64,64,0,0,1-.81,7.74c-.12.93-1.2,3-1.51,3s-1.19-1.8-1.36-2.93a63.4,63.4,0,0,1-.71-7.84c0-2.39.37-2.31.32-3.72,0-.4,1.42-.73,1.88-.73S50.35.54,50.3,1C50.14,2.44,50.92,2.44,50.92,4.83Z"/><path class="cls-5" d="M53.61,20.24a7.59,7.59,0,0,1,0-5c.69-1.53-2.74,2.06-4.83,2.25-2.1-.19-5.14-3.61-4.66-2a8.37,8.37,0,0,1-.23,4.7c-.22.6-4.83,2.37-4.19,3.06,1.29,1.36,6.75,1.44,9.08,1.44s7.79-.08,9.07-1.44C58.45,22.61,53.84,20.84,53.61,20.24Z"/><rect class="cls-8" x="42.48" y="12.5" width="0.18" height="0.7" rx="0.09" transform="translate(-0.5 1.78) rotate(-2.38)"/><path d="M42.66,13.49a.06.06,0,0,1-.11,0l-.14-.42a.06.06,0,0,1,.06-.06h.22a.07.07,0,0,1,.07.06Z"/><rect class="cls-8" x="54.88" y="12.75" width="0.18" height="0.7" rx="0.09" transform="translate(1.51 -5.21) rotate(5.5)"/><path d="M55,13.75a.06.06,0,0,1-.12,0l-.07-.44a.06.06,0,0,1,.06-.05l.23,0a.05.05,0,0,1,0,.07Z"/><path class="cls-9" d="M29.66,42.51l4.25-5.11,2.8-2.63,3.59-2.59a20.7,20.7,0,0,0-.71-5l-7.21-3c-.2-.14-.54,0-.74.28l-4,6-4.12,5.95c-.2.29-.5,1-.3,1.14,0,0,0,.61,2.06,3.27a5.61,5.61,0,0,0,2.88,2l.82.05A.6.6,0,0,0,29.66,42.51Z"/><path class="cls-4" d="M57.61,44l17.24,1.14c1.65-.44,3.45-1,4.27-2l.38-1.83c0-1.45-3.18-2.63-4-2.63l-10.71,0c-.83,0-5.41,1.12-5.41,1.94L56.1,42.51A1.5,1.5,0,0,0,57.61,44Z"/><path class="cls-5" d="M65.53,35.54l7.59,7.56a7.19,7.19,0,0,0,4.43.65l1.57-1c1-1-.38-4.1-1-4.68l-7.59-7.56a1.5,1.5,0,0,0-2.12,0l-2.92,2.93A1.5,1.5,0,0,0,65.53,35.54Z"/><path class="cls-9" d="M70.55,41.68l-5-4.36-3.18-2.15-4-2a20.19,20.19,0,0,1-.11-5.08L64.91,24c.18-.18.53-.11.78.15l4.94,5.29,5,5.21c.25.26.66.9.48,1.07,0,0,.05.61-1.51,3.56a5.41,5.41,0,0,1-2.52,2.39l-.8.19A.6.6,0,0,1,70.55,41.68Z"/><path class="cls-7" d="M67.41,27.4c0-2.71-2.87-5.07-7-5.07-1.23,0-5.17-2.28-6.19-1.94-.6-.09.37.55,0,.73,0,0-.42,2.75-5,2.76-5.79,0-6-3.33-6-3.33-.38-.07-1.06.58-1.52.8-1.14-.22-2.38,1.15-3.81,1.15-4.15,0-7.52,2.19-7.52,4.9,0,2,1.86,3.74,4.52,4.49l1.28,5.74c0,.33.36.6.83.66l1.52,10-.92,4.22a2.93,2.93,0,0,0,1,4.57l7.15,1.29c1.19.22,3.19-.7,4.41-.71,1,0,3.36.73,4.36.47.81-.21,3.73-1.33,3.73-1.33,1.62-.67,7.43-6.23,5.12-6.88L61.8,45.88,60.56,38.3c.47-.07.83-.34.83-.67L62.66,32C65.44,31.24,67.41,29.47,67.41,27.4Z"/><path class="cls-9" d="M54.43,20.37a4.73,4.73,0,0,0-.93-.47c0,.09,0,.17.1.29a.41.41,0,0,0,.14.21.45.45,0,0,1,.08.49c-.45.79-1.38,2.27-5,2.27h-.08c-3.65,0-4.51-1.53-5-2.27a1.14,1.14,0,0,1,.06-.53.22.22,0,0,0,.12-.18c0-.1.08-.19.11-.29a5.14,5.14,0,0,0-.9.48.84.84,0,0,0-.26.57c.57,1.69,2.41,3.14,5.9,3.14h.08c3.49,0,5.33-1.45,5.9-3.14A.84.84,0,0,0,54.43,20.37Z"/><path class="cls-10" d="M70.36,73a18.87,18.87,0,0,1-2.27-.19,8.57,8.57,0,0,1-1.86-.48c-.17,0-.3-.1-.29-.16l.28-1.75c0-.06.15-.09.32-.06a11.79,11.79,0,0,0,2.1.49c1,.14,2,.18,2,.18.17,0,.3.1.29.16l-.28,1.74C70.68,73,70.53,73,70.36,73Z"/><rect x="65.62" y="71.13" width="5.09" height="5.09" rx="2.48" transform="translate(12.59 -9.91) rotate(9.16)"/><rect class="cls-6" x="66.26" y="71.68" width="3.98" height="3.01" rx="1.47" transform="matrix(0.99, 0.16, -0.16, 0.99, 12.52, -9.93)"/><path d="M66.71,73.56H69A2.42,2.42,0,0,1,71.46,76v1.18A1.49,1.49,0,0,1,70,78.65H65.74a1.46,1.46,0,0,1-1.46-1.46V76a2.42,2.42,0,0,1,2.42-2.42Z" transform="translate(12.98 -9.83) rotate(9.16)"/><rect class="cls-8" x="63.84" y="78.28" width="7.13" height="1.53" rx="0.75" transform="translate(13.44 -9.72) rotate(9.16)"/><rect class="cls-11" x="64.2" y="78.07" width="6.74" height="0.43" rx="0.21" transform="translate(13.32 -9.75) rotate(9.16)"/><path class="cls-10" d="M49.21,79.44A14.37,14.37,0,0,1,48,81.36a7.27,7.27,0,0,1-1.33,1.4c-.1.14-.24.21-.3.17l-1.62-1.25s0-.19.09-.33a9.63,9.63,0,0,0,1.44-1.59A17.86,17.86,0,0,0,47.38,78c.1-.14.23-.21.29-.17l1.62,1.25C49.35,79.16,49.31,79.3,49.21,79.44Z"/><rect x="46.26" y="79.18" width="5.09" height="5.09" rx="2.48" transform="translate(-45.73 70.55) rotate(-52.41)"/><rect class="cls-6" x="46.42" y="79.92" width="3.98" height="3.01" rx="1.47" transform="matrix(0.61, -0.79, 0.79, 0.61, -45.64, 70.12)"/><path d="M49.65,80.6h2.27a2.48,2.48,0,0,1,2.48,2.48v1.2A1.41,1.41,0,0,1,53,85.69H48.81a1.59,1.59,0,0,1-1.59-1.59V83a2.43,2.43,0,0,1,2.43-2.43Z" transform="translate(-46.07 72.69) rotate(-52.41)"/><rect class="cls-8" x="49.6" y="84.19" width="7.13" height="1.53" rx="0.75" transform="translate(-46.59 75.26) rotate(-52.41)"/><rect class="cls-11" x="49.21" y="84.24" width="6.74" height="0.43" rx="0.21" transform="translate(-46.41 74.6) rotate(-52.41)"/><rect x="48.32" y="92.78" width="2.88" height="4.34" rx="1.41"/><rect class="cls-8" x="48.02" y="90.47" width="3.49" height="4.34" rx="1.7"/><circle cx="34.97" cy="94.95" r="2.17"/><circle class="cls-10" cx="34.97" cy="94.95" r="1.64"/><circle cx="34.97" cy="94.95" r="0.83"/><path class="cls-8" d="M35,93.51c1.16,0,2.14.1,2.46,1.15.07-.23.11.18.11-.08a2.58,2.58,0,1,0-5.15,0c0,.26,0-.15.11.08C32.82,93.61,33.8,93.51,35,93.51Z"/><circle cx="66.63" cy="94.95" r="2.17"/><circle class="cls-10" cx="66.63" cy="94.95" r="1.64"/><circle cx="66.63" cy="94.95" r="0.83"/><path class="cls-8" d="M66.63,93.51c1.16,0,2.14.1,2.46,1.15.08-.23.12.18.12-.08a2.58,2.58,0,1,0-5.16,0c0,.26,0-.15.11.08C64.49,93.61,65.47,93.51,66.63,93.51Z"/><path class="cls-12" d="M37.41,29.53s9.21-6.16,12.35-6.16,12.35,6.16,12.35,6.16c.73,0,1.33,1.39,1.33,3.08v9.24c0,1.69-.6,3.08-1.33,3.08,0,0-9.25,4.08-12.35,4.08s-12.35-4.08-12.35-4.08c-.72,0-1.32-1.39-1.32-3.08V32.61C36.09,30.92,36.69,29.53,37.41,29.53Z"/><path class="cls-13" d="M37.82,30s8.91-5.74,11.94-5.74,12,5.74,12,5.74c.7,0,1.28,1.29,1.28,2.87v8.6c0,1.58-.58,2.87-1.28,2.87,0,0-9,3.8-12,3.8s-11.94-3.8-11.94-3.8c-.71,0-1.28-1.29-1.28-2.87v-8.6C36.54,31.28,37.11,30,37.82,30Z"/><path class="cls-8" d="M38.07,31.07s8.72-5.43,11.69-5.43,11.7,5.43,11.7,5.43c.69,0,1.25,1.23,1.25,2.72v7.15c0,1.49-.56,2.71-1.25,2.71,0,0-8.77,4.6-11.7,4.6s-11.69-4.6-11.69-4.6c-.69,0-1.26-1.22-1.26-2.71V33.79C36.81,32.3,37.38,31.07,38.07,31.07Z"/><path class="cls-12" d="M37,59.39H62.55c.76,0,1.37.28,1.37.63v1.9c0,.35-.61.64-1.37.64,0,0-9.58.84-12.79.84S37,62.56,37,62.56c-.75,0-1.37-.29-1.37-.64V60C35.6,59.67,36.22,59.39,37,59.39Z"/><path class="cls-13" d="M37,59.81H62.55c.76,0,1.37.28,1.37.63v1.91c0,.34-.61.63-1.37.63,0,0-9.58.84-12.79.84S37,63,37,63c-.75,0-1.37-.29-1.37-.63V60.44C35.6,60.09,36.22,59.81,37,59.81Z"/><path class="cls-10" d="M37,60.79s9.54.44,12.79.44,12.79-.44,12.79-.44c.76,0,1.37.22,1.37.49v1.47c0,.27-.61.49-1.37.49,0,0-9.58.65-12.79.65S37,63.24,37,63.24c-.75,0-1.37-.22-1.37-.49V61.28C35.6,61,36.22,60.79,37,60.79Z"/><path class="cls-6" d="M68.21,91.68c0,2-8.26-.14-18.45-.14s-18.44,2.12-18.44.14,8.26-3.59,18.44-3.59S68.21,89.7,68.21,91.68Z"/><rect x="47.53" y="71.32" width="4.46" height="16.81" transform="translate(99.53 159.44) rotate(180)"/><path class="cls-8" d="M63.2,68.92s-10,2.88-13.44,2.88-13.44-2.88-13.44-2.88a1.44,1.44,0,0,1-1.44-1.44V63.17a1.44,1.44,0,0,1,1.44-1.44s10.08,1.44,13.44,1.44S63.2,61.73,63.2,61.73a1.44,1.44,0,0,1,1.44,1.44v4.31A1.44,1.44,0,0,1,63.2,68.92Z"/><path class="cls-10" d="M40.3,31.68s7.08-3.92,9.49-3.92,9.5,3.92,9.5,3.92c.55,0,1,.88,1,2v5.87c0,1.08-.46,2-1,2,0,0-7.12-2-9.5-2s-9.49,2-9.49,2c-.56,0-1-.88-1-2V33.64C39.28,32.56,39.74,31.68,40.3,31.68Z"/><path class="cls-6" d="M55.88,67.75a38.72,38.72,0,0,1-6.12,1.31,38.8,38.8,0,0,1-6.11-1.31.66.66,0,0,1-.65-.66v-2a.66.66,0,0,1,.65-.66s4.58-.4,6.11-.4,6.12.4,6.12.4a.66.66,0,0,1,.65.66v2A.66.66,0,0,1,55.88,67.75Z"/><path class="cls-8" d="M46.26,31s2.64-1.83,3.54-1.83S53.34,31,53.34,31c.21,0,.38.41.38.91v2.74c0,.5-.17.91-.38.91,0,0-2.65,1.83-3.54,1.83s-3.54-1.83-3.54-1.83c-.21,0-.38-.41-.38-.91V31.89C45.88,31.39,46.05,31,46.26,31Z"/><path d="M46.92,31.66s2.15-1.48,2.88-1.48,2.88,1.48,2.88,1.48c.17,0,.31.34.31.75v2.22c0,.41-.14.74-.31.74,0,0-2.16,1.48-2.88,1.48s-2.88-1.48-2.88-1.48c-.16,0-.3-.33-.3-.74V32.41C46.62,32,46.76,31.66,46.92,31.66Z"/><path class="cls-8" d="M49.76,32.57a2.23,2.23,0,0,0-2.23,2.23V40H52V34.8A2.23,2.23,0,0,0,49.76,32.57Z"/><path class="cls-6" d="M52,39.93a2.23,2.23,0,0,0-4.46,0h0V56.74H52V39.93Z"/><path class="cls-8" d="M51.92,56.16a2.23,2.23,0,0,0-4.31,0,2.12,2.12,0,0,0-.08.57v8.92a2.1,2.1,0,0,0,.08.56,2.23,2.23,0,0,0,4.31,0,2.1,2.1,0,0,0,.07-.56V56.73A2.12,2.12,0,0,0,51.92,56.16Z"/></svg>