<svg id="Capa_1" data-name="Capa 1" xmlns="http://www.w3.org/2000/svg" viewBox="0 0 20 20"><title>services_icon_svg</title><path d="M10,.85a3,3,0,1,1-3,3,3,3,0,0,1,3-3M10,0a3.85,3.85,0,1,0,3.85,3.85A3.85,3.85,0,0,0,10,0Z"/><path d="M10,14.26l.61,1.25.14.28.32.05,1.37.2-1,1-.23.22,0,.32.24,1.36-1.23-.64L10,18.11l-.28.15-1.23.64.24-1.36,0-.32L8.55,17l-1-1,1.37-.2.32-.05.14-.28L10,14.26m0-1.35L8.85,15.24l-2.58.38,1.87,1.81L7.7,20,10,18.79,12.3,20l-.44-2.57,1.87-1.81-2.58-.38L10,12.91Z"/><path d="M3.21,13.31l.45.92.14.28.31.05,1,.14-.74.72-.22.22,0,.31.17,1-.9-.48-.28-.14-.28.14L2,17l.18-1,0-.31L2,15.42l-.73-.72,1-.14.32-.05.13-.28.46-.92m0-1.36-1,2L0,14.28l1.6,1.57-.37,2.2,2-1,2,1-.38-2.2,1.61-1.57L4.2,14l-1-2Z"/><path d="M15.73,12.26l.06.6.7-1.43a3.78,3.78,0,0,0-3.69-3H7.2a3.79,3.79,0,0,0-3.7,3l.71,1.44,0-.63A2.94,2.94,0,0,1,7.2,9.28h5.6A3,3,0,0,1,15.73,12.26Z"/><path d="M16.79,13.31l.45.92.14.28.32.05,1,.14-.73.72-.23.22.05.31L18,17l-.91-.48-.28-.14-.28.14-.9.48.17-1,.05-.31-.22-.22-.74-.72,1-.14.31-.05.14-.28.45-.92m0-1.36-1,2-2.22.32,1.61,1.57-.38,2.2,2-1,2,1-.37-2.2L20,14.28,17.78,14l-1-2Z"/></svg>