<svg id="Capa_1" data-name="Capa 1" xmlns="http://www.w3.org/2000/svg" viewBox="0 0 25 25"><defs><style>.cls-1{fill:#fff;}.cls-2{fill:#38a935;}</style></defs><title>wa_icon_svg</title><polygon class="cls-1" points="6.8 22.65 0 24.5 2.33 17.85 6.8 22.65"/><path class="cls-1" d="M13,.48a12,12,0,1,0,12,12A12,12,0,0,0,13,.48Zm0,22.43A10.41,10.41,0,1,1,23.39,12.5,10.41,10.41,0,0,1,13,22.91Z"/><path class="cls-2" d="M13,23.2a10.7,10.7,0,1,1,10.7-10.7A10.7,10.7,0,0,1,13,23.2Z"/><polygon class="cls-2" points="9.76 19.8 3.1 21.61 5.38 15.1 9.76 19.8"/><path class="cls-1" d="M20.46,16.33h0a2.12,2.12,0,0,1,0,.24v0a2,2,0,0,1,0,.24s0,0,0,.07l-.06.24s0,.06,0,.09-.07.23-.11.35a3.55,3.55,0,0,1-2.48,1.78,3.35,3.35,0,0,1-.61.08h0a9.69,9.69,0,0,1-3.8-1C9.58,16.89,7.19,13.12,7,12.87A7.38,7.38,0,0,1,5.51,9.25h0c0-.06,0-.12,0-.17h0v0A4,4,0,0,1,6.79,6a1.85,1.85,0,0,1,1.29-.45h.43A.65.65,0,0,1,9.22,6h0a2,2,0,0,1,.09.2c.3.73,1,2.54,1.14,2.73a.9.9,0,0,1,.1.5.41.41,0,0,1-.05.18,2.35,2.35,0,0,1-.41.58c-.19.22-.37.38-.55.61a.8.8,0,0,0-.24.43.6.6,0,0,0,.09.36,11.48,11.48,0,0,0,2,2.54,9.2,9.2,0,0,0,3,1.83.78.78,0,0,0,.89-.14,15.2,15.2,0,0,0,1-1.31.71.71,0,0,1,.91-.27l.47.2h0c.67.31,1.76.85,2,1s.62.28.71.43A1.15,1.15,0,0,1,20.46,16.33Z"/></svg>