<svg id="css_icon_svg" data-name="css_icon_svg" xmlns="http://www.w3.org/2000/svg" viewBox="0 0 25 25"><defs><style>.cls-1{fill:#2073b5;}.cls-2{fill:#51a2d9;}.cls-3{fill:#fff;}.cls-4{fill:#cdcdcc;}.cls-5{fill:#1a1a1a;}</style></defs><title>css_icon</title><polygon class="cls-1" points="5.26 22.99 3.64 4.91 21.36 4.91 19.74 22.99 12.49 25 5.26 22.99"/><polygon class="cls-2" points="12.5 23.46 18.36 21.84 19.74 6.39 12.5 6.39 12.5 23.46"/><polygon class="cls-3" points="6.75 10.56 6.53 8.47 18.47 8.47 18.33 10.89 13.28 13.13 18.13 13.13 17.6 20 12.72 21.31 7.66 20.08 7.34 16.6 9.58 16.6 9.71 18.44 12.64 18.98 15.35 18.16 15.47 15.21 7.15 15.21 7 13.02 12.5 10.61 6.75 10.56"/><polygon class="cls-4" points="7 13.02 7.15 15.21 12.5 15.21 12.5 10.61 7 13.02"/><polygon class="cls-4" points="9.71 18.44 9.58 16.6 7.34 16.6 7.66 20.08 12.5 21.26 12.5 18.96 9.71 18.44"/><polygon class="cls-4" points="6.53 8.47 6.75 10.56 12.5 10.61 12.5 8.47 6.53 8.47"/><polygon class="cls-5" points="14.21 0.84 14.21 0 10.84 0 10.84 1.97 13.16 1.97 13.16 2.6 10.77 2.6 10.77 3.37 14.14 3.37 14.14 1.33 11.75 1.33 11.75 0.84 14.21 0.84"/><polygon class="cls-5" points="8.1 1.99 8.1 2.6 10.49 2.6 10.49 3.37 7.12 3.37 7.12 1.35 7.12 0 10.42 0 10.42 0.84 8.1 0.84 8.1 1.99"/><polygon class="cls-5" points="17.93 0.84 17.93 0 14.56 0 14.56 1.97 16.88 1.97 16.88 2.6 14.49 2.6 14.49 3.37 17.86 3.37 17.86 1.33 15.47 1.33 15.47 0.84 17.93 0.84"/></svg>