<svg id="html_icon_svg" data-name="html_icon_svg" xmlns="http://www.w3.org/2000/svg" viewBox="0 0 25 25"><defs><style>.cls-1{fill:#e34d27;}.cls-2{fill:#eb652b;}.cls-3{fill:#fff;}.cls-4{fill:#cdcdcc;}.cls-5{fill:#1a1a1a;}</style></defs><title>html_icon</title><polygon class="cls-1" points="5.26 22.99 3.64 4.91 21.36 4.91 19.74 22.99 12.49 25 5.26 22.99"/><polygon class="cls-2" points="12.5 23.46 18.36 21.84 19.74 6.39 12.5 6.39 12.5 23.46"/><polygon class="cls-3" points="12.5 8.61 12.49 8.61 6.94 8.61 6.99 9.2 7.54 15.31 12.49 15.31 12.5 15.31 15.22 15.31 14.96 18.19 12.49 18.86 12.49 18.86 12.49 18.86 10.02 18.19 9.86 16.42 8.66 16.42 7.64 16.42 7.95 19.9 12.49 21.16 12.5 21.16 12.5 21.16 17.04 19.9 17.07 19.53 17.59 13.69 17.65 13.1 17.05 13.1 12.5 13.1 12.49 13.1 9.57 13.1 9.36 10.83 12.49 10.83 12.5 10.83 17.84 10.83 17.85 10.83 17.89 10.33 17.99 9.2 18.05 8.61 12.5 8.61"/><polygon class="cls-4" points="12.5 13.1 9.57 13.1 9.36 10.83 12.5 10.83 12.5 8.61 12.49 8.61 6.94 8.61 6.99 9.2 7.54 15.31 12.5 15.31 12.5 13.1"/><polygon class="cls-4" points="12.5 18.86 12.49 18.86 10.02 18.19 9.86 16.42 8.66 16.42 7.64 16.42 7.95 19.9 12.49 21.16 12.5 21.16 12.5 18.86"/><polygon class="cls-5" points="7.3 0 7.3 1.33 5.96 1.33 5.96 0 4.98 0 4.98 3.37 5.96 3.37 5.96 1.99 5.96 1.96 7.3 1.96 7.3 3.37 8.28 3.37 8.28 0 7.3 0"/><polygon class="cls-5" points="17.7 2.74 17.7 0 16.72 0 16.72 3.37 20.02 3.37 20.02 2.74 17.7 2.74"/><polygon class="cls-5" points="15.29 0 15.29 0 14.37 1.58 13.46 0 13.46 0 12.48 0 12.48 3.37 13.46 3.37 13.46 1.99 13.46 1.97 14.27 3.37 14.48 3.37 15.29 1.97 15.29 1.99 15.29 3.37 16.27 3.37 16.27 0 15.29 0"/><polygon class="cls-5" points="12.03 0 10.87 0 9.89 0 8.73 0 8.73 0.63 9.89 0.63 9.89 3.37 10.87 3.37 10.87 0.63 12.03 0.63 12.03 0"/></svg>