<svg id="js_logo_svg" data-name="js_logo_svg" xmlns="http://www.w3.org/2000/svg" viewBox="0 0 25 25"><defs><style>.cls-1{fill:#f7df1e;}.cls-2{fill:#000000;}</style></defs><title>javascript_logo_svg</title><path class="cls-1" d="M0,0H25V25H0Z"/><path class="cls-2" d="M6.57,20.89l1.92-1.16c.37.66.7,1.21,1.51,1.21s1.26-.3,1.26-1.47v-8H13.6v8A3.19,3.19,0,0,1,10.1,23a3.65,3.65,0,0,1-3.53-2.15"/><path class="cls-2"  d="M14.88,20.64l1.91-1.11A2.58,2.58,0,0,0,19.11,21c1,0,1.59-.49,1.59-1.16s-.63-1.09-1.71-1.56L18.41,18c-1.7-.72-2.82-1.63-2.82-3.54A3.14,3.14,0,0,1,19,11.34a3.48,3.48,0,0,1,3.34,1.88L20.54,14.4a1.61,1.61,0,0,0-1.51-1,1,1,0,0,0-1.13,1c0,.7.44,1,1.44,1.42l.59.26c2,.85,3.12,1.72,3.12,3.69S21.39,23,19.16,23a4.52,4.52,0,0,1-4.28-2.4"/></svg>