<svg id="sass_icon_svg" data-name="sass_icon_svg" xmlns="http://www.w3.org/2000/svg" viewBox="0 0 25 25"><defs><style>.cls-1{fill:#cf649a;}</style></defs><title>sass_icon</title><path class="cls-1" d="M21.52,13.89a5.23,5.23,0,0,0-2.26.53,4.64,4.64,0,0,1-.51-1.17,3.2,3.2,0,0,1-.05-1A8.25,8.25,0,0,1,19,11.2s-.05-.26-.56-.27-.93.1-1,.23a5.06,5.06,0,0,0-.21.75,18.35,18.35,0,0,1-1.53,2.94,3.1,3.1,0,0,1-.35-.86,3.54,3.54,0,0,1,0-1,7.21,7.21,0,0,1,.3-1.06s-.06-.26-.56-.27-.94.1-1,.23-.1.45-.21.75-1.32,3-1.64,3.73c-.16.36-.3.65-.4.84l0,0-.13.25h0c-.07.12-.15.24-.18.24a1.77,1.77,0,0,1,0-.78c.18-.94.62-2.41.62-2.46s.08-.29-.29-.42a.45.45,0,0,0-.51.09s-.05.08-.05.08.39-1.66-.76-1.66a3.42,3.42,0,0,0-2.21,1.51L6.63,15l-.81.45-.06-.06c-1.39-1.49-4-2.54-3.87-4.55,0-.72.29-2.64,5-5,3.83-1.9,6.89-1.38,7.42-.22.76,1.66-1.64,4.75-5.61,5.19a3,3,0,0,1-2.51-.63C5.94,10,5.91,10,5.83,10s0,.28,0,.4a2.39,2.39,0,0,0,1.44,1.13,7.6,7.6,0,0,0,4.65-.46c2.41-.94,4.29-3.52,3.74-5.69S11.44,2.5,8,3.72A17.43,17.43,0,0,0,2.11,7.1C.2,8.88-.1,10.43,0,11.07c.44,2.3,3.61,3.8,4.88,4.91l-.18.1c-.63.31-3.05,1.58-3.65,2.91-.69,1.52.1,2.61.63,2.75A3.89,3.89,0,0,0,5.91,20a4.2,4.2,0,0,0,.38-3.88v0l.49-.3.92-.51A6.26,6.26,0,0,0,7.36,17a3.52,3.52,0,0,0,.75,2.41.83.83,0,0,0,.6.19c.54,0,.78-.44,1-1s.63-1.4.63-1.4-.37,2,.63,2c.37,0,.73-.47.9-.71h0l0-.05.06-.09h0c.15-.26.47-.84,1-1.8.63-1.24,1.24-2.79,1.24-2.79a6.85,6.85,0,0,0,.24,1A8.51,8.51,0,0,0,15,16l-.24.32h0c-.12.16-.25.33-.39.49a15.2,15.2,0,0,0-1.17,1.47.41.41,0,0,0,.11.54.94.94,0,0,0,.61.1,2.69,2.69,0,0,0,.92-.21,3,3,0,0,0,.79-.42,1.75,1.75,0,0,0,.76-1.56,3.27,3.27,0,0,0-.29-1.09l.13-.2A21.28,21.28,0,0,0,17.58,13a9.47,9.47,0,0,0,.24,1,7.65,7.65,0,0,0,.44,1,4.39,4.39,0,0,0-1.33,1.73c-.29.83-.06,1.2.36,1.29a1.27,1.27,0,0,0,.67-.14,3,3,0,0,0,.85-.43A1.93,1.93,0,0,0,19.74,16a3.24,3.24,0,0,0-.21-.92A4.71,4.71,0,0,1,22,14.77c2.17.25,2.6,1.61,2.52,2.17a1.46,1.46,0,0,1-.69,1c-.15.09-.2.13-.18.2s.08.09.22.07A1.69,1.69,0,0,0,25,16.68c.06-1.34-1.22-2.8-3.48-2.79ZM4.76,19.54C4,20.33,3,20.62,2.6,20.37s-.28-1.42.6-2.26a10.85,10.85,0,0,1,1.7-1.26l.44-.27,0,0,.11-.07a3.1,3.1,0,0,1-.74,3.06ZM10,16c-.25.61-.78,2.18-1.09,2.09s-.44-1.26-.06-2.43a5.52,5.52,0,0,1,.86-1.57c.39-.44.82-.58.93-.4A8,8,0,0,1,10,16ZM14.34,18a.35.35,0,0,1-.25.07s.05-.1.05-.1.54-.58.75-.85.27-.33.43-.54v.06a1.79,1.79,0,0,1-1,1.36Zm3.34-.76c-.08-.06-.07-.24.2-.81a3,3,0,0,1,.74-.95,1.06,1.06,0,0,1,.07.42A1.37,1.37,0,0,1,17.68,17.28Z"/></svg>