<svg id="Capa_1" data-name="Capa 1" xmlns="http://www.w3.org/2000/svg" viewBox="0 0 25 25"><defs><style>.cls-1{fill:#2489ca;}.cls-2{fill:#1070b3;}.cls-3{fill:#0877b9;}.cls-4{fill:#3c99d4;}</style></defs><title>VSCode__icon</title><path class="cls-1" d="M.24,8.62s-.61-.43.12-1l1.7-1.52a.72.72,0,0,1,1-.07l15.71,11.9v5.7s0,.89-1.15.8Z"/><path class="cls-2" d="M4.29,12.3.24,16s-.42.31,0,.86l1.88,1.71s.44.48,1.1-.06l4.3-3.26Z"/><path class="cls-3" d="M11.4,12.33l7.42-5.67L18.77,1S18.46-.25,17.4.39l-9.88,9Z"/><path class="cls-4" d="M17.62,24.41a1,1,0,0,0,.95.3l5.79-2.85A1.21,1.21,0,0,0,25,20.73V3.7a1.14,1.14,0,0,0-.76-1l-5-2.42A1.4,1.4,0,0,0,17.4.39s.92-.66,1.37.6V23.5a1.13,1.13,0,0,1-.09.45c-.14.27-.42.51-1.11.41Z"/></svg>