<svg id="hermed_icon_svg" data-name="hermed_icon_svg" xmlns="http://www.w3.org/2000/svg" xmlns:xlink="http://www.w3.org/1999/xlink" viewBox="0 0 40 35"><defs><style>.cls-1,.cls-8{fill:#f1c4dc;}.cls-1,.cls-11{stroke:#996884;}.cls-1,.cls-11,.cls-14,.cls-15,.cls-19,.cls-3,.cls-6,.cls-9{stroke-miterlimit:10;}.cls-1,.cls-11,.cls-14,.cls-15,.cls-3,.cls-6,.cls-9{stroke-width:0.05px;}.cls-2{fill:#e6cd00;}.cls-14,.cls-3{fill:#eeeded;}.cls-3,.cls-6{stroke:#020202;}.cls-4{fill:#e6b8d5;}.cls-5{fill:#996884;}.cls-15,.cls-6{fill:#fff;}.cls-7{fill:#ece3e6;}.cls-11,.cls-9{fill:none;}.cls-9{stroke:#000;stroke-linecap:round;}.cls-10{clip-path:url(#clip-path);}.cls-12{fill:#b27aa3;}.cls-13{fill:#daaac9;}.cls-14,.cls-15{stroke:#030304;}.cls-16{fill:#885b49;}.cls-17{clip-path:url(#clip-path-2);}.cls-18{fill:#cc1976;}.cls-19{fill:#cd78ac;stroke:#5f256b;stroke-width:0.11px;}</style><clipPath id="clip-path"><path class="cls-1" d="M21.93,10.27s-1.17.15-1.37-.13-.49,1.31-.23,1.72.81.58,1.67.32S21.93,10.27,21.93,10.27Z"/></clipPath><clipPath id="clip-path-2"><path class="cls-1" d="M18.36,10.12s1.17.15,1.37-.13.49,1.31.23,1.72-.81.58-1.67.32S18.36,10.12,18.36,10.12Z"/></clipPath></defs><path class="cls-2" d="M31.72,9.93A7.27,7.27,0,0,0,32,4.05,6.75,6.75,0,0,0,26,0c-3.14,0-4.86,2.52-5.69,4.27C19.46,2.52,17.73,0,14.6,0A6.74,6.74,0,0,0,8.53,4.05c-.59,1.42-1,4.07,1.26,7.62C10.39,10.31,20.2,22.09,20.28,22S31.4,9.44,31.72,9.93Z"/><path class="cls-3" d="M28.15,6.75S31.73,3.6,33.49,3.6s.14,2.1-.38,2.44c.76.2.2,1-.37,1.27.14.36-.82,1-1.86,1,0,.5-.52.63-.9.71C28.29,10.36,25.67,9.51,28.15,6.75Z"/><path class="cls-4" d="M30.27,12.5c-1.05.73.35,5.35.43,5.67s2.19.43,2.15,0A38.23,38.23,0,0,1,34,13.53"/><path class="cls-5" d="M30.27,12.5A2,2,0,0,0,29.89,14a12.44,12.44,0,0,0,.21,1.61c.1.53.23,1.06.37,1.58s.13,1.22.8,1.2a3.05,3.05,0,0,0,.8,0c.26,0,.57,0,.74-.22a10,10,0,0,1,.32-1.59c.28-1,.58-2.09.9-3.12-.31,1-.61,2.08-.87,3.13a9.62,9.62,0,0,0-.31,1.6,1.21,1.21,0,0,1-.78.25,3.66,3.66,0,0,1-.81,0c-.25,0-.61-.14-.62-.46l-.21-.79c-.14-.52-.26-1.05-.35-1.59a10.9,10.9,0,0,1-.2-1.61A2,2,0,0,1,30.27,12.5Z"/><path d="M32.92,18.1,30.57,18s.06,1,.19,1.11c.36.25.9-.34,1-.27s.32.45.76.51S32.92,18.1,32.92,18.1Z"/><path class="cls-4" d="M26.79,15.2s.08,2.39,0,2.68-2.18.4-2.14,0,.05-2.68.05-2.68"/><path class="cls-5" d="M26.79,15.2c0,.64.05,1.28.05,1.92v.48c0,.15,0,.37-.17.44a2.58,2.58,0,0,1-1,.17,2.64,2.64,0,0,1-1-.15.21.21,0,0,1-.13-.21v-.72l.05-1.92,0,1.93v.48c0,.15-.06.35.11.4a2.13,2.13,0,0,0,.94.13,2.27,2.27,0,0,0,.93-.15c.16-.05.14-.24.15-.4l0-.48Q26.82,16.16,26.79,15.2Z"/><path d="M24.58,17.82l2.32-.15s0,.95-.17,1c-.36.23-.9-.31-1-.25a1.51,1.51,0,0,1-.77.47C24.6,19,24.58,17.82,24.58,17.82Z"/><path class="cls-1" d="M23.89,7.73S26.34,6.25,27.6,7C28.69,7.56,28.78,8.67,29,9s-1.35.1-1.62.29c-.92.64-1.17.22-2,.28"/><path class="cls-1" d="M24.21,7.18a4.41,4.41,0,0,0-2.57,6.1c1.17,3,14.81,7.58,15.59-1.09.66-7.32-7.45-4.67-7.84-4.67C28.38,7.52,26.15,6.36,24.21,7.18Z"/><path class="cls-6" d="M30.25,7S34.92,4,36.66,4.22s-.23,2.1-.79,2.36c.71.31,0,1-.58,1.2.08.37-1,.91-2,.72-.09.5-.63.65-1,.67C29.35,9,27.33,9.39,30.25,7Z"/><path class="cls-7" d="M34.69,6.45a.34.34,0,0,1-.08.51,1.7,1.7,0,0,1-.51.28v0c.14,0,.33.13.31.31a.53.53,0,0,1-.28.37,1,1,0,0,1-.91.09l0,0c0,.28-.27.41-.47.5a2.54,2.54,0,0,1-.67.17,2.46,2.46,0,0,1-1.37-.14,2.52,2.52,0,0,0,1.36.12,2.57,2.57,0,0,0,.67-.19c.2-.08.44-.23.43-.45v0l0,0a.93.93,0,0,0,.87-.07.51.51,0,0,0,.27-.34c0-.16-.15-.25-.28-.29h0A1.89,1.89,0,0,0,34.61,7,.36.36,0,0,0,34.69,6.45Z"/><path class="cls-8" d="M35.48,8.63a1.62,1.62,0,0,0,1.73-.1.73.73,0,0,0,.22-.82.54.54,0,0,0-.25-.35.37.37,0,0,0-.4.13.4.4,0,0,0-.1.41.43.43,0,0,0,.37.21A2.37,2.37,0,0,0,38,8a.55.55,0,0,0,.41-.7,2,2,0,0,0-.5-.77,2.17,2.17,0,0,1,.51.76A.58.58,0,0,1,38,8a2.34,2.34,0,0,1-.91.13.48.48,0,0,1-.4-.22.44.44,0,0,1,.11-.44.42.42,0,0,1,.43-.14.61.61,0,0,1,.28.37.79.79,0,0,1-.23.86,1.66,1.66,0,0,1-1.78.12Z"/><path class="cls-8" d="M28.06,16.21s.08,2.39,0,2.67-2.18.4-2.14,0,0-2.67,0-2.67"/><path class="cls-5" d="M28.06,16.21c0,.64.05,1.28.05,1.92v.48c0,.14,0,.36-.18.43a2.34,2.34,0,0,1-.94.17,2.45,2.45,0,0,1-1-.15c-.19-.07-.11-.31-.12-.44v-.48l0-1.92,0,1.92v.48c0,.16-.06.35.11.41a2.44,2.44,0,0,0,.93.13,2.48,2.48,0,0,0,.94-.16c.16-.05.14-.24.15-.39l0-.48Q28.09,17.17,28.06,16.21Z"/><path d="M25.85,18.82l2.32-.15s0,1-.17,1c-.36.23-.9-.31-1-.25a1.51,1.51,0,0,1-.77.47C25.87,20,25.85,18.82,25.85,18.82Z"/><path class="cls-8" d="M32.77,13.18c-1.1.73.37,5.35.46,5.67s2.3.43,2.26,0a37.26,37.26,0,0,1,1.24-4.64"/><path class="cls-5" d="M32.77,13.18a1.9,1.9,0,0,0-.39,1.54,12.86,12.86,0,0,0,.22,1.62c.11.54.24,1.07.39,1.6l.23.79c0,.29.38.32.63.38a2.65,2.65,0,0,0,1.58-.17,12,12,0,0,1,.35-1.59c.29-1.05.61-2.1.95-3.14-.33,1-.64,2.09-.92,3.15A14.4,14.4,0,0,0,35.46,19a1.51,1.51,0,0,1-.8.22,4.5,4.5,0,0,1-.82,0,1.4,1.4,0,0,1-.4-.11.37.37,0,0,1-.27-.31L33,18c-.14-.53-.27-1.07-.37-1.6a11.39,11.39,0,0,1-.22-1.63A1.91,1.91,0,0,1,32.77,13.18Z"/><path d="M35.56,18.77l-2.47-.13s.06,1,.2,1.11c.38.25,1-.34,1.08-.27s.34.45.81.51S35.56,18.77,35.56,18.77Z"/><path class="cls-9" d="M23.36,10.49s.93-1,1.46.42"/><path class="cls-8" d="M21.93,10.27s-1.17.15-1.37-.13-.49,1.31-.23,1.72.81.58,1.67.32S21.93,10.27,21.93,10.27Z"/><path class="cls-8" d="M21.93,10.27s-1.17.15-1.37-.13-.49,1.31-.23,1.72.81.58,1.67.32S21.93,10.27,21.93,10.27Z"/><g class="cls-10"><path class="cls-1" d="M20.53,10s.73,2.59-.16,2.43S20.12,10,20.53,10Z"/></g><path class="cls-11" d="M21.93,10.27s-1.17.15-1.37-.13-.49,1.31-.23,1.72.81.58,1.67.32S21.93,10.27,21.93,10.27Z"/><path class="cls-12" d="M20.37,11.3c0,.19,0,.34.1.34s.1-.15.1-.34,0-.35-.1-.35S20.37,11.1,20.37,11.3Z"/><path class="cls-8" d="M25.59,8s2.46-1.47,3.71-.77c1.09.61,1.18,1.72,1.45,2s-1.36.1-1.62.29c-.93.65-1.18.22-2,.29"/><path class="cls-5" d="M25.59,8A7.67,7.67,0,0,1,28,7a2.15,2.15,0,0,1,1.28.12A2.32,2.32,0,0,1,30.2,8c.24.36.34.8.54,1.17a.1.1,0,0,1,0,.09.15.15,0,0,1-.07.05.51.51,0,0,1-.17,0,1.66,1.66,0,0,1-.32,0l-.64,0c-.45,0-.74.41-1.19.45s-.85-.12-1.29-.07c.43-.06.86.12,1.29,0s.73-.47,1.19-.45l.64-.05.32,0c.08,0,.28,0,.18-.12-.22-.38-.31-.81-.55-1.16a2.33,2.33,0,0,0-.92-.87A2.13,2.13,0,0,0,28,7.05,7.44,7.44,0,0,0,25.59,8Z"/><path class="cls-13" d="M26.47,8.28s2.11-1,2.72-.63a2.51,2.51,0,0,1,1.17,1.4c0,.15-1.28.12-1.44.3C28.18,10.17,25.73,8.78,26.47,8.28Z"/><path class="cls-14" d="M12.13,6.6S8.56,3.45,6.8,3.45s-.14,2.1.37,2.44c-.75.2-.2,1,.38,1.27-.15.36.81,1,1.85,1,0,.5.53.63.91.71C12,10.21,14.61,9.36,12.13,6.6Z"/><path class="cls-4" d="M10,12.35c1.05.73-.35,5.35-.43,5.67s-2.19.43-2.15,0a38.23,38.23,0,0,0-1.18-4.64"/><path class="cls-5" d="M10,12.35a2,2,0,0,1,.39,1.53,12.42,12.42,0,0,1-.2,1.61c-.1.54-.22,1.07-.35,1.59l-.21.79c0,.32-.37.42-.62.46a3.73,3.73,0,0,1-.82,0,1.21,1.21,0,0,1-.77-.25,9.62,9.62,0,0,0-.31-1.6c-.26-1.05-.56-2.09-.87-3.13q.48,1.55.9,3.12a9.74,9.74,0,0,1,.32,1.59c.17.19.48.19.74.22a3.05,3.05,0,0,0,.8,0c.67,0,.63-.72.8-1.2s.26-1.05.36-1.58a10.91,10.91,0,0,0,.21-1.61A2,2,0,0,0,10,12.35Z"/><path d="M7.37,18l2.35-.14s-.06,1-.2,1.11c-.35.25-.9-.34-1-.27s-.33.45-.76.51S7.37,18,7.37,18Z"/><path class="cls-4" d="M13.5,15.05s-.08,2.39,0,2.68,2.19.4,2.15,0-.05-2.68-.05-2.68"/><path class="cls-5" d="M13.5,15.05q0,1,0,1.92l0,.48c0,.16,0,.35.15.4a2.27,2.27,0,0,0,.93.15,2.13,2.13,0,0,0,.94-.13c.17-.05.09-.25.11-.4V17l0-1.93L15.64,17v.72a.22.22,0,0,1-.13.21,2.64,2.64,0,0,1-1,.15,2.58,2.58,0,0,1-1-.17c-.18-.07-.16-.29-.17-.44V17C13.45,16.33,13.47,15.69,13.5,15.05Z"/><path d="M15.71,17.67l-2.33-.15s0,.95.18,1c.36.23.9-.31,1-.25a1.51,1.51,0,0,0,.77.47C15.69,18.83,15.71,17.67,15.71,17.67Z"/><path class="cls-1" d="M16.4,7.58S14,6.1,12.69,6.8c-1.09.61-1.18,1.72-1.44,2.05s1.35.1,1.62.29c.92.64,1.17.22,2,.28"/><path class="cls-1" d="M16.08,7a4.41,4.41,0,0,1,2.57,6.1c-1.17,3-14.81,7.58-15.59-1.09C2.4,4.72,10.51,7.37,10.9,7.37,11.91,7.37,14.14,6.21,16.08,7Z"/><path class="cls-15" d="M10,6.88S5.37,3.81,3.63,4.07s.22,2.1.79,2.36c-.72.31,0,1,.58,1.2-.08.37,1,.91,2,.72.09.49.63.65,1,.67C10.94,8.8,13,9.24,10,6.88Z"/><path class="cls-7" d="M5.6,6.3a.34.34,0,0,0,.08.51,1.89,1.89,0,0,0,.51.26h0c-.13,0-.31.13-.28.29a.51.51,0,0,0,.27.34A.91.91,0,0,0,7,7.79l0,0v.05c0,.22.23.37.43.45a2.61,2.61,0,0,0,.66.19,2.55,2.55,0,0,0,1.37-.12,2.46,2.46,0,0,1-1.37.14,2.71,2.71,0,0,1-.68-.17C7.3,8.22,7,8.09,7,7.81l0,0a1,1,0,0,1-.91-.09.53.53,0,0,1-.28-.37c0-.18.17-.27.31-.31v0a1.63,1.63,0,0,1-.52-.28A.35.35,0,0,1,5.6,6.3Z"/><path class="cls-8" d="M5,8.2a1.65,1.65,0,0,1-1.76.27.76.76,0,0,1-.41-.79A.57.57,0,0,1,3,7.26a.39.39,0,0,1,.44,0,.43.43,0,0,1,.2.41.44.44,0,0,1-.33.3,2.61,2.61,0,0,1-.92.07.57.57,0,0,1-.56-.62,1.82,1.82,0,0,1,.33-.86,2.06,2.06,0,0,0-.33.86.57.57,0,0,0,.56.6A2.33,2.33,0,0,0,3.31,8a.41.41,0,0,0,.32-.29.39.39,0,0,0-.19-.37.36.36,0,0,0-.42,0,.57.57,0,0,0-.17.4.74.74,0,0,0,.4.75A1.63,1.63,0,0,0,5,8.16Z"/><path class="cls-8" d="M12.23,16.06s-.08,2.39,0,2.67,2.18.4,2.14,0,0-2.67,0-2.67"/><path class="cls-5" d="M12.23,16.06q0,1,0,1.92l0,.48c0,.15,0,.34.15.39a2.46,2.46,0,0,0,.93.16,2.46,2.46,0,0,0,.94-.13c.17-.06.09-.25.11-.41V18l0-1.92,0,1.92v.48c0,.13.07.37-.13.44a2.37,2.37,0,0,1-.95.15,2.39,2.39,0,0,1-1-.17c-.18-.07-.16-.29-.17-.43V18C12.18,17.34,12.2,16.7,12.23,16.06Z"/><path d="M14.44,18.67l-2.33-.15s0,1,.18,1c.36.23.9-.31,1-.25a1.51,1.51,0,0,0,.77.47C14.42,19.83,14.44,18.67,14.44,18.67Z"/><path class="cls-8" d="M7.52,13c1.1.73-.37,5.35-.46,5.67s-2.3.43-2.26,0a37.26,37.26,0,0,0-1.24-4.64"/><path class="cls-5" d="M7.52,13a1.91,1.91,0,0,1,.4,1.54,11.36,11.36,0,0,1-.21,1.63c-.1.53-.23,1.07-.37,1.6l-.22.79a.37.37,0,0,1-.27.31,1.4,1.4,0,0,1-.4.11,4.5,4.5,0,0,1-.82,0,1.51,1.51,0,0,1-.8-.22,14.4,14.4,0,0,0-.35-1.61c-.28-1.06-.59-2.11-.92-3.15.33,1,.66,2.09.95,3.14a12,12,0,0,1,.35,1.59A2.65,2.65,0,0,0,6.44,19c.24-.06.61-.09.63-.38l.23-.79c.15-.53.28-1.06.39-1.6a12.77,12.77,0,0,0,.22-1.63A1.93,1.93,0,0,0,7.52,13Z"/><path d="M4.73,18.62l2.47-.13s-.06,1-.21,1.11c-.37.25-.94-.34-1.07-.27s-.35.45-.81.51S4.73,18.62,4.73,18.62Z"/><path class="cls-16" d="M17.18,10.67a1.29,1.29,0,0,1-1.29.71,1,1,0,0,1-.82-1.21,1,1,0,0,1,1.26-.69A1.18,1.18,0,0,1,17.18,10.67Zm0,0a1.16,1.16,0,0,0-.85-1.15.91.91,0,0,0-1.2.67,1,1,0,0,0,.77,1.18A1.28,1.28,0,0,0,17.17,10.66Z"/><path class="cls-9" d="M16.93,10.29s-1-.94-1.43.51"/><path class="cls-8" d="M18.36,10.12s1.17.15,1.37-.13.49,1.31.23,1.72-.81.58-1.67.32S18.36,10.12,18.36,10.12Z"/><path class="cls-8" d="M18.36,10.12s1.17.15,1.37-.13.49,1.31.23,1.72-.81.58-1.67.32S18.36,10.12,18.36,10.12Z"/><g class="cls-17"><path class="cls-1" d="M19.76,9.86s-.74,2.59.16,2.43S20.17,9.84,19.76,9.86Z"/></g><path class="cls-11" d="M18.36,10.12s1.17.15,1.37-.13.49,1.31.23,1.72-.81.58-1.67.32S18.36,10.12,18.36,10.12Z"/><path class="cls-12" d="M19.92,11.15c0,.19-.05.34-.1.34s-.1-.15-.1-.34,0-.35.1-.35S19.92,11,19.92,11.15Z"/><path class="cls-8" d="M14.7,7.81S12.24,6.34,11,7c-1.1.61-1.18,1.72-1.45,2s1.35.1,1.62.29c.92.65,1.18.22,2,.29"/><path class="cls-5" d="M14.7,7.81a7.44,7.44,0,0,0-2.4-.91A2.13,2.13,0,0,0,11.05,7a2.27,2.27,0,0,0-.92.87c-.24.35-.33.78-.55,1.16-.1.09.1.1.18.12l.32,0,.64,0c.46,0,.75.41,1.19.45s.85-.11,1.29-.05c-.44-.05-.86.13-1.29.07s-.74-.47-1.19-.45l-.64,0-.33,0-.16,0a.15.15,0,0,1-.07,0,.1.1,0,0,1,0-.09c.2-.37.3-.81.54-1.17A2.32,2.32,0,0,1,11,7a2.13,2.13,0,0,1,1.27-.12A7.72,7.72,0,0,1,14.7,7.81Z"/><path class="cls-13" d="M13.82,8.13s-2.11-1-2.72-.63A2.42,2.42,0,0,0,9.93,8.9c0,.15,1.28.12,1.44.3C12.1,10,14.56,8.63,13.82,8.13Z"/><path class="cls-16" d="M6.38,9.56c0,.34-.57.51-.91.51a.62.62,0,0,1-.62-.62.61.61,0,0,1,.62-.61C5.81,8.84,6.38,9.22,6.38,9.56Z"/><path class="cls-16" d="M7.2,10.44c0,.22-.31.32-.49.32a.39.39,0,0,1,0-.77C6.89,10,7.2,10.23,7.2,10.44Z"/><path class="cls-18" d="M19.49,7.94a.32.32,0,0,0,0,.19h0c0,.27.7.62.7.62a2.18,2.18,0,0,0,.39-.46A.46.46,0,0,0,20.65,8v0h0a.34.34,0,0,0-.36-.25h0a.45.45,0,0,0-.25.2.39.39,0,0,0-.32-.11h0a.29.29,0,0,0-.21.16"/><path class="cls-18" d="M20.41,5.75a.43.43,0,0,0-.1.23h0c0,.37.73,1,.73,1a3,3,0,0,0,.67-.47s.24-.22.23-.42a0,0,0,0,1,0,0h0v0a.45.45,0,0,0-.39-.45h0a.59.59,0,0,0-.39.18.52.52,0,0,0-.38-.25h0a.44.44,0,0,0-.34.13"/><path class="cls-18" d="M18.56,3.39a.57.57,0,0,0,0,.34h0c.09.49,1.36,1,1.36,1a4.48,4.48,0,0,0,.66-.87.91.91,0,0,0,.13-.64v0h0s0,0,0,0A.62.62,0,0,0,20,2.8h0a.77.77,0,0,0-.42.38A.73.73,0,0,0,19,3h0a.53.53,0,0,0-.37.31"/><path class="cls-19" d="M6.18,24.25a.55.55,0,0,1-.08.41,2.65,2.65,0,0,1-1.71,1.27,1.92,1.92,0,0,1-1.09-.14,2.18,2.18,0,0,1-.85-.72,2.55,2.55,0,0,1-.41-1,2.87,2.87,0,0,1,0-1.2,3.82,3.82,0,0,1,.55-1.28,3.25,3.25,0,0,1,.83-.86,2.38,2.38,0,0,1,1-.4,1.57,1.57,0,0,1,1,.18,1.64,1.64,0,0,1,.71,1,.63.63,0,0,1-.06.43.58.58,0,0,1-.34.25.6.6,0,0,1-.42-.06.53.53,0,0,1-.26-.34.49.49,0,0,0-.19-.3.51.51,0,0,0-.31,0,1.24,1.24,0,0,0-.52.23,2.05,2.05,0,0,0-.74.94,2.69,2.69,0,0,0-.19,1.14,1.65,1.65,0,0,0,.31.91.76.76,0,0,0,.75.29,1.8,1.8,0,0,0,1-.88.59.59,0,0,1,.35-.23.52.52,0,0,1,.42.08A.56.56,0,0,1,6.18,24.25Z"/><path class="cls-19" d="M9.84,24.14a.65.65,0,0,1-.36.33.62.62,0,0,1-.48,0,.6.6,0,0,1-.33-.35.64.64,0,0,1,0-.49,1.33,1.33,0,0,0,.16-.51.3.3,0,0,0-.21-.31.69.69,0,0,0-.51.07,1.42,1.42,0,0,0-.54.53,1.53,1.53,0,0,1-.16.31,8.65,8.65,0,0,0,0,1.71.51.51,0,0,1-.14.51.39.39,0,0,1-.4.08.59.59,0,0,1-.31-.46,12.24,12.24,0,0,1-.23-1.78,7.54,7.54,0,0,1,.19-1.82.56.56,0,0,1,.22-.35.5.5,0,0,1,.41-.09.54.54,0,0,1,.44.51,1.78,1.78,0,0,1,.77-.3,1.83,1.83,0,0,1,.78.05,1.25,1.25,0,0,1,.69.5A1.82,1.82,0,0,1,9.84,24.14Z"/><path class="cls-19" d="M13.76,24a.31.31,0,0,1,.36.14.52.52,0,0,1,0,.53,1.91,1.91,0,0,1-.83.93,2,2,0,0,1-1.09.22,2.14,2.14,0,0,1-1.09-.38,1.8,1.8,0,0,1-.64-1.09,2.69,2.69,0,0,1-.08-.65,1.92,1.92,0,0,1,1.12-1.8,2,2,0,0,1,.95-.12,2.15,2.15,0,0,1,.94.32,1,1,0,0,1,.49.72.72.72,0,0,1-.22.64,1.19,1.19,0,0,1-.65.29,3.8,3.8,0,0,1-.84,0,6.11,6.11,0,0,1-.81-.11,1.11,1.11,0,0,0,1,1.26,1.26,1.26,0,0,0,.7-.2.85.85,0,0,0,.32-.36C13.47,24.19,13.6,24.06,13.76,24Zm-1.94-1.1h.06c.19.06.72.2.84,0a.22.22,0,0,0-.11-.13.67.67,0,0,0-.29-.1.68.68,0,0,0-.34.06A.51.51,0,0,0,11.82,22.93Z"/><path class="cls-19" d="M17.34,22.11a1.28,1.28,0,0,1,.38,1,10.92,10.92,0,0,1-.27,2.49.47.47,0,0,1-.54.43.31.31,0,0,1-.28-.32,2.23,2.23,0,0,1-.86.08A1.62,1.62,0,0,1,15,25.5a1.11,1.11,0,0,1-.43-.67,1.71,1.71,0,0,1,.13-1,1.39,1.39,0,0,1,.7-.71,2,2,0,0,1,1.44.06.68.68,0,0,0-.61-.58,1.14,1.14,0,0,0-.37,0,.54.54,0,0,0-.3.19.69.69,0,0,1-.42.28.56.56,0,0,1-.46-.05.41.41,0,0,1-.13-.45.89.89,0,0,1,.37-.56,2,2,0,0,1,.68-.28,2.27,2.27,0,0,1,.74-.06A1.66,1.66,0,0,1,17.34,22.11ZM15.4,24.43a.65.65,0,0,0,.23.48.87.87,0,0,0,.53.22.78.78,0,0,0,.6-.26v-.06c0-.14.05-.33.08-.56a.47.47,0,0,0-.18-.24,1.14,1.14,0,0,0-.47-.14,1.18,1.18,0,0,0-.48,0A.63.63,0,0,0,15.4,24.43Z"/><path class="cls-19" d="M21.59,24.09a.4.4,0,0,1,.25.32.59.59,0,0,1-.13.48,2.62,2.62,0,0,1-1.51.94,2,2,0,0,1-1.07-.11,1.66,1.66,0,0,1-.84-.69,2,2,0,0,1-.22-1.37,2.51,2.51,0,0,1,.51-1.23,2.21,2.21,0,0,1,.87-.65,1.88,1.88,0,0,1,.68-.14,1.25,1.25,0,0,1,.67.15,1,1,0,0,1,.58,1,.49.49,0,0,1-.16.37.56.56,0,0,1-.39.15.54.54,0,0,1-.37-.17.48.48,0,0,1-.14-.38.1.1,0,0,0,0,0,.38.38,0,0,0-.16,0,.65.65,0,0,0-.29.07,1,1,0,0,0-.45.35,1.54,1.54,0,0,0-.28.7c-.08.49,0,1,.53,1.15l.25,0L20,25a1.74,1.74,0,0,0,.65-.27,2.25,2.25,0,0,0,.42-.4Q21.38,24,21.59,24.09Z"/><path class="cls-19" d="M23.14,23.81c0,.32,0,.63,0,.94a4.09,4.09,0,0,0,0,.62c.05.27,0,.47-.09.56a.36.36,0,0,1-.4.06.6.6,0,0,1-.3-.42c0-.1-.05-.19-.07-.28-.09-.4-.16-.75-.2-1.06a6,6,0,0,1,0-1.19.53.53,0,0,1,.58-.48.5.5,0,0,1,.36.19.51.51,0,0,1,.13.38C23.17,23.26,23.15,23.49,23.14,23.81Zm.06-2.7a.51.51,0,0,1,.11.4v0c0,.07,0,.09,0,.1v.1a.28.28,0,0,0,0,.08v0a.53.53,0,0,1-.19.36.54.54,0,0,1-.39.13.56.56,0,0,1-.37-.19.54.54,0,0,1-.12-.39c0-.05,0-.08,0-.09v0h0v-.09a1.38,1.38,0,0,1,0-.14v0a.49.49,0,0,1,.19-.35.52.52,0,0,1,.4-.11A.53.53,0,0,1,23.2,21.11Z"/><path class="cls-19" d="M27.46,24a2.15,2.15,0,0,1-.18.87,1.93,1.93,0,0,1-.59.75,2.24,2.24,0,0,1-1.44.41,2,2,0,0,1-.74-.15,1.64,1.64,0,0,1-.81-.81,2.3,2.3,0,0,1-.19-1A2.79,2.79,0,0,1,23.74,23a2.36,2.36,0,0,1,.72-.9,2,2,0,0,1,.83-.37,1.61,1.61,0,0,1,1,.12,1.85,1.85,0,0,1,.73.6A2.57,2.57,0,0,1,27.46,24Zm-2.15,1.16a1.26,1.26,0,0,0,.86-.26,1,1,0,0,0,.37-.61,1.5,1.5,0,0,0-.06-.73A1.19,1.19,0,0,0,26.1,23a.82.82,0,0,0-.63-.19,1,1,0,0,0-.37.17,1.23,1.23,0,0,0-.38.49,1.59,1.59,0,0,0-.14.64C24.57,24.54,24.76,25.14,25.31,25.15Z"/><path class="cls-19" d="M31.37,24a3.65,3.65,0,0,1-.32,1.69.53.53,0,0,1-.3.29.58.58,0,0,1-.41,0,.52.52,0,0,1-.28-.3.49.49,0,0,1,0-.41,3,3,0,0,0,.25-1.22,1.55,1.55,0,0,0-.22-.86.61.61,0,0,0-.33-.26.37.37,0,0,0-.29,0,1,1,0,0,0-.4.52,2.7,2.7,0,0,0-.27,1,5.27,5.27,0,0,0,.05.95.56.56,0,0,1-.14.51.41.41,0,0,1-.41.08c-.15-.05-.25-.2-.31-.46a12.09,12.09,0,0,1-.22-1.78A7.07,7.07,0,0,1,28,21.94a.52.52,0,0,1,.22-.35.56.56,0,0,1,.4-.09.55.55,0,0,1,.35.22.56.56,0,0,1,.09.4v.05a1.42,1.42,0,0,1,1-.06,1.69,1.69,0,0,1,.88.65A2.44,2.44,0,0,1,31.37,24Z"/><path class="cls-19" d="M35,24a.33.33,0,0,1,.37.14.55.55,0,0,1,0,.53,1.9,1.9,0,0,1-.82.93,2,2,0,0,1-1.09.22,2.2,2.2,0,0,1-1.1-.38,1.79,1.79,0,0,1-.63-1.09,2,2,0,0,1-.08-.65,1.89,1.89,0,0,1,1.12-1.8,1.93,1.93,0,0,1,.94-.12,2.1,2.1,0,0,1,.94.32,1,1,0,0,1,.49.72.74.74,0,0,1-.21.64,1.22,1.22,0,0,1-.65.29,3.87,3.87,0,0,1-.84,0,6.27,6.27,0,0,1-.82-.11,1.11,1.11,0,0,0,1,1.26,1.26,1.26,0,0,0,.7-.2,1,1,0,0,0,.33-.36A.63.63,0,0,1,35,24Zm-1.94-1.1h.07c.18.06.72.2.83,0a.2.2,0,0,0-.1-.13.72.72,0,0,0-.29-.1.66.66,0,0,0-.34.06A.45.45,0,0,0,33.09,22.93Z"/><path class="cls-19" d="M37.09,23c.07.13.25.2.49.28a3.08,3.08,0,0,1,.55.23,1.13,1.13,0,0,1,.46.48,1.4,1.4,0,0,1,.12,1,1.35,1.35,0,0,1-.58.71,1.67,1.67,0,0,1-.93.25,1.55,1.55,0,0,1-.94-.32,1.5,1.5,0,0,1-.58-1.12.51.51,0,0,1,.13-.38.58.58,0,0,1,.37-.19.55.55,0,0,1,.39.14.49.49,0,0,1,.18.36.84.84,0,0,0,.26.6.66.66,0,0,0,.46.12l.18-.06a.49.49,0,0,0,.18-.14c.2-.29-.22-.8-.49-.87l-.17-.08a1.78,1.78,0,0,1-.44-.2,1.58,1.58,0,0,1-.54-.43.82.82,0,0,1-.18-.62,1.37,1.37,0,0,1,.4-.79,1.28,1.28,0,0,1,.81-.38,2,2,0,0,1,1.06.22,1.78,1.78,0,0,1,.75.89.53.53,0,0,1,0,.41.5.5,0,0,1-.28.29.53.53,0,0,1-.41,0,.55.55,0,0,1-.3-.28,1.24,1.24,0,0,0-.36-.5.71.71,0,0,0-.41-.17h0a.41.41,0,0,0-.17.07C37,22.68,37,22.82,37.09,23Z"/><path class="cls-19" d="M8.11,26.94a.8.8,0,0,1,.18.6c-.1.82-.18,1.79-.23,2.94a.47.47,0,0,1,0,.67A22.58,22.58,0,0,0,8.09,34a.84.84,0,0,1-.27.79.58.58,0,0,1-.63.07.77.77,0,0,1-.42-.66.28.28,0,0,0,0-.09c-.12-1.07-.2-2.05-.26-3A26.09,26.09,0,0,0,3,31.05,24.76,24.76,0,0,0,3,34a.82.82,0,0,1-.26.79.6.6,0,0,1-.64.07.79.79,0,0,1-.41-.66.28.28,0,0,1,0-.09c-.12-1.07-.21-2.05-.26-3-.24,0-.45,0-.63.06a.78.78,0,0,1-.58-.15.83.83,0,0,1-.3-.52A.76.76,0,0,1,.11,30a.79.79,0,0,1,.52-.3l.81-.05a21,21,0,0,1,.16-2.26.79.79,0,0,1,.31-.55.78.78,0,0,1,.61-.17.81.81,0,0,1,.55.31.84.84,0,0,1,.18.6c-.07.57-.13,1.24-.18,2a15.74,15.74,0,0,1,3.4.38,22.44,22.44,0,0,1,.17-2.59A.83.83,0,0,1,7,26.8a.77.77,0,0,1,.61-.17A.83.83,0,0,1,8.11,26.94Z"/><path class="cls-19" d="M13.4,32.1a.48.48,0,0,1,.53.2.8.8,0,0,1,0,.78,2.87,2.87,0,0,1-1.2,1.35,2.91,2.91,0,0,1-1.59.32,3.13,3.13,0,0,1-1.59-.55,2.67,2.67,0,0,1-.93-1.59,3.23,3.23,0,0,1-.11-.94,2.75,2.75,0,0,1,1.63-2.62,2.57,2.57,0,0,1,1.37-.18,3,3,0,0,1,1.37.46,1.5,1.5,0,0,1,.71,1.06,1.08,1.08,0,0,1-.31.93,1.9,1.9,0,0,1-.94.42,5,5,0,0,1-1.23.06,7.9,7.9,0,0,1-1.18-.15,1.62,1.62,0,0,0,1.41,1.83,2,2,0,0,0,1-.29,1.29,1.29,0,0,0,.47-.52C13,32.33,13.17,32.14,13.4,32.1Zm-2.82-1.61.09,0c.27.07,1,.28,1.21.06a.35.35,0,0,0-.15-.19,1.1,1.1,0,0,0-.42-.14,1,1,0,0,0-.5.09A.65.65,0,0,0,10.58,30.49Z"/><path class="cls-19" d="M19.62,32.26a.92.92,0,0,1-1.23.45.87.87,0,0,1-.47-.51.92.92,0,0,1,0-.71,2.15,2.15,0,0,0,.23-.74.45.45,0,0,0-.31-.45,1,1,0,0,0-.74.09,2,2,0,0,0-.78.77,5.06,5.06,0,0,1-.24.46,11.85,11.85,0,0,0,0,2.49.78.78,0,0,1-.2.73.56.56,0,0,1-.6.12c-.22-.08-.36-.3-.45-.66a18.14,18.14,0,0,1-.33-2.59,11,11,0,0,1,.28-2.66.84.84,0,0,1,.32-.51.8.8,0,0,1,.59-.13.78.78,0,0,1,.64.75,2.66,2.66,0,0,1,2.26-.36,1.83,1.83,0,0,1,1,.72A2.67,2.67,0,0,1,19.62,32.26Z"/><path class="cls-19" d="M27.79,29.7a2.5,2.5,0,0,1,.57,1.3,6.84,6.84,0,0,1,.06,1.64c0,.57-.09,1.1-.16,1.59a.25.25,0,0,1,0,.08.7.7,0,1,1-1.38-.19c0-.11,0-.23.06-.37.16-1,.45-2.95-.54-3.05a.78.78,0,0,0-.68.39,3.29,3.29,0,0,0-.44,1A7.92,7.92,0,0,0,25,33.2c-.05.37-.09.66-.11.88,0,.05,0,.1,0,.13-.07.86-1.21,1.07-1.2,0,0-.09,0-.26,0-.49.05-1,.17-3-.36-3.14s-1.24.78-1.39,1.27a10.83,10.83,0,0,0,0,2.26.77.77,0,0,1-.21.73.54.54,0,0,1-.59.12c-.22-.07-.37-.29-.44-.66a17,17,0,0,1-.34-2.59,11,11,0,0,1,.28-2.66.79.79,0,0,1,.32-.5.78.78,0,0,1,1.22.77c0,.08,0,.17,0,.26a2.07,2.07,0,0,1,1.35-.33,1.51,1.51,0,0,1,1.19.89,2,2,0,0,1,1.68-1A1.86,1.86,0,0,1,27.79,29.7Z"/><path class="cls-19" d="M33.82,32.1a.49.49,0,0,1,.53.2.82.82,0,0,1,0,.78,2.84,2.84,0,0,1-1.21,1.35,2.87,2.87,0,0,1-1.58.32A3.1,3.1,0,0,1,30,34.2,2.62,2.62,0,0,1,29,32.61a3.61,3.61,0,0,1-.12-.94,2.78,2.78,0,0,1,1.63-2.62,2.6,2.6,0,0,1,1.38-.18,3,3,0,0,1,1.37.46A1.5,1.5,0,0,1,34,30.39a1.08,1.08,0,0,1-.31.93,1.94,1.94,0,0,1-1,.42,4.88,4.88,0,0,1-1.22.06,8,8,0,0,1-1.19-.15,1.63,1.63,0,0,0,1.41,1.83,1.9,1.9,0,0,0,1-.29,1.33,1.33,0,0,0,.48-.52C33.39,32.33,33.59,32.14,33.82,32.1ZM31,30.49l.09,0c.28.07,1.05.28,1.22.06a.35.35,0,0,0-.15-.19,1.1,1.1,0,0,0-.42-.14,1,1,0,0,0-.5.09A.69.69,0,0,0,31,30.49Z"/><path class="cls-19" d="M39.94,30.91c0,.95-.16,2.08-.35,3.4-.14.93-1,.88-1,.08a3,3,0,0,1-1.45.24,2.45,2.45,0,0,1-1.34-.48A2.08,2.08,0,0,1,35,32.88a2.9,2.9,0,0,1,1.5-3.11,2.68,2.68,0,0,1,2,0c-.08-.91-.17-1.64-.27-2.17a.83.83,0,0,1,.14-.58.76.76,0,0,1,.51-.31.78.78,0,0,1,.9.64A21.78,21.78,0,0,1,39.94,30.91Zm-3.48.9a1.14,1.14,0,0,0,.06.79,1.59,1.59,0,0,0,.54.64,1.05,1.05,0,0,0,.77.17,1.31,1.31,0,0,0,.8-.61c0-.31,0-.63,0-1a1,1,0,0,0-.34-.44,1.3,1.3,0,0,0-.56-.25,1.17,1.17,0,0,0-.62,0A1.07,1.07,0,0,0,36.46,31.81Z"/></svg>