<svg id="Capa_1" data-name="Capa 1" xmlns="http://www.w3.org/2000/svg" viewBox="0 0 300 65"><defs><style>.cls-1{fill:#2c235a;}.cls-2{fill:#e42320;}</style></defs><title>john_k_logo_completo</title><path class="cls-1" d="M0,61.86l1.88-7.7c1.55.42,3.1.79,4.65,1.12A40,40,0,0,0,11.1,56c1.49.15,2.83.23,4,.23A16.47,16.47,0,0,0,21.84,55a8.22,8.22,0,0,0,4.07-4.07,17.44,17.44,0,0,0,1.39-7.52V10H3.94V1.17H37.32V45.48a24.63,24.63,0,0,1-2.06,10.65,13.52,13.52,0,0,1-6.4,6.44,24.88,24.88,0,0,1-11,2.15A56.58,56.58,0,0,1,12,64.41a55.4,55.4,0,0,1-6.13-1Q2.77,62.75,0,61.86Z"/><path class="cls-1" d="M73.39,64.72a39.2,39.2,0,0,1-9-1,24.1,24.1,0,0,1-7.61-3.27,20.26,20.26,0,0,1-5.91-6,28.87,28.87,0,0,1-3.71-9.17,55.57,55.57,0,0,1-1.3-12.8,57.93,57.93,0,0,1,1.26-12.89,28,28,0,0,1,3.67-9.17,20,20,0,0,1,5.81-5.95,23.61,23.61,0,0,1,7.57-3.23,42.78,42.78,0,0,1,18.21,0A24.14,24.14,0,0,1,90,4.49a20.1,20.1,0,0,1,5.86,5.9,29.19,29.19,0,0,1,3.76,9.09A53.19,53.19,0,0,1,101,32.23a55.68,55.68,0,0,1-1.34,13.11,30.33,30.33,0,0,1-3.76,9.27,19.25,19.25,0,0,1-5.86,6,24.73,24.73,0,0,1-7.61,3.18A39.32,39.32,0,0,1,73.39,64.72Zm-.09-8A20.16,20.16,0,0,0,78.8,56a14.7,14.7,0,0,0,4.75-2.33,14.21,14.21,0,0,0,3.8-4.34,22.55,22.55,0,0,0,2.46-6.94,50.41,50.41,0,0,0,.85-9.93,49.21,49.21,0,0,0-.89-10,24.23,24.23,0,0,0-2.46-6.94,13.85,13.85,0,0,0-3.76-4.34A14.7,14.7,0,0,0,78.8,8.87a21.5,21.5,0,0,0-11,0,14.65,14.65,0,0,0-4.74,2.28,13.69,13.69,0,0,0-3.76,4.39,24.39,24.39,0,0,0-2.51,7,48.49,48.49,0,0,0-.89,10.07,46.68,46.68,0,0,0,.89,9.84,23.71,23.71,0,0,0,2.51,6.9,14.2,14.2,0,0,0,3.76,4.38A14,14,0,0,0,67.84,56,20.33,20.33,0,0,0,73.3,56.75Z"/><path class="cls-1" d="M110.35,63.83V1.17h10V31.52h29.71V1.17h10V63.83h-10V40.47H120.38V63.83Z"/><path class="cls-1" d="M171.84,63.83V1h9.48L211.4,48.16v-47h9V64H211L180.88,17.28V63.83Z"/><path class="cls-2" d="M230,58.81a5.6,5.6,0,0,1,1.21-4c.81-.84,2.19-1.26,4.16-1.26s3.54.42,4.34,1.26a5.6,5.6,0,0,1,1.21,4,5.78,5.78,0,0,1-1.21,4.12c-.8.84-2.25,1.25-4.34,1.25s-3.35-.41-4.16-1.25A5.78,5.78,0,0,1,230,58.81Z"/><path class="cls-1" d="M299.28,54.34h-.62a9.63,9.63,0,0,1-2.69-.4,17.23,17.23,0,0,1-3-1.3,25.94,25.94,0,0,1-3.71-2.55c-1.37-1.11-3-2.52-4.92-4.25L273.25,35.62c1.91-1.37,3.81-2.85,5.72-4.46a81.55,81.55,0,0,0,7.74-7.52,71.68,71.68,0,0,0,6.8-8.86,53,53,0,0,0,5.15-10.2L291.05.64a55.77,55.77,0,0,1-4.39,8.14,68.2,68.2,0,0,1-5.32,7.16q-2.82,3.31-5.73,6.13t-5.77,5.19q-1.57,1.3-3.06,2.4l-6.34-5.84V1.17H250.33V63.83h10.11V36.35l21.21,19.78a44.85,44.85,0,0,0,6,5A22.25,22.25,0,0,0,293,63.87a15.85,15.85,0,0,0,5.06.85c.3,0,.61,0,.94,0s.67-.08,1-.14V54.25A3,3,0,0,1,299.28,54.34Z"/></svg>