<svg id="Capa_1" data-name="Capa 1" xmlns="http://www.w3.org/2000/svg" viewBox="0 0 300 240"><defs><style>.cls-1{fill:#633188;}.cls-2{fill:#d1709b;}.cls-3{fill:#f3a7c6;}.cls-4{fill:#6ec6d8;}.cls-5{fill:#fff;}.cls-6{fill:#000001;}</style></defs><title>chamaleonica_logo</title><g id="Logo_Camaléonica_Full_Color" data-name="Logo Camaléonica Full Color"><g id="Textos_Logo" data-name="Textos Logo"><g id="Texto_Camaléonica" data-name="Texto Camaléonica"><path class="cls-1" d="M3.8,188.67a10.36,10.36,0,0,0,.78,4.09,9.67,9.67,0,0,0,2,3.1,9.6,9.6,0,0,0,3,2,9.37,9.37,0,0,0,3.52.81,6.57,6.57,0,0,0,1.16-.1,8.81,8.81,0,0,0,1.55-.46c.64-.23,1.46-.55,2.47-1l4-1.59,1.55,4-5.71,2a19.58,19.58,0,0,1-2.6.71,13.21,13.21,0,0,1-2.4.28,13.39,13.39,0,0,1-5-1A12.73,12.73,0,0,1,3.91,199a12.9,12.9,0,0,1-2.85-4.27A14.3,14.3,0,0,1,0,189V166.27a14.89,14.89,0,0,1,1-5.53,12.36,12.36,0,0,1,2.29-3.91,27.56,27.56,0,0,1,2-2.08A11.76,11.76,0,0,1,7,153.59l2.12-1a10,10,0,0,1,4.15-.67,10.41,10.41,0,0,1,2.4.35c.94.24,1.78.47,2.53.71l5.5,2.18L22.4,158.8l-6.13-2.39a15.1,15.1,0,0,0-1.48-.5,5.62,5.62,0,0,0-1.48-.21,7.77,7.77,0,0,0-3.59.88,10.44,10.44,0,0,0-3,2.36,11.42,11.42,0,0,0-2.05,3.39,10.81,10.81,0,0,0-.74,3.94Z"/><path class="cls-1" d="M49.94,198.46l1.34,1.27-2.53,2.54-1.91-1.91a15.88,15.88,0,0,1-4.68,1.77,21.22,21.22,0,0,1-3.84.49,8.62,8.62,0,0,1-3.7-.81,9.44,9.44,0,0,1-3-2.19,9.77,9.77,0,0,1-2-3.2,10.67,10.67,0,0,1-.71-3.87v-4a10.44,10.44,0,0,1,.71-3.84,9.45,9.45,0,0,1,5-5.25,9,9,0,0,1,3.7-.77c.33,0,.83,0,1.52.07a21,21,0,0,1,2.18.28,18.16,18.16,0,0,1,2.36.6,7,7,0,0,1,2,1v-2.39a9,9,0,0,0-.6-3.21,10.66,10.66,0,0,0-1.58-2.85,8,8,0,0,0-2.33-2,5.7,5.7,0,0,0-2.88-.77,10.39,10.39,0,0,0-2,.35c-1,.24-2,.47-3,.71-1.22.28-2.53.61-3.94,1l-1-3.31,4.3-1c1.13-.29,2.23-.54,3.31-.78A13,13,0,0,1,39,166a8.83,8.83,0,0,1,4.22,1,11.91,11.91,0,0,1,3.45,2.79A13.08,13.08,0,0,1,49,173.77a12.77,12.77,0,0,1,.84,4.55ZM46.35,184.8c0-.05-.21-.2-.63-.46a13.32,13.32,0,0,0-1.73-.85,20.45,20.45,0,0,0-2.57-.84,12.14,12.14,0,0,0-3.1-.39,5.64,5.64,0,0,0-4.15,1.83A6.77,6.77,0,0,0,32.93,186a6.13,6.13,0,0,0-.46,2.36v4.44a6.1,6.1,0,0,0,1.7,4.26,5.9,5.9,0,0,0,1.83,1.3,5.21,5.21,0,0,0,2.25.5,9,9,0,0,0,2.43-.39c.92-.26,1.8-.55,2.64-.88s2-.8,3-1.27Z"/><path class="cls-1" d="M76.57,175.43a4.65,4.65,0,0,0-.6-2.33,6.11,6.11,0,0,0-1.62-1.83A8.53,8.53,0,0,0,72.06,170a7.28,7.28,0,0,0-2.53-.46,8.67,8.67,0,0,0-1.66.21,17.53,17.53,0,0,0-2.08.57,21.33,21.33,0,0,0-2,.77,7.33,7.33,0,0,0-1.59.92v29.86H58.61V170.07l-1.55-1.55,2.54-2.46,2.11,2.18a24.45,24.45,0,0,1,3.7-1.62A11.27,11.27,0,0,1,69,166a12.9,12.9,0,0,1,5.85,1.34,7.36,7.36,0,0,1,3.73,4.15,10.22,10.22,0,0,1,2.26-2.74,10.68,10.68,0,0,1,2.64-1.66,12.61,12.61,0,0,1,2.75-.85A15.24,15.24,0,0,1,88.9,166a9.45,9.45,0,0,1,4.33.91,8.7,8.7,0,0,1,2.93,2.36,9.35,9.35,0,0,1,1.62,3.17,12.79,12.79,0,0,1,.49,3.42v26.06H94.61V176.34a9.91,9.91,0,0,0-.32-2.53,6.18,6.18,0,0,0-1-2.12,4.77,4.77,0,0,0-1.83-1.48,6.55,6.55,0,0,0-2.85-.56c-3,0-5.1.84-6.41,2.5s-2,4-2,7v22.75H76.57Z"/><path class="cls-1" d="M126.87,198.46l1.34,1.27-2.54,2.54-1.9-1.91a15.94,15.94,0,0,1-4.69,1.77,21.24,21.24,0,0,1-3.83.49,8.59,8.59,0,0,1-3.7-.81,9.6,9.6,0,0,1-3-2.19,9.94,9.94,0,0,1-2-3.2,10.67,10.67,0,0,1-.7-3.87v-4a10.43,10.43,0,0,1,.7-3.84,9.42,9.42,0,0,1,5-5.25,9,9,0,0,1,3.7-.77c.32,0,.83,0,1.51.07a20.69,20.69,0,0,1,2.18.28,17.76,17.76,0,0,1,2.36.6,7.15,7.15,0,0,1,2,1v-2.39a9,9,0,0,0-.6-3.21,10.68,10.68,0,0,0-1.59-2.85,8.07,8.07,0,0,0-2.32-2,5.74,5.74,0,0,0-2.89-.77,10.39,10.39,0,0,0-2,.35c-1,.24-2,.47-3,.71-1.22.28-2.54.61-4,1l-1-3.31,4.29-1c1.13-.29,2.23-.54,3.32-.78A12.8,12.8,0,0,1,116,166a8.9,8.9,0,0,1,4.23,1,12.18,12.18,0,0,1,3.45,2.79,13.26,13.26,0,0,1,2.32,3.94,12.57,12.57,0,0,1,.85,4.55Zm-3.59-13.66c0-.05-.22-.2-.64-.46a13.77,13.77,0,0,0-1.72-.85,20.64,20.64,0,0,0-2.58-.84,12,12,0,0,0-3.09-.39,5.61,5.61,0,0,0-2.29.49,5.76,5.76,0,0,0-1.87,1.34,6.53,6.53,0,0,0-1.23,1.94,6,6,0,0,0-.46,2.36v4.44a6.15,6.15,0,0,0,1.69,4.26,6.15,6.15,0,0,0,1.83,1.3,5.28,5.28,0,0,0,2.25.5,9.09,9.09,0,0,0,2.44-.39c.91-.26,1.79-.55,2.64-.88s2-.8,3-1.27Z"/><path class="cls-1" d="M136.44,152.6h3.66V193c0,1.92.48,3.25,1.44,4A5.63,5.63,0,0,0,145,198H146v3.8h-1.27a9.94,9.94,0,0,1-3.28-.52,6.9,6.9,0,0,1-2.6-1.62,7.55,7.55,0,0,1-1.73-2.86,12.55,12.55,0,0,1-.63-4.22Z"/><path class="cls-1" d="M151.93,176a10.46,10.46,0,0,1,.74-3.94,9.79,9.79,0,0,1,2.05-3.17,9.59,9.59,0,0,1,3-2.12,9.24,9.24,0,0,1,3.77-.77h2.4a9.26,9.26,0,0,1,3.73.77,9.94,9.94,0,0,1,3.1,2.12,9.39,9.39,0,0,1,2.08,3.17,10.46,10.46,0,0,1,.74,3.94v2.33a10.49,10.49,0,0,1-1.06,5,9,9,0,0,1-2.89,3.28,11.84,11.84,0,0,1-4.26,1.79,23.78,23.78,0,0,1-5.17.53c-.76,0-1.51,0-2.26-.07s-1.53-.11-2.32-.21v4.23a6.85,6.85,0,0,0,2.64,4.47,7.82,7.82,0,0,0,4.89,1.66,15.52,15.52,0,0,0,1.8-.32l3.21-.67c1.31-.28,2.77-.61,4.36-1l.85,3.74c-1.74.37-3.31.68-4.72.91-1.22.24-2.39.45-3.49.64s-1.77.28-2,.28a11.52,11.52,0,0,1-4.29-.81,11,11,0,0,1-3.6-2.29,10.71,10.71,0,0,1-3.31-7.89Zm12,8.95h.14a5.14,5.14,0,0,0,2.32-.53,5.91,5.91,0,0,0,1.84-1.41,7.33,7.33,0,0,0,1.23-2,6.39,6.39,0,0,0,.46-2.39v-3a5.89,5.89,0,0,0-.64-2.85,5.26,5.26,0,0,0-1.65-1.87,6.86,6.86,0,0,0-2.4-1,12.64,12.64,0,0,0-2.85-.32,7.91,7.91,0,0,0-2.57.42,6.72,6.72,0,0,0-2.15,1.2,6,6,0,0,0-1.48,1.9,5.55,5.55,0,0,0-.56,2.54v9.23Z"/><path class="cls-1" d="M231.25,171.83a10,10,0,0,1,1,3.56c.09,1.2.14,2.43.14,3.7v22.82h-3.73v-25a7.44,7.44,0,0,0-1.91-5.5,5.9,5.9,0,0,0-4.29-1.9,18,18,0,0,0-3.42.42,13.87,13.87,0,0,0-4.68,2.12v29.86h-3.6V170.14l-1.55-1.47,2.54-2.54,2.11,2.11a15.09,15.09,0,0,1,7.33-2.18,13.66,13.66,0,0,1,5.92,1.3A8.56,8.56,0,0,1,231.25,171.83Z"/><path class="cls-1" d="M241.82,152.6h3.73v5.5h-3.73Zm0,14.09h3.73v35.22h-3.73Z"/><path class="cls-1" d="M257.8,191.49a7.53,7.53,0,0,0,.6,3.06,6.86,6.86,0,0,0,1.66,2.36,7.29,7.29,0,0,0,2.43,1.52,8.09,8.09,0,0,0,2.92.53,10.78,10.78,0,0,0,1.76-.18c.71-.12,1.39-.25,2.05-.39s1.62-.4,2.46-.63l1.13,3.24a21.72,21.72,0,0,1-2.68.77c-.75.19-1.56.36-2.43.5a14.61,14.61,0,0,1-2.29.21,11.46,11.46,0,0,1-4.33-.81,10.81,10.81,0,0,1-3.52-2.29,11.09,11.09,0,0,1-2.4-3.49,10.94,10.94,0,0,1-.88-4.4V176.77a11,11,0,0,1,.88-4.41,10.55,10.55,0,0,1,2.36-3.41,11,11,0,0,1,3.49-2.22,11.46,11.46,0,0,1,4.33-.81,10.46,10.46,0,0,1,2.36.28c.82.19,1.59.4,2.29.63a22.46,22.46,0,0,1,2.47.85l-.85,3c-.7-.24-1.43-.45-2.18-.64s-1.34-.35-2.05-.49a10.39,10.39,0,0,0-2-.21,7.65,7.65,0,0,0-5.32,2,6.9,6.9,0,0,0-2.22,5.39Z"/><path class="cls-1" d="M298.66,198.46l1.34,1.27-2.54,2.54-1.9-1.91a15.88,15.88,0,0,1-4.68,1.77,21.22,21.22,0,0,1-3.84.49,8.59,8.59,0,0,1-3.7-.81,9.44,9.44,0,0,1-3-2.19,9.8,9.8,0,0,1-2-3.2,10.67,10.67,0,0,1-.7-3.87v-4a10.43,10.43,0,0,1,.7-3.84,9.51,9.51,0,0,1,5-5.25,9,9,0,0,1,3.7-.77c.33,0,.83,0,1.51.07a21.2,21.2,0,0,1,2.19.28,18.16,18.16,0,0,1,2.36.6,7.08,7.08,0,0,1,2,1v-2.39a9,9,0,0,0-.6-3.21,10.94,10.94,0,0,0-1.58-2.85,8.11,8.11,0,0,0-2.33-2,5.71,5.71,0,0,0-2.89-.77,10.45,10.45,0,0,0-2,.35c-1,.24-2,.47-3,.71-1.22.28-2.53.61-3.94,1l-1-3.31,4.3-1c1.12-.29,2.23-.54,3.31-.78a12.92,12.92,0,0,1,2.32-.35,8.87,8.87,0,0,1,4.23,1,12.18,12.18,0,0,1,3.45,2.79,13.29,13.29,0,0,1,2.33,3.94,12.77,12.77,0,0,1,.84,4.55Zm-3.59-13.66c0-.05-.21-.2-.64-.46a13.1,13.1,0,0,0-1.72-.85,21,21,0,0,0-2.57-.84,12.14,12.14,0,0,0-3.1-.39,5.64,5.64,0,0,0-2.29.49,5.76,5.76,0,0,0-1.87,1.34,6.53,6.53,0,0,0-1.23,1.94,6,6,0,0,0-.46,2.36v4.44a6.15,6.15,0,0,0,1.69,4.26,6.15,6.15,0,0,0,1.83,1.3,5.29,5.29,0,0,0,2.26.5,9.09,9.09,0,0,0,2.43-.39c.91-.26,1.79-.55,2.64-.88s2-.8,3-1.27Z"/><path class="cls-1" d="M202.23,192.26a10,10,0,0,1-1.2,5.22,9.36,9.36,0,0,1-2.89,3.06,9.72,9.72,0,0,1-3.52,1.44,14.14,14.14,0,0,1-6.34,0,9.79,9.79,0,0,1-3.52-1.44,9.36,9.36,0,0,1-2.89-3.06,10,10,0,0,1-1.2-5.22V176a9.92,9.92,0,0,1,1.2-5.21,8.88,8.88,0,0,1,2.89-3,10.29,10.29,0,0,1,3.52-1.41,14.53,14.53,0,0,1,6.34,0,10.21,10.21,0,0,1,3.52,1.41,8.88,8.88,0,0,1,2.89,3,9.92,9.92,0,0,1,1.2,5.21Zm-3.24-.49V176.48a6.9,6.9,0,0,0-.85-3.69,6.49,6.49,0,0,0-2-2.12,7,7,0,0,0-2.47-1,10,10,0,0,0-4.44,0,7.28,7.28,0,0,0-2.5,1,6.3,6.3,0,0,0-2,2.12,7,7,0,0,0-.85,3.69v15.29a7.06,7.06,0,0,0,.85,3.7,6.69,6.69,0,0,0,2,2.15,7.18,7.18,0,0,0,2.5,1,10,10,0,0,0,4.44,0,6.57,6.57,0,0,0,4.47-3.17A7,7,0,0,0,199,191.77Zm-6.06-31.42h-3.66L196.1,150h4.3Z"/></g><path class="cls-2" d="M84.45,237.77a12.87,12.87,0,0,1-6.52,2.14l-1,.07-1.16,0a15.75,15.75,0,1,1,0-31.49,20.79,20.79,0,0,1,7.13,1.16,14.65,14.65,0,0,1,3.64,2.1V214a15.52,15.52,0,0,0-4-2.4,17.78,17.78,0,0,0-6.82-1.33,14,14,0,1,0,0,28,15.12,15.12,0,0,0,6.65-1.37,31.18,31.18,0,0,0,4.12-2.62v2Z"/><path class="cls-2" d="M103.67,237.21a9.17,9.17,0,0,1-13-13,8.65,8.65,0,0,1,6.48-2.71,9.22,9.22,0,0,1,6.52,15.66Zm-1.24-11.75a7.1,7.1,0,0,0-5.28-2.19A7,7,0,0,0,92,225.5a7.36,7.36,0,1,0,10.47,0Z"/><path class="cls-2" d="M119.41,238.46a6.13,6.13,0,0,1-4.11,1.45,6.64,6.64,0,0,1-6.18-3.73l1.5-.9a6,6,0,0,0,1.76,2.06,4.73,4.73,0,0,0,2.92.82c2.68,0,4-1.15,4-3.44a3.24,3.24,0,0,0-1.42-2.61,8.4,8.4,0,0,0-1.22-.58q-.8-.33-2-.75a10.91,10.91,0,0,1-3.09-1.55,3.87,3.87,0,0,1-1.37-3.21,4,4,0,0,1,1.37-3.09,4.68,4.68,0,0,1,3.47-1.33,6.79,6.79,0,0,1,5,2.06l-1.28,1.11a5.09,5.09,0,0,0-3.74-1.46c-2.06,0-3.08.9-3.08,2.71a2.43,2.43,0,0,0,.94,2,8.42,8.42,0,0,0,2.44,1.16,24.07,24.07,0,0,1,2.41,1,8.86,8.86,0,0,1,1.41.8,4.55,4.55,0,0,1,1.85,3.81A4.66,4.66,0,0,1,119.41,238.46Z"/><path class="cls-2" d="M145.07,239.57V227.34a4.1,4.1,0,0,0-1.08-2.83,3.91,3.91,0,0,0-3.08-1.2c-2.78,0-4.17,1.35-4.17,4v12.23H135V227.34a3.64,3.64,0,0,0-1.21-2.87,4.41,4.41,0,0,0-5.92,0,3.71,3.71,0,0,0-1.2,2.91v12.23H124.9V221.85h1.76v1.76a4.58,4.58,0,0,1,4.16-2,5.48,5.48,0,0,1,5.07,2.78,5.31,5.31,0,0,1,5-2.78,6.1,6.1,0,0,1,4.29,1.5,5.58,5.58,0,0,1,1.63,4.24v12.23Z"/><path class="cls-2" d="M152.83,230.35a8.08,8.08,0,0,0,1.93,5.7,7.25,7.25,0,0,0,5.54,2.15,8.53,8.53,0,0,0,3.26-.6,7.45,7.45,0,0,0,3.3-3.13l1.59.73a8.6,8.6,0,0,1-5.15,4.29,10,10,0,0,1-3,.42,9.32,9.32,0,0,1-6.61-15.74,9,9,0,0,1,6.61-2.62,9.1,9.1,0,0,1,6.52,2.45,8.31,8.31,0,0,1,2.61,6.35Zm12.1-5.62a7.73,7.73,0,0,0-4.63-1.46q-5.51,0-7.21,5.4h14.37A6,6,0,0,0,164.93,224.73Zm-5.66-5.28-1-1,5.75-5.74.94,1Z"/><path class="cls-2" d="M176.17,223.61v16h-1.76v-16H172v-1.76h2.4v-7.76h1.76v7.76h4.12v1.76Z"/><path class="cls-2" d="M185.43,218.68a1.64,1.64,0,0,1-1-.39,1.52,1.52,0,0,1-.43-1q0-1.15,1.41-1.41c.72,0,1.19.47,1.42,1.41A1.25,1.25,0,0,1,185.43,218.68Zm-.9,20.89V221.85h1.76v17.72Z"/><path class="cls-2" d="M200.49,239.91a9.18,9.18,0,1,1,0-18.36,8.69,8.69,0,0,1,5.41,1.55v2.1l-1.12-.73-1.2-.64a9.64,9.64,0,0,0-3.09-.56,7.47,7.47,0,1,0,0,14.93,7.92,7.92,0,0,0,5.41-2.06v2.19A9.61,9.61,0,0,1,200.49,239.91Z"/><path class="cls-2" d="M222.58,237.21a9.17,9.17,0,0,1-13-13,8.61,8.61,0,0,1,6.47-2.71,9.22,9.22,0,0,1,6.52,15.66Zm-1.24-11.75a7.1,7.1,0,0,0-5.28-2.19,7,7,0,0,0-5.19,2.23,7.36,7.36,0,1,0,10.47,0Z"/><path class="cls-2" d="M238.33,238.46a6.17,6.17,0,0,1-4.12,1.45,6.64,6.64,0,0,1-6.18-3.73l1.5-.9a6.11,6.11,0,0,0,1.76,2.06,4.75,4.75,0,0,0,2.92.82q4,0,4-3.44a3.26,3.26,0,0,0-1.41-2.61,9.17,9.17,0,0,0-1.23-.58q-.79-.33-1.95-.75a10.91,10.91,0,0,1-3.09-1.55,3.9,3.9,0,0,1-1.37-3.21,4.08,4.08,0,0,1,1.37-3.09A4.7,4.7,0,0,1,234,221.6a6.82,6.82,0,0,1,5,2.06l-1.29,1.11a5.06,5.06,0,0,0-3.73-1.46c-2.06,0-3.09.9-3.09,2.71a2.43,2.43,0,0,0,.94,2,8.5,8.5,0,0,0,2.45,1.16,24.77,24.77,0,0,1,2.4,1,9.54,9.54,0,0,1,1.42.8,4.57,4.57,0,0,1,1.84,3.81A4.68,4.68,0,0,1,238.33,238.46Z"/></g><rect id="Baston_L" data-name="Baston L" class="cls-1" x="136.44" y="56.26" width="3.66" height="111.73"/><g id="Icono"><g id="colores"><g id="rosa"><path class="cls-3" d="M182.43,107.36a19,19,0,0,1,.22-5.47l.08-.37c.54-2.19,1.08-4.45,1.75-6.56,4.21-13.21-1.16-25.45-7.55-37.87a65.81,65.81,0,0,0-7.26-10.59c-.93-1.19-1.89-2.41-2.82-3.66a46.1,46.1,0,0,0-8.75-9.2,34.64,34.64,0,0,0-9.59-5.43c-.65-.24-1.33-.53-2-.83a15.82,15.82,0,0,0-5-1.53,5.08,5.08,0,0,0,.07.67,10.18,10.18,0,0,0,.65,2.07,6.3,6.3,0,0,1,.65,3.59.47.47,0,0,1-.54.38A.48.48,0,0,1,142,32a5.41,5.41,0,0,0-.6-3.07,10.55,10.55,0,0,1-.7-2.27,7.94,7.94,0,0,1-.1-1.27h0v0c0-.13,0-.25,0-.38,0-.31.05-.63.09-.94s.1-.53.16-.79a15.84,15.84,0,0,1,.63-2.06l.39-1.05.08-.22a40.33,40.33,0,0,1,2.29-4.72C146,11.94,147.64,8.85,147.25,5A3.92,3.92,0,0,0,145,1.55c-7.32-3.54-30.33,9.37-35.63,12.76a18.54,18.54,0,0,0-5.6,5.44,22.39,22.39,0,0,0-2.87,6.51,36.24,36.24,0,0,1-1.94,5c-.19.4-.36.79-.54,1.19-.36.83-.85,1.72-1.37,2.68-1.24,2.26-2.64,4.82-2.49,6.81a.46.46,0,0,1-.42.5h0a.49.49,0,0,1-.47-.44,6.41,6.41,0,0,1,0-1.07c.25-2,1.47-4.26,2.57-6.26.51-.94,1-1.82,1.34-2.61l.53-1.19A34,34,0,0,0,100,26a24.61,24.61,0,0,1,1-3,12.76,12.76,0,0,1-1.62.61,7.15,7.15,0,0,0-2.32,1.06c-1.45,1.14-1.4,2.05-1.32,3.56,0,.42,0,.91,0,1.44a6.34,6.34,0,0,1-1.67,4.12A12.46,12.46,0,0,0,93,35.48a5.53,5.53,0,0,0-.42,3.23,12.15,12.15,0,0,1,0,2.09,6,6,0,0,1-.19.9h0l0,.06,0,.08A27.58,27.58,0,0,0,91,48.7a3.62,3.62,0,0,0,0,.46c.2,2.94.37,5.11.47,6.28,0,.53.06.87.07,1,.11,1.74-.15,4.71-2,9a8.46,8.46,0,0,0,1.7.93c.36-2.15,2-4.41,3.39-6.27a14,14,0,0,0,1.82-2.82A14.35,14.35,0,0,0,97,54a21.42,21.42,0,0,1,.29-2.41,46.44,46.44,0,0,1,1.89-6.35c.11-.31.2-.56.26-.75a11.42,11.42,0,0,0,.43-3.4,14.05,14.05,0,0,1,.32-3.07c1-4,4.23-5.44,7.37-6.88l1-.46a9.79,9.79,0,0,0,3.7-3.72c1.3-1.86,2.64-3.79,5.34-4.29,4.83-.91,7.7,2.84,10.48,6.46,3,3.84,5.49,7.16,10,5a.46.46,0,0,1,.62.21.48.48,0,0,1-.21.63c-5.19,2.54-8.22-1.41-11.15-5.23-2.61-3.4-5.3-6.91-9.57-6.11-2.32.43-3.49,2.12-4.74,3.91a10.79,10.79,0,0,1-4.07,4l-1,.46c-2.94,1.35-6,2.75-6.86,6.26a13.41,13.41,0,0,0-.28,2.86,12.69,12.69,0,0,1-.48,3.67l-.27.77a43.85,43.85,0,0,0-1.85,6.23,17.74,17.74,0,0,0-.27,2.29,14.52,14.52,0,0,1-.57,3.54,13.63,13.63,0,0,1-1.94,3.09c-.41.56-.86,1.16-1.28,1.78.53-.67,1.1-1.32,1.66-2,1.81-2.09,3.68-4.25,3.72-6.06a5.81,5.81,0,0,1,2.86-4.7,3.13,3.13,0,0,0,.78-.7,4.67,4.67,0,0,0,.23-.91,11.51,11.51,0,0,1-.23-1.43,12.27,12.27,0,0,1,14.38-13.32,11.54,11.54,0,0,1,2.31.53,18.61,18.61,0,0,1,5.89,3.33,22.93,22.93,0,0,0,3.1,2.12c2.2,1.21,7.2,1.58,9.09.27a.46.46,0,0,1,.65.11.48.48,0,0,1-.12.66c-2.37,1.63-7.79,1-10.08-.22A25.22,25.22,0,0,1,125.16,38l-.23-.18a12.26,12.26,0,0,1-8.34,19.83c-.42,0-.85.07-1.27.07a12.31,12.31,0,0,1-11.48-8,4.79,4.79,0,0,1-.92.8,5,5,0,0,0-2.48,4c0,2.15-1.94,4.34-3.94,6.65-1.69,1.95-3.43,3.95-3.8,5.77a15.7,15.7,0,0,0,4,.46,30.08,30.08,0,0,0,5.93-.66,66.1,66.1,0,0,0,12.41-4,70.73,70.73,0,0,1,7.16-2.43c3.67-1.11,7.14-2.15,9.06-3.67,1-.8,1.47-2.48,2-4.42.21-.77.44-1.57.71-2.39h0c-.06-.66.82-1.29,2-1.41s2.16.32,2.23,1-.82,1.3-2,1.42a3,3,0,0,1-1.49-.2c-.2.63-.37,1.25-.54,1.85-.57,2.1-1.07,3.91-2.32,4.91-2.05,1.63-5.61,2.69-9.37,3.83a67.91,67.91,0,0,0-7.06,2.39,68.34,68.34,0,0,1-11.09,3.73,13.55,13.55,0,0,1,1.55,1.09,8.3,8.3,0,0,0,1.83,1.18,16.22,16.22,0,0,0,4.75.84l1.5.13a20.6,20.6,0,0,0,10.78-1.93c.42-.18.83-.38,1.22-.59a28.42,28.42,0,0,0,4.28-3h0l.06,0,.37-.3a39.57,39.57,0,0,1,4.06-3c.3-.19.61-.37.94-.56V55.47a.48.48,0,0,1,.47-.48h4.27a.48.48,0,0,1,.47.48v2.58c.23-.14.45-.29.67-.44a13.94,13.94,0,0,0,4-3.9,5.65,5.65,0,0,0-.24-5.39,3.41,3.41,0,0,0-3.58-1.52.46.46,0,1,1-.13-.92,4.35,4.35,0,0,1,4.5,1.94,6.58,6.58,0,0,1,.24,6.39,14.18,14.18,0,0,1-3.57,3.64,3.61,3.61,0,0,1,1.6,1.26,8.5,8.5,0,0,0,4,3.52c3.65,1.75,9.17,4.39,9.85,11v0s0,.07,0,.1,0,.06,0,.09l0,.07a.56.56,0,0,1-.05.08L158,74l-.08.06h0a0,0,0,0,0,0,0h-.07l-.06,0h-.06l-.15,0,0,0-.09-.06,0,0-.07-.09,0,0v0a5.21,5.21,0,0,0-.4-.78,20.24,20.24,0,0,1-11,10.51,7.85,7.85,0,0,0,.88.49.46.46,0,0,1,.25.61.47.47,0,0,1-.62.25,13.23,13.23,0,0,1-1.85-1.12h0l-.88-.63a1.84,1.84,0,0,1-.86-1.14c0-.08,0-.16-.08-.26l-.1-.37a3.37,3.37,0,0,0-1.76-2.32,2.23,2.23,0,0,0-.39-.13,4.89,4.89,0,0,0-.55,0c-.32,0-.65,0-1,0a9.55,9.55,0,0,1-1.2,0c-.29,0-.59,0-.9-.07l-.24,0c-.32,0-.64-.05-.94-.05a3.57,3.57,0,0,0-1.81.37,2.78,2.78,0,0,0-.89.89.21.21,0,0,0,0,.06,5.73,5.73,0,0,0-.77,1.77,3,3,0,0,0-.06,1.32A11.17,11.17,0,0,1,134.6,83h.32l.72,0h0c.32,0,.63,0,.93,0a14.82,14.82,0,0,1,2.15.26.46.46,0,0,1,.37.54.47.47,0,0,1-.55.38,12.59,12.59,0,0,0-2-.24c-.3,0-.62,0-.94,0L135,84h-.22c-1,.17-1.86.36-2.64.56-1.11,1.41-1.11,2.84,0,4.56a.37.37,0,0,1,.23,0,10.3,10.3,0,0,0,3.3.74c.31,0,.63,0,.94,0a4.19,4.19,0,0,0,2.28-.47.46.46,0,0,1,.65.08.47.47,0,0,1-.08.66,4.94,4.94,0,0,1-2.85.66h0c-.31,0-.63,0-.94,0a13.32,13.32,0,0,1-3.33-.67,2.09,2.09,0,0,0-.62,1.7,2.61,2.61,0,0,0,.37,1,3.07,3.07,0,0,0,.5.64,3.19,3.19,0,0,0,.57.46,6.48,6.48,0,0,0,2.51.86c.3,0,.62.08.94.1a12.65,12.65,0,0,0,1.74,0,13.69,13.69,0,0,1,1.59-.77,8.86,8.86,0,0,1,.94-.34,6.38,6.38,0,0,1,1.88-.29,5.4,5.4,0,0,0,.78-1.31c.11-.22.22-.46.35-.7a5.5,5.5,0,0,1,.74-1A4,4,0,0,0,145,90a2.16,2.16,0,0,0,.32-.62v0c0-.12.07-.26.11-.44s.06-.27.1-.43a.47.47,0,0,1,.57-.34.44.44,0,0,1,.3.25l.91-.79a16.47,16.47,0,0,1,2.85-2.17l1.8-1c1.07-.59,2.18-1.21,3.25-1.88a33.28,33.28,0,0,0,2.75-2l.46-.37c.56-.45,1.14-.91,1.75-1.34s1-.67,1.65-1c2.1-1.27,4.93-3,5.39-5a2,2,0,0,0,.06-.42.46.46,0,0,1,.84-.26l.37-.2c.79-.39,1.62-.81,1.68-1.5s-.57-1.15-1.45-1.64a.46.46,0,0,1-.4.33h-.05a.46.46,0,0,1-.46-.41,2.71,2.71,0,0,0-.28-.79c-.43-.67-.84-1.42-1.26-2.23a19.75,19.75,0,0,0-2.2-3.52,29.57,29.57,0,0,0-3.76-3.51c-.84-.71-1.71-1.43-2.52-2.21-.59-.56-3.46-3.45-2.7-5.39a.47.47,0,0,1,.6-.27.47.47,0,0,1,.27.61c-.37.94,1,3,2.48,4.38.78.75,1.64,1.46,2.47,2.16a31.29,31.29,0,0,1,3.87,3.62,20.25,20.25,0,0,1,2.32,3.7c.41.78.8,1.52,1.21,2.14a1.14,1.14,0,0,1,.09.16h0l.4.22c1,.54,2.42,1.28,2.29,2.73-.11,1.21-1.26,1.8-2.19,2.26a6.77,6.77,0,0,0-.84.48c-.69,2.24-3.58,4-5.76,5.32-.59.37-1.16.71-1.6,1s-1,.74-1.49,1.13a.52.52,0,0,1-.06.13,4.73,4.73,0,0,0-.42,2.8,14,14,0,0,1-.09,2.47c.24.2.46.41.67.61a4.76,4.76,0,0,0,1.3,1,35.39,35.39,0,0,0,4.67,1.62,26.86,26.86,0,0,1,6.17,2.39c4.38,2.56,8.41,7.15,6.58,12.38a.47.47,0,0,1-.89-.31c1.65-4.69-2.1-8.89-6.16-11.26a25.37,25.37,0,0,0-6-2.3,35.88,35.88,0,0,1-4.79-1.67,5.67,5.67,0,0,1-1.56-1.18,9.57,9.57,0,0,0-.77-.69l-.28-.19c-.75-.45-3.3-1-3.92-.57a.32.32,0,0,1-.21.08s-.61.15-1.28,1.57l-.3.63a30.78,30.78,0,0,0-2.18,5.41c-.76,3-.58,8.23-.42,12.82,0,1.28.08,2.45.1,3.52.08,3.67,0,6.14-.67,7.35h.05a.86.86,0,0,0,.68-.5.47.47,0,1,1,.83.43,1.83,1.83,0,0,1-1.37,1,3.07,3.07,0,0,1-1.24-.11,5.9,5.9,0,0,1-2-1.11l-.14-.12-.15-.15-.42-.42a8.14,8.14,0,0,1-1.77-2.48,5.14,5.14,0,0,0-2.34-2.21,7,7,0,0,0-.79-.35l-.15-.05a7.32,7.32,0,0,0-3.33-.39,5.54,5.54,0,0,0-.9.19h0a6.55,6.55,0,0,0-.71.27,4.48,4.48,0,0,0-2.07,1.61,1.1,1.1,0,0,0-.07.87,2.48,2.48,0,0,1,.05.63l.27-.07a7.51,7.51,0,0,1,.85-.17,14.94,14.94,0,0,1,1.68-.17l.56,0c.14,0,.26,0,.38,0a7.11,7.11,0,0,1,3.31,1.41h0c.31.2.62.4.94.58a5.13,5.13,0,0,0,.81.41.48.48,0,0,1,.25.62.47.47,0,0,1-.43.28.63.63,0,0,1-.19,0l-.44-.21c-.32-.17-.64-.35-.94-.54s-.36-.22-.53-.34a6.55,6.55,0,0,0-2.8-1.26l-.38,0-.56,0a15.07,15.07,0,0,0-1.54.15c-.21,0-.5.1-.78.17a7,7,0,0,1-1.23.21H132c-1.93,1.31-1.46,2.38-1.3,2.74a2.48,2.48,0,0,0,.69.91,3.13,3.13,0,0,1,.56.66.57.57,0,0,1,.15.12,3.43,3.43,0,0,0,1.36.71l.39.14a13.65,13.65,0,0,0,1.76.53c.29.07.59.14.9.19h0a6,6,0,0,0,2.23-.15l.67-.13.43-.08.57-.13.37-.06.58-.06a4.43,4.43,0,0,0,.87-.13s0,0,0,0a.47.47,0,0,1,.59.29.48.48,0,0,1-.29.6,3.91,3.91,0,0,1-1.06.17h-.06l-.65.07-.14,0c-.27.07-.54.12-.8.17l-.27,0-.63.12a8.38,8.38,0,0,1-1.75.22,5.27,5.27,0,0,1-.68,0l-.2,0-.74-.14a15.5,15.5,0,0,1-2.11-.63l-.35-.13a7.69,7.69,0,0,1-.94-.38,12.06,12.06,0,0,1-.4,1.53,4.94,4.94,0,0,0-.38,2c.68,1.89,2.33,2.28,4.18,2.23l.94-.06.82-.09.79-.1.68-.09.62-.07.42,0,.94-.1A19.07,19.07,0,0,0,143,126a16.87,16.87,0,0,0,3-1.18c.78-.37,1.58-.73,2.34-1l.06,0a1.82,1.82,0,0,1,.3-.11,7,7,0,0,1,1.69-.38.47.47,0,0,1,.5.44.42.42,0,0,1-.1.31l.09,0c.44.2.85.39,1.08.28.45-.22.44-.43.3-1a1.45,1.45,0,0,1,0-1.1,7.42,7.42,0,0,0,.66-5,4.11,4.11,0,0,1,0-1.9,7.53,7.53,0,0,1,.53-.9c.41-.66,1.05-1.67,1.71-3,1.84-3.57,3.87-9.2,1.76-14.88l.88-.33c2.17,5.86.23,11.59-1.64,15.31l0,.07a28.88,28.88,0,0,0,1.82,4.77,11,11,0,0,0,4.16,4.87,6,6,0,0,0,4.78.43.47.47,0,1,1,.26.9A8.07,8.07,0,0,1,165,123a6.75,6.75,0,0,1-3.26-.85,11,11,0,0,1-4.07-4.38,9.65,9.65,0,0,0-.4,3.84,5.16,5.16,0,0,1-.56,3.27c-3.65,5.3-10.27,8.65-13.88,10.18-.64.26-1.28.52-1.94.76v12a57.56,57.56,0,0,0,19-7.19c6.61-4.09,10.7-10.07,13.77-15.68a15.81,15.81,0,0,1-7.47,2.62h0a.47.47,0,0,1,0-.93,16.14,16.14,0,0,0,8.42-3.4c.18-.13.36-.26.54-.41,3.86-3,6.91-7.35,7.36-11.35A24.9,24.9,0,0,0,182.43,107.36Z"/><path class="cls-3" d="M110.59,137.35A26.82,26.82,0,0,1,96.4,126.44c-.19-.29-.39-.61-.62-1a53,53,0,0,1-4.35-7.61l0-.07c-1.17-2.72-1.76-5.46-.78-7.58a1.84,1.84,0,0,1,1.3-1.08c2.64-.61,8,3.82,12,7.06,1.16,1,2.15,1.77,2.83,2.25,1.43,1,2.51.15,4.1-1.41a78.61,78.61,0,0,0,5.14-6.68c1.13-1.56,2-2.8,2.44-3.27a3.67,3.67,0,0,1,3.66-1.36,2.82,2.82,0,0,1,2,2.45c.68,4.19-1.37,9.61-2.28,11.75-1.36,3.2-2.69,5.57-6.91,11.56,6.44-3.47,9.83-9.33,11.17-11.65,2.79-4.81,4.26-9.08,4.42-12.76a13.25,13.25,0,0,0-.61-4.6,11.54,11.54,0,0,0-.5-1.27c-1.32-2.81-3.27-4.47-5.62-4.8-2.87-.41-6.12,1.19-8.92,4.37a30.51,30.51,0,0,0-2.23,3.13c-1.51,2.36-3.08,4.79-5.41,5.23-3,.57-5.77-3-8.22-6.16a21.16,21.16,0,0,0-3.07-3.48c-2.73-2.05-5.7-2.43-8.36-1.05-3.33,1.72-5.58,5.93-5.46,10.23a40.4,40.4,0,0,0,15.76,31.1c10.39,8,24.62,10.31,37.88,8.77V137.4C127,139.58,117.78,139.64,110.59,137.35Z"/><path class="cls-3" d="M88.69,64.72a65.7,65.7,0,0,0,.79-8.5A20.78,20.78,0,0,1,88.23,58c-1.46,1.88-2.34,3-.4,5.75A7,7,0,0,0,88.69,64.72Z"/><path class="cls-3" d="M90.61,56.51c0-.14,0-.48-.08-1,0-.33-.06-.74-.1-1.21a1.21,1.21,0,0,1-.05.14,43.66,43.66,0,0,1-.26,6.46A14.67,14.67,0,0,0,90.61,56.51Z"/><path class="cls-3" d="M168.7,34.06l-6.53,1.73A52.31,52.31,0,0,1,166.76,41Z"/><path class="cls-3" d="M177.68,44.67l-7,1.47c1.51,1.92,3.05,3.9,4.46,6Z"/><path class="cls-3" d="M178.22,121.92l2,.38-.7-2C179.12,120.87,178.69,121.4,178.22,121.92Z"/><path class="cls-3" d="M182.2,65.43l4.26-7-7.73-.12c.54,1.08,1,2.06,1.47,3C180.91,62.66,181.58,64.05,182.2,65.43Z"/><path class="cls-3" d="M182,116.36l2.9-.4-1.84-2.35A17.41,17.41,0,0,1,182,116.36Z"/><path class="cls-3" d="M183.46,107.31c0,.37,0,.76.06,1.16l3.18-2.22-3.34-1.53C183.35,105.58,183.41,106.46,183.46,107.31Z"/><path class="cls-3" d="M186.31,78.24,192.19,72,184,70.12A53.48,53.48,0,0,1,186.31,78.24Z"/><path class="cls-3" d="M185.46,95.33c-.47,1.45-.87,3-1.23,4.44l4.64-.83-3.33-3.88C185.51,95.15,185.49,95.24,185.46,95.33Z"/><path class="cls-3" d="M186.79,89.15l4.67-2.26-4.48-3A33.87,33.87,0,0,1,186.79,89.15Z"/><path class="cls-3" d="M141.57,24.26c1.58.41,3.34,1,5,1.63l-2-6.72-2.32,2.52A12.54,12.54,0,0,0,141.57,24.26Z"/><path class="cls-3" d="M125.59,88.22c-.2.94,2.48,9.35,3.93,11.15l-.12.09a14.33,14.33,0,0,1,.74,1.35l.24.56a13.52,13.52,0,0,1,1,5.83,2.14,2.14,0,0,0,.48,1.06,7,7,0,0,0,3,2.07c.17-.07.35-.13.54-.19l.23-.06a5.59,5.59,0,0,1,.94-.17,8.53,8.53,0,0,1,3.33.35l.17.06a7.71,7.71,0,0,0,.77-.26,6.45,6.45,0,0,0,2.08-1.07,3.72,3.72,0,0,0,.54-3.8,3.59,3.59,0,0,1-.73-.49,2.76,2.76,0,0,0-.49-.36,3,3,0,0,0-1.4-.35h-.17l-.15,0-.62.1a7.07,7.07,0,0,0-3,1,.44.44,0,0,1-.32.13h0a.49.49,0,0,1-.31-.14.46.46,0,0,1,0-.66l.29-.23a9.19,9.19,0,0,1,3.33-1.07l.46-.08.15,0a1.84,1.84,0,0,1,.33,0,4,4,0,0,1,1.8.45,3,3,0,0,1,.69.48,2.41,2.41,0,0,0,.51.36,10.48,10.48,0,0,0,1.25-1.25,1.9,1.9,0,0,0,.25-2.37h0a8.55,8.55,0,0,1-1.18-.57,7.19,7.19,0,0,0-1.51-.67,3.22,3.22,0,0,0-1.8.15,9.25,9.25,0,0,0-.94.38l-.47.21-.52.23c-.19.08-.44.15-.73.24-.46.14-1.42.43-1.53.71a.39.39,0,0,1-.08.14.49.49,0,0,1-.36.17l-.16,0a.46.46,0,0,1-.27-.6,1.5,1.5,0,0,1,.79-.78,7.25,7.25,0,0,1,1.34-.51,6,6,0,0,0,.63-.2l.51-.23c.27-.12.55-.25.85-.37a8.07,8.07,0,0,1,.94-.33,3.82,3.82,0,0,1,2-.08,7.85,7.85,0,0,1,1.72.75,8.25,8.25,0,0,0,1,.49,2.44,2.44,0,0,0,.8-2.43,4,4,0,0,0-3.1-2.85l-.21,0a5,5,0,0,0-2.24.29c-.31.11-.63.24-.94.38s-.89.43-1.33.68a22.39,22.39,0,0,0-2,1.32c-.36.25-.68.5-.94.72-.52.41-.86.71-.94.78s-.22.23-.32.32a.76.76,0,0,1-.09.09l0,0a4,4,0,0,1-.94.61,1.59,1.59,0,0,0-.95,1.06.47.47,0,0,1-.61.26.51.51,0,0,1-.21-.17.49.49,0,0,1,0-.44,2.41,2.41,0,0,1,1.39-1.54l.24-.13A19.74,19.74,0,0,1,131.7,94a3.73,3.73,0,0,1-.94-2,3,3,0,0,1,.66-2.21c-1.18-1.74-1.39-3.34-.65-4.83C126.89,86.07,125.84,87.41,125.59,88.22Z"/><path class="cls-3" d="M133.18,78l0,.12-.09.12a1.79,1.79,0,0,0-.23.62,2.53,2.53,0,0,1,.55-.41,4.53,4.53,0,0,1,2.26-.48c.31,0,.63,0,.94,0l.32,0,.86.07a10.22,10.22,0,0,0,1.08,0,9.47,9.47,0,0,1,1.07-.05,3.71,3.71,0,0,1,.74.07,1.17,1.17,0,0,1,.2.06,4,4,0,0,1,2.65,3l.06.2a1.57,1.57,0,0,0,1-.71,3.07,3.07,0,0,0-.1-2.49h0a6.47,6.47,0,0,0-2.53-1.68,7.56,7.56,0,0,0-1.06-.3l-.67-.12-.27,0a6.35,6.35,0,0,0-1,.06,4.77,4.77,0,0,1-1.6,0,.46.46,0,1,1,.19-.91,4.46,4.46,0,0,0,1.31,0,6.11,6.11,0,0,1,1.06-.06,2.73,2.73,0,0,1,.41,0l.53.09a7.38,7.38,0,0,1,1.41.38,7.86,7.86,0,0,1,2.53,1.58,1.48,1.48,0,0,0,.65-1.08,2.33,2.33,0,0,0-.84-2l0,0v0h0a9.39,9.39,0,0,0-2.18-1.78,5.07,5.07,0,0,0-1.53-.3c-.28,0-.57,0-.86,0h-.08a7.9,7.9,0,0,1-1.88-.19.47.47,0,1,1,.25-.9,6.93,6.93,0,0,0,1.63.16h.1c.27,0,.56,0,.84,0a6.33,6.33,0,0,1,1.87.37,8.42,8.42,0,0,1,2.15,1.63c.11-.18.22-.37.25-.44a2.53,2.53,0,0,0,.22-.91,4.33,4.33,0,0,0-.11-1,1.54,1.54,0,0,0-.51-.75,8.88,8.88,0,0,0-1.42-1.08,6.33,6.33,0,0,0-2.45-.81l-.67-.07-.27,0h-.06l-.3,0a10.8,10.8,0,0,0-2.34,0l-.63.12a7.45,7.45,0,0,0-.94.28,7.22,7.22,0,0,0-.79.35,2.72,2.72,0,0,0-1.63,2,10.38,10.38,0,0,0,.11,2.53l0,.37c0,.24.06.45.08.65a8.46,8.46,0,0,1,.06,2.58A3.72,3.72,0,0,1,133.18,78Z"/><path class="cls-3" d="M157,24l-5.94,4a41.05,41.05,0,0,1,6.37,3.85Z"/><path class="cls-3" d="M125.64,73.6a.13.13,0,0,1,0-.06c1.37-3.05,4.7-5.34,5.63-5.94a5.11,5.11,0,0,1-1-1.48,29,29,0,0,1-3.75,2.59c-.67,1.14-1,1.61-1.27,2.06s-.64,1-1.52,2.54a.46.46,0,0,1-.17.17,5.21,5.21,0,0,0-1,.8,4.82,4.82,0,0,0,1.23.39.44.44,0,0,1,.16.06c.22.14.6.41,1.12.8,4.86,3.51,6.5,4.21,7,4.13a3.1,3.1,0,0,1-.07-.63A19.49,19.49,0,0,1,125.67,74a.06.06,0,0,1,0,0s0-.05,0-.08,0-.06,0-.08,0-.08,0-.11S125.63,73.62,125.64,73.6Z"/></g><g id="azules"><path class="cls-4" d="M131.23,65.34l-.21.16A4.68,4.68,0,0,0,133,67.82a.48.48,0,0,1-.29.85.46.46,0,0,1-.28-.1l-.39-.31h0a16.93,16.93,0,0,0-4.87,4.56,9.09,9.09,0,0,0-.49.86,19.68,19.68,0,0,0,5.47,4.4v0a21.87,21.87,0,0,1-3.8-4.69l-.13-.19a.74.74,0,0,0-.18.15.46.46,0,0,1-.43.28.35.35,0,0,1-.17,0,.46.46,0,0,1-.25-.6.36.36,0,0,1,0-.09,2.83,2.83,0,0,1,1-.79,27.61,27.61,0,0,1,4.18-1.75,3.19,3.19,0,0,1,1-1.73,5.69,5.69,0,0,1,1-.68,6.59,6.59,0,0,1,1.24-.52V62.17l-.46.26A40.59,40.59,0,0,0,131.23,65.34Z"/><path class="cls-4" d="M119.56,136.22c-7,0-15.6-3.49-25.09-14.57.74,1.25,1.49,2.39,2.1,3.33l.62,1a25.88,25.88,0,0,0,13.68,10.53c7.1,2.26,16.25,2.18,24.77,0v-6.75A30.27,30.27,0,0,1,129.2,134,22.23,22.23,0,0,1,119.56,136.22Z"/><path class="cls-4" d="M148.49,110.36l0,0-.17-.15a21.56,21.56,0,0,1-2.17,6l.08.08a5.07,5.07,0,0,0,1.54.91C148.44,116.6,148.55,113.63,148.49,110.36Z"/><path class="cls-4" d="M155.53,112.75c-.5.92-1,1.66-1.3,2.18-.21.34-.41.66-.45.76a4,4,0,0,0,.05,1.43,8.39,8.39,0,0,1-.78,5.56,2.25,2.25,0,0,0,.07.42,1.58,1.58,0,0,1-.8,2.1,1.24,1.24,0,0,1-.56.13,3.4,3.4,0,0,1-1.31-.39,2.46,2.46,0,0,0-1.55-.36l-.21.07c-.75.28-1.55.65-2.33,1a18.37,18.37,0,0,1-3.13,1.24c-.76.17-1.56.29-2.38.39v7.49l1.58-.62c3.52-1.49,10-4.74,13.47-9.86a4.27,4.27,0,0,0,.39-2.69,9.87,9.87,0,0,1,.77-5A28.18,28.18,0,0,1,155.53,112.75Z"/><path class="cls-4" d="M151.55,78.23a17.45,17.45,0,0,1-3.06,3l-.49.34a19.59,19.59,0,0,0,8.23-9.42,8.46,8.46,0,0,0-1-.93A18.39,18.39,0,0,1,151.55,78.23Z"/><path class="cls-4" d="M145.36,69.31a2.4,2.4,0,0,1,.79,1.25,4.92,4.92,0,0,1,.12,1.21A3.46,3.46,0,0,1,146,73a5.12,5.12,0,0,1-.43.74,3.17,3.17,0,0,1,.81,2.46,2.35,2.35,0,0,1-1,1.71,4,4,0,0,1,0,3.17,2.47,2.47,0,0,1-1.44,1.13l.29.22.19.15.14-.08a23.75,23.75,0,0,0,3.38-2,17,17,0,0,0,2.89-2.86,17.15,17.15,0,0,0,3.64-7,25.29,25.29,0,0,0-6.41-2.88l-.85-.28a.47.47,0,1,1,.29-.89l.85.28a25.21,25.21,0,0,1,7,3.22,10.23,10.23,0,0,1,1.43,1.26c-1.52-4.36-5.66-6.35-8.83-7.87a9.46,9.46,0,0,1-4.31-3.86,3.54,3.54,0,0,0-1.72-1.1l-1,.65v8a7.29,7.29,0,0,1,2.92,1A9.35,9.35,0,0,1,145.36,69.31Z"/><path class="cls-4" d="M157.86,81.8a25.71,25.71,0,0,1-2.13,1.54c-1,.62-2,1.18-2.93,1.72l-.36.2c-.6.33-1.2.66-1.79,1a15.79,15.79,0,0,0-2.7,2.06,21.66,21.66,0,0,1-1.76,1.45,3,3,0,0,1-.41.78,4.78,4.78,0,0,1-.48.58,4.48,4.48,0,0,0-.61.82c-.13.24-.23.46-.34.68a10.6,10.6,0,0,1-.56,1.06,5,5,0,0,1,3.52,3.48,3.19,3.19,0,0,1,.1.8,3.38,3.38,0,0,1-1.14,2.5,2.71,2.71,0,0,1-.26,3,18.82,18.82,0,0,0,2,5.1.45.45,0,0,1,.23.29l.18.21c0-.86-.05-1.72-.08-2.55-.1-2.91-.2-5.88-.1-8.48a23.37,23.37,0,0,1,.55-4.6,31.94,31.94,0,0,1,2.25-5.58l.29-.63a4.07,4.07,0,0,1,1.54-1.92,1.18,1.18,0,0,1,.33-.14c1.09-.68,3.52,0,4.56.42,0-.64,0-1.27,0-1.89A11.41,11.41,0,0,1,157.86,81.8Z"/></g></g><path id="Contorno" class="cls-2" d="M193.34,87l-6.53-4.35c-.08-1.07-.21-2.13-.38-3.2L194,71.41l-10.51-2.36c-.3-.79-.62-1.58-1-2.37l5.57-9.15-10-.15c-.12-.24-.25-.48-.38-.72-.6-1.18-1.27-2.3-2-3.4l3.3-9.84L170,45.35c-.79-1-1.59-2-2.37-3.07l-.16-.21-.27,1h0l.27-1L170,32.73l-8.8,2.34c-.85-.78-1.7-1.5-2.57-2.18l-.25-.18h0l-.58-10.37-8.05,5.35-1-.37q-.45-.15-.93-.36L145,17.33l-1.83,2-.2.47.2-.47c.54-1.25,1.2-2.47,1.84-3.66C146.78,12.4,148.6,9,148.18,4.9A4.85,4.85,0,0,0,145.45.71c-9-4.34-36.27,12.64-36.55,12.82A19.57,19.57,0,0,0,103,19.22c-.14.16-.36.46-.73,1a16.57,16.57,0,0,1-1.59,2,11,11,0,0,1-1.59.6A7.87,7.87,0,0,0,96.51,24c-1.83,1.44-1.76,2.78-1.68,4.33,0,.43,0,.88,0,1.38a4.79,4.79,0,0,1-.73,2.52.43.43,0,0,0,0-.19.47.47,0,0,0-.52-.41,7.13,7.13,0,0,0-.87.14A9.77,9.77,0,0,0,85,42.35a10,10,0,0,0,5,7.56,20.34,20.34,0,0,0,0,2.22,8.31,8.31,0,0,1-.62,2.24,13,13,0,0,1-1.91,3C86,59.3,84.73,61,87.06,64.25a8.77,8.77,0,0,0,4.37,3.19.34.34,0,0,0,.14,0h0l.34.11a.64.64,0,0,0,.18.06h0a16.32,16.32,0,0,0,4.5.57,31.84,31.84,0,0,0,5.9-.63l.06,0a5.77,5.77,0,0,1,2.64,1.44,8.85,8.85,0,0,0,2.06,1.31,16.81,16.81,0,0,0,5,.9l1.47.13a20.58,20.58,0,0,0,2.06.1A22.8,22.8,0,0,0,125,69.46c-.21.33-.36.57-.51.79-.33.52-.65,1-1.5,2.49-1,.64-1.54,1.22-1.45,1.72s.75.87,2,1.11c.21.14.57.39,1,.71,3.36,2.44,5.8,4,7.2,4.26a6.71,6.71,0,0,0-.43,1.21,3.67,3.67,0,0,0,0,2c-3.82,1-6,2.43-6.56,4.16-.29.92,1.17,5.72,2.57,9.06a7,7,0,0,0-3.46-1.52c-3.18-.45-6.73,1.26-9.75,4.69a28.42,28.42,0,0,0-2.31,3.24c-1.48,2.28-2.87,4.44-4.8,4.81-2.43.46-5.13-3-7.31-5.81a21.85,21.85,0,0,0-3.25-3.66c-3-2.28-6.35-2.68-9.35-1.13-3.69,1.91-6.09,6.36-6,11.08a41.36,41.36,0,0,0,16.12,31.83c8,6.11,19,9.46,31,9.46h.3a65.43,65.43,0,0,0,7.13-.43v-1c-13.26,1.54-27.49-.79-37.88-8.77A40.4,40.4,0,0,1,82,108.69c-.12-4.3,2.13-8.51,5.46-10.23,2.66-1.38,5.63-1,8.36,1.05A21.16,21.16,0,0,1,98.89,103c2.45,3.16,5.24,6.73,8.22,6.16,2.33-.44,3.9-2.87,5.41-5.23a30.51,30.51,0,0,1,2.23-3.13c2.8-3.18,6-4.78,8.92-4.37,2.35.33,4.3,2,5.62,4.8a11.54,11.54,0,0,1,.5,1.27,13.25,13.25,0,0,1,.61,4.6c-.16,3.68-1.63,8-4.42,12.76-1.34,2.32-4.73,8.18-11.17,11.65,4.22-6,5.55-8.36,6.91-11.56.91-2.14,3-7.56,2.28-11.75a2.82,2.82,0,0,0-2-2.45,3.67,3.67,0,0,0-3.66,1.36c-.42.47-1.31,1.71-2.44,3.27a78.61,78.61,0,0,1-5.14,6.68c-1.59,1.56-2.67,2.43-4.1,1.41-.68-.48-1.67-1.3-2.83-2.25-3.93-3.24-9.32-7.67-12-7.06a1.84,1.84,0,0,0-1.3,1.08c-1,2.12-.39,4.86.78,7.58l0,.07a53,53,0,0,0,4.35,7.61c.23.34.43.66.62,1a26.82,26.82,0,0,0,14.19,10.91c7.19,2.29,16.43,2.23,25,.05v-1c-8.52,2.2-17.67,2.28-24.77,0a25.88,25.88,0,0,1-13.68-10.53l-.62-1c-.61-.94-1.36-2.08-2.1-3.33,9.49,11.08,18.06,14.57,25.09,14.57A22.23,22.23,0,0,0,129.2,134a30.27,30.27,0,0,0,6.44-4.27v-1.24a29.9,29.9,0,0,1-6.84,4.67,20.82,20.82,0,0,1-15.86,1.09c-6.88-2.22-13.85-7.83-20.67-16.76-1.08-2.51-1.64-5-.8-6.83a.91.91,0,0,1,.66-.56c2.19-.5,7.8,4.11,11.16,6.87,1.16,1,2.17,1.79,2.88,2.29,2.17,1.55,3.91-.14,5.29-1.5a77.61,77.61,0,0,0,5.25-6.8c1.07-1.48,2-2.76,2.38-3.21a2.77,2.77,0,0,1,2.7-1.07,1.92,1.92,0,0,1,1.29,1.7c.64,4-1.34,9.17-2.22,11.23-1.44,3.39-2.85,5.84-7.87,12.87a.47.47,0,0,0,0,.57.42.42,0,0,0,.25.16.52.52,0,0,0,.3,0c7.78-3.4,11.74-10.24,13.23-12.82a44.62,44.62,0,0,0,2.2-4.26,26.59,26.59,0,0,0,2.19-7.14,8.15,8.15,0,0,0,2.57,2,4.76,4.76,0,0,0-1.68,1.58,2,2,0,0,0-.2,1.52c.07.4.07.45-.14.59l0,0a4.67,4.67,0,0,0-1.82,1.88,2.53,2.53,0,0,0,0,2.14,3.68,3.68,0,0,0,.9,1.21,1.7,1.7,0,0,1,.47.58,1.07,1.07,0,0,1,.07.19,5.17,5.17,0,0,1-.37,1.8,4.72,4.72,0,0,0-.36,2.62c.83,2.3,2.77,2.84,4.78,2.84h.28l.7,0,.24,0c.42,0,.85-.08,1.25-.13l.49-.07,1.26-.15.33,0,.94-.1c.82-.1,1.62-.22,2.38-.39a18.37,18.37,0,0,0,3.13-1.24c.78-.37,1.58-.74,2.33-1l.21-.07a2.46,2.46,0,0,1,1.55.36,3.4,3.4,0,0,0,1.31.39,1.24,1.24,0,0,0,.56-.13,1.58,1.58,0,0,0,.8-2.1,2.25,2.25,0,0,1-.07-.42,8.39,8.39,0,0,0,.78-5.56,4,4,0,0,1-.05-1.43c0-.1.24-.42.45-.76.33-.52.8-1.26,1.3-2.18a28.18,28.18,0,0,0,1.53,3.89,9.87,9.87,0,0,0-.77,5,4.27,4.27,0,0,1-.39,2.69c-3.51,5.12-10,8.37-13.47,9.86l-1.58.62v1c.66-.24,1.3-.5,1.94-.76,3.61-1.53,10.23-4.88,13.88-10.18a5.16,5.16,0,0,0,.56-3.27,9.65,9.65,0,0,1,.4-3.84,8.93,8.93,0,0,1,.33-.83.36.36,0,0,0,0-.11.45.45,0,0,0,0-.11.45.45,0,0,1,0,.11.36.36,0,0,1,0,.11,8.93,8.93,0,0,0-.33.83,11,11,0,0,0,4.07,4.38A6.75,6.75,0,0,0,165,123a8.07,8.07,0,0,0,2.24-.34.47.47,0,1,0-.26-.9,6,6,0,0,1-4.78-.43,11,11,0,0,1-4.16-4.87h0a28.88,28.88,0,0,1-1.82-4.77l0-.07c1.87-3.72,3.81-9.45,1.64-15.31l-.88.33c2.11,5.68.08,11.31-1.76,14.88-.66,1.28-1.3,2.29-1.71,3a7.53,7.53,0,0,0-.53.9,4.11,4.11,0,0,0,0,1.9,7.42,7.42,0,0,1-.66,5,1.45,1.45,0,0,0,0,1.1c.14.61.15.82-.3,1-.23.11-.64-.08-1.08-.28l-.09,0a.42.42,0,0,0,.1-.31.47.47,0,0,0-.5-.44,7,7,0,0,0-1.69.38,1.82,1.82,0,0,0-.3.11l-.06,0c-.76.29-1.56.65-2.34,1a16.87,16.87,0,0,1-3,1.18,19.07,19.07,0,0,1-2.16.36l-.94.1-.42,0-.62.07-.68.09-.79.1-.82.09-.94.06c-1.85,0-3.5-.34-4.18-2.23a4.94,4.94,0,0,1,.38-2,12.06,12.06,0,0,0,.4-1.53,7.69,7.69,0,0,0,.94.38l.35.13a15.5,15.5,0,0,0,2.11.63l.74.14.2,0a5.27,5.27,0,0,0,.68,0,8.38,8.38,0,0,0,1.75-.22l.63-.12.27,0c.26,0,.53-.1.8-.17l.14,0,.65-.07h.06a3.91,3.91,0,0,0,1.06-.17.48.48,0,0,0,.29-.6.47.47,0,0,0-.59-.29s0,0,0,0a4.43,4.43,0,0,1-.87.13l-.58.06-.37.06-.57.13-.43.08-.67.13a6,6,0,0,1-2.23.15h0c-.31,0-.61-.12-.9-.19a13.65,13.65,0,0,1-1.76-.53l-.39-.14a3.43,3.43,0,0,1-1.36-.71.57.57,0,0,0-.15-.12,3.13,3.13,0,0,0-.56-.66,2.48,2.48,0,0,1-.69-.91c-.16-.36-.63-1.43,1.3-2.74h.06a7,7,0,0,0,1.23-.21c.28-.07.57-.14.78-.17a15.07,15.07,0,0,1,1.54-.15l.56,0,.38,0a6.55,6.55,0,0,1,2.8,1.26c.17.12.35.23.53.34s.62.37.94.54l.44.21a.63.63,0,0,0,.19,0,.47.47,0,0,0,.43-.28.48.48,0,0,0-.25-.62,5.13,5.13,0,0,1-.81-.41c-.32-.18-.63-.38-.94-.58h0a7.11,7.11,0,0,0-3.31-1.41c-.12,0-.24,0-.38,0l-.56,0a14.94,14.94,0,0,0-1.68.17,7.51,7.51,0,0,0-.85.17l-.27.07a2.48,2.48,0,0,0-.05-.63,1.1,1.1,0,0,1,.07-.87,4.48,4.48,0,0,1,2.07-1.61,6.55,6.55,0,0,1,.71-.27h0a5.54,5.54,0,0,1,.9-.19,7.32,7.32,0,0,1,3.33.39l.15.05a7,7,0,0,1,.79.35,5.14,5.14,0,0,1,2.34,2.21,8.14,8.14,0,0,0,1.77,2.48l.42.42.15.15.14.12a5.9,5.9,0,0,0,2,1.11,3.07,3.07,0,0,0,1.24.11,1.83,1.83,0,0,0,1.37-1,.47.47,0,1,0-.83-.43.86.86,0,0,1-.68.5h-.05c.65-1.21.75-3.68.67-7.35,0-1.07-.06-2.24-.1-3.52-.16-4.59-.34-9.8.42-12.82a30.78,30.78,0,0,1,2.18-5.41l.3-.63c.67-1.42,1.28-1.56,1.28-1.57a.32.32,0,0,0,.21-.08c.62-.47,3.17.12,3.92.57l.28.19a9.57,9.57,0,0,1,.77.69,5.67,5.67,0,0,0,1.56,1.18A35.88,35.88,0,0,0,165,90.24a25.37,25.37,0,0,1,6,2.3c4.06,2.37,7.81,6.57,6.16,11.26a.47.47,0,0,0,.89.31c1.83-5.23-2.2-9.82-6.58-12.38a26.86,26.86,0,0,0-6.17-2.39,35.39,35.39,0,0,1-4.67-1.62,4.76,4.76,0,0,1-1.3-1c-.21-.2-.43-.41-.67-.61a14,14,0,0,0,.09-2.47,4.73,4.73,0,0,1,.42-2.8.52.52,0,0,0,.06-.13c.48-.39,1-.77,1.49-1.13s1-.64,1.6-1c2.18-1.32,5.07-3.08,5.76-5.32a6.77,6.77,0,0,1,.84-.48c.93-.46,2.08-1.05,2.19-2.26.13-1.45-1.27-2.19-2.29-2.73l-.4-.22h0a1.14,1.14,0,0,0-.09-.16c-.41-.62-.8-1.36-1.21-2.14a20.25,20.25,0,0,0-2.32-3.7,31.29,31.29,0,0,0-3.87-3.62c-.83-.7-1.69-1.41-2.47-2.16-1.48-1.42-2.85-3.44-2.48-4.38a.47.47,0,0,0-.27-.61.47.47,0,0,0-.6.27c-.76,1.94,2.11,4.83,2.7,5.39.81.78,1.68,1.5,2.52,2.21a29.57,29.57,0,0,1,3.76,3.51,19.75,19.75,0,0,1,2.2,3.52c.42.81.83,1.56,1.26,2.23a2.71,2.71,0,0,1,.28.79.46.46,0,0,0,.46.41h.05a.46.46,0,0,0,.4-.33c.88.49,1.51,1,1.45,1.64s-.89,1.11-1.68,1.5l-.37.2a.46.46,0,0,0-.84.26,2,2,0,0,1-.06.42c-.46,2-3.29,3.69-5.39,5-.61.37-1.19.72-1.65,1s-1.19.89-1.75,1.34l-.46.37a33.28,33.28,0,0,1-2.75,2c-1.07.67-2.18,1.29-3.25,1.88l-1.8,1a16.47,16.47,0,0,0-2.85,2.17l-.91.79a.44.44,0,0,0-.3-.25.47.47,0,0,0-.57.34c0,.16-.07.31-.1.43s-.07.32-.11.44v0A2.16,2.16,0,0,1,145,90a4,4,0,0,1-.42.5,5.5,5.5,0,0,0-.74,1c-.13.24-.24.48-.35.7a5.4,5.4,0,0,1-.78,1.31,6.38,6.38,0,0,0-1.88.29,8.86,8.86,0,0,0-.94.34,13.69,13.69,0,0,0-1.59.77,12.65,12.65,0,0,1-1.74,0c-.32,0-.64-.06-.94-.1a6.48,6.48,0,0,1-2.51-.86,3.19,3.19,0,0,1-.57-.46,3.07,3.07,0,0,1-.5-.64,2.61,2.61,0,0,1-.37-1,2.09,2.09,0,0,1,.62-1.7,13.32,13.32,0,0,0,3.33.67c.31,0,.63,0,.94,0h0a4.94,4.94,0,0,0,2.85-.66.47.47,0,0,0,.08-.66.46.46,0,0,0-.65-.08,4.19,4.19,0,0,1-2.28.47c-.31,0-.63,0-.94,0a10.3,10.3,0,0,1-3.3-.74.37.37,0,0,0-.23,0c-1.11-1.72-1.11-3.15,0-4.56.78-.2,1.66-.39,2.64-.56H135l.67,0c.32,0,.64,0,.94,0a12.59,12.59,0,0,1,2,.24.47.47,0,0,0,.55-.38.46.46,0,0,0-.37-.54,14.82,14.82,0,0,0-2.15-.26c-.3,0-.61,0-.93,0h0l-.72,0h-.32a11.17,11.17,0,0,0-2.53.25,3,3,0,0,1,.06-1.32,5.73,5.73,0,0,1,.77-1.77.21.21,0,0,1,0-.06,2.78,2.78,0,0,1,.89-.89,3.57,3.57,0,0,1,1.81-.37c.3,0,.62,0,.94.05l.24,0c.31,0,.61.06.9.07a9.55,9.55,0,0,0,1.2,0c.34,0,.67,0,1,0a4.89,4.89,0,0,1,.55,0,2.23,2.23,0,0,1,.39.13,3.37,3.37,0,0,1,1.76,2.32l.1.37c0,.1,0,.18.08.26a1.84,1.84,0,0,0,.86,1.14l.88.63h0a13.23,13.23,0,0,0,1.85,1.12.47.47,0,0,0,.62-.25.46.46,0,0,0-.25-.61,7.85,7.85,0,0,1-.88-.49,20.24,20.24,0,0,0,11-10.51,5.21,5.21,0,0,1,.4.78v0l0,0,.07.09,0,0,.09.06,0,0,.15,0h.06l.06,0h.07a0,0,0,0,1,0,0h0L158,74l.06-.05a.56.56,0,0,0,.05-.08l0-.07s0-.06,0-.09,0-.06,0-.1v0c-.68-6.61-6.2-9.25-9.85-11a8.5,8.5,0,0,1-4-3.52,3.61,3.61,0,0,0-1.6-1.26,14.18,14.18,0,0,0,3.57-3.64,6.58,6.58,0,0,0-.24-6.39,4.35,4.35,0,0,0-4.5-1.94.46.46,0,1,0,.13.92,3.41,3.41,0,0,1,3.58,1.52,5.65,5.65,0,0,1,.24,5.39,13.94,13.94,0,0,1-4,3.9c-.22.15-.44.3-.67.44v1.1l1-.65a3.54,3.54,0,0,1,1.72,1.1,9.46,9.46,0,0,0,4.31,3.86c3.17,1.52,7.31,3.51,8.83,7.87a10.23,10.23,0,0,0-1.43-1.26,25.21,25.21,0,0,0-7-3.22l-.85-.28a.47.47,0,1,0-.29.89l.85.28a25.29,25.29,0,0,1,6.41,2.88,17.15,17.15,0,0,1-3.64,7,17,17,0,0,1-2.89,2.86,23.75,23.75,0,0,1-3.38,2l-.14.08-.19-.15-.29-.22a2.47,2.47,0,0,0,1.44-1.13,4,4,0,0,0,0-3.17,2.35,2.35,0,0,0,1-1.71,3.17,3.17,0,0,0-.81-2.46A5.12,5.12,0,0,0,146,73a3.46,3.46,0,0,0,.29-1.24,4.92,4.92,0,0,0-.12-1.21,2.4,2.4,0,0,0-.79-1.25,9.35,9.35,0,0,0-1.59-1.2,7.29,7.29,0,0,0-2.92-1,5.8,5.8,0,0,0-.6-.06l-.28,0h-.06a2.85,2.85,0,0,0-.29,0,10.94,10.94,0,0,0-2.55,0l-.49.09a8.05,8.05,0,0,0-.94.24,6.59,6.59,0,0,0-1.24.52,5.69,5.69,0,0,0-1,.68,3.19,3.19,0,0,0-1,1.73,27.61,27.61,0,0,0-4.18,1.75,2.83,2.83,0,0,0-1,.79.36.36,0,0,0,0,.09.46.46,0,0,0,.25.6.35.35,0,0,0,.17,0,.46.46,0,0,0,.43-.28.74.74,0,0,1,.18-.15l.13.19a21.87,21.87,0,0,0,3.8,4.69v0a19.68,19.68,0,0,1-5.47-4.4,9.09,9.09,0,0,1,.49-.86A16.93,16.93,0,0,1,132,68.26h0l.39.31a.46.46,0,0,0,.28.1.48.48,0,0,0,.29-.85A4.68,4.68,0,0,1,131,65.5l.21-.16a40.59,40.59,0,0,1,4-2.91l.46-.26V61.08c-.33.19-.64.37-.94.56a39.57,39.57,0,0,0-4.06,3l-.37.3-.06,0h0a28.42,28.42,0,0,1-4.28,3c-.39.21-.8.41-1.22.59a20.6,20.6,0,0,1-10.78,1.93l-1.5-.13a16.22,16.22,0,0,1-4.75-.84,5.49,5.49,0,0,1-1-.59,2.46,2.46,0,0,0,1.65.38,9.22,9.22,0,0,0,3.84-1.39c1.07-.69,1.82-1.84,2.89-2.56.62-.42,2.76-2.67,3.45-3h0l.13,0h0c1.27-.43,2.59-.83,3.88-1.21,3.76-1.14,7.32-2.2,9.37-3.83,1.25-1,1.75-2.81,2.32-4.91.17-.6.34-1.22.54-1.85a3,3,0,0,0,1.49.2c1.17-.12,2-.75,2-1.42s-1.07-1.11-2.23-1-2,.75-2,1.41h0c-.27.82-.5,1.62-.71,2.39-.53,1.94-1,3.62-2,4.42-1.92,1.52-5.39,2.56-9.06,3.67A70.73,70.73,0,0,0,115,62.65c-1,.42-2.14.9-3.45,1.39.26-.12.39-.18.35-.18-6.21.78-11.65-1.33-13.45-1.78a10.35,10.35,0,0,0-2.79,0l.84-1c2-2.31,3.9-4.5,3.94-6.65a5,5,0,0,1,2.48-4,4.79,4.79,0,0,0,.92-.8,12.31,12.31,0,0,0,11.48,8c.42,0,.85,0,1.27-.07a12.25,12.25,0,0,0,8.34-19.83l.23.18a25.22,25.22,0,0,0,3.21,2.19c2.29,1.25,7.71,1.85,10.08.22a.48.48,0,0,0,.12-.66.46.46,0,0,0-.65-.11c-1.89,1.31-6.89.94-9.09-.27a22.93,22.93,0,0,1-3.1-2.12,18.61,18.61,0,0,0-5.89-3.33,11.54,11.54,0,0,0-2.31-.53,12.27,12.27,0,0,0-14.38,13.32,11.51,11.51,0,0,0,.23,1.43,4.67,4.67,0,0,1-.23.91,3.13,3.13,0,0,1-.78.7,5.81,5.81,0,0,0-2.86,4.7c0,1.81-1.91,4-3.72,6.06-.51.59-1,1.18-1.51,1.78h0c.38-.56.78-1.1,1.15-1.6a13.63,13.63,0,0,0,1.94-3.09,14.52,14.52,0,0,0,.57-3.54,17.74,17.74,0,0,1,.27-2.29A43.85,43.85,0,0,1,100,45.53l.27-.77a12.69,12.69,0,0,0,.48-3.67,13.41,13.41,0,0,1,.28-2.86c.88-3.51,3.92-4.91,6.86-6.26l1-.46a10.79,10.79,0,0,0,4.07-4c1.25-1.79,2.42-3.48,4.74-3.91,4.27-.8,7,2.71,9.57,6.11,2.93,3.82,6,7.77,11.15,5.23a.48.48,0,0,0,.21-.63.46.46,0,0,0-.62-.21c-4.51,2.2-7-1.12-10-5-2.78-3.62-5.65-7.37-10.48-6.46-2.7.5-4,2.43-5.34,4.29a9.79,9.79,0,0,1-3.7,3.72l-1,.46c-3.14,1.44-6.39,2.93-7.37,6.88a14.05,14.05,0,0,0-.32,3.07,11.42,11.42,0,0,1-.43,3.4c-.06.19-.15.44-.26.75a46.44,46.44,0,0,0-1.89,6.35A21.42,21.42,0,0,0,97,54a14.35,14.35,0,0,1-.51,3.32,14,14,0,0,1-1.82,2.82c-.57.77-1.19,1.62-1.75,2.5-.85.28-1.48.68-1.57,1.19a3.09,3.09,0,0,1-.81-.76l0,0a17.7,17.7,0,0,0,1.06-6.57c0-.14,0-.48-.07-1-.1-1.17-.27-3.34-.47-6.28a3.62,3.62,0,0,1,0-.46,27.58,27.58,0,0,1,1.37-6.86l0-.08,0-.06h0a6,6,0,0,0,.19-.9,12.15,12.15,0,0,0,0-2.09A5.53,5.53,0,0,1,93,35.48a12.46,12.46,0,0,1,1.13-1.65,6.34,6.34,0,0,0,1.67-4.12c0-.53,0-1,0-1.44-.08-1.51-.13-2.42,1.32-3.56a7.15,7.15,0,0,1,2.32-1.06A12.76,12.76,0,0,0,101,23a24.61,24.61,0,0,0-1,3,34,34,0,0,1-1.9,4.85l-.53,1.19c-.35.79-.83,1.67-1.34,2.61-1.1,2-2.32,4.24-2.57,6.26a6.41,6.41,0,0,0,0,1.07.49.49,0,0,0,.47.44h0a.46.46,0,0,0,.42-.5c-.15-2,1.25-4.55,2.49-6.81.52-1,1-1.85,1.37-2.68.18-.4.35-.79.54-1.19a36.24,36.24,0,0,0,1.94-5,22.39,22.39,0,0,1,2.87-6.51,18.54,18.54,0,0,1,5.6-5.44C114.71,10.92,137.72-2,145,1.55A3.92,3.92,0,0,1,147.25,5c.39,3.86-1.28,7-3.05,10.21a40.33,40.33,0,0,0-2.29,4.72l-.08.22-.39,1.05a15.84,15.84,0,0,0-.63,2.06c-.06.26-.11.53-.16.79s-.08.63-.09.94c0,.13,0,.25,0,.38v0h0a7.94,7.94,0,0,0,.1,1.27,10.55,10.55,0,0,0,.7,2.27A5.41,5.41,0,0,1,142,32a.48.48,0,0,0,.38.55.47.47,0,0,0,.54-.38,6.3,6.3,0,0,0-.65-3.59,10.18,10.18,0,0,1-.65-2.07,5.08,5.08,0,0,1-.07-.67,15.82,15.82,0,0,1,5,1.53c.71.3,1.39.59,2,.83a34.64,34.64,0,0,1,9.59,5.43,46.1,46.1,0,0,1,8.75,9.2c.93,1.25,1.89,2.47,2.82,3.66a65.81,65.81,0,0,1,7.26,10.59c6.39,12.42,11.76,24.66,7.55,37.87-.67,2.11-1.21,4.37-1.75,6.56l-.08.37a19,19,0,0,0-.22,5.47,24.9,24.9,0,0,1,0,4c-.45,4-3.5,8.34-7.36,11.35-.18.15-.36.28-.54.41h0a16.14,16.14,0,0,1-8.42,3.4.47.47,0,0,0,0,.93h0a15.81,15.81,0,0,0,7.47-2.62c-3.07,5.61-7.16,11.59-13.77,15.68a57.56,57.56,0,0,1-19,7.19v1a58.75,58.75,0,0,0,19.52-7.4c7.43-4.61,11.73-11.47,14.95-17.63.47-.36.94-.74,1.39-1.14l5,.93L180.06,119c.39-.52.75-1,1.09-1.58l5.48-.75-3.38-4.33c.05-.28.09-.56.12-.83a16.55,16.55,0,0,0,.09-1.86l5.11-3.56-5.25-2.41a9.31,9.31,0,0,1,.24-1.57l.08-.36.24-1,6.76-1.2-4.87-5.68a34.43,34.43,0,0,0,.77-3.59ZM187,83.9l4.48,3-4.67,2.26A33.87,33.87,0,0,0,187,83.9ZM144,113.45a6,6,0,0,0-2.64-2.59,6.38,6.38,0,0,0,2.26-1.28,4.57,4.57,0,0,0,.76-4.5c.29-.25.58-.51.85-.78a16.75,16.75,0,0,0,2.13,4.91c.12,1-.57,3.35-2,6.23A7,7,0,0,1,144,113.45Zm2.07,2.71a21.56,21.56,0,0,0,2.17-6l.17.15,0,0c.06,3.27-.05,6.24-.76,6.79a5.07,5.07,0,0,1-1.54-.91Zm12-29.44-.08,0,.08,0h0Zm-13.74,5.91c.11-.22.21-.44.34-.68a4.48,4.48,0,0,1,.61-.82,4.78,4.78,0,0,0,.48-.58,3,3,0,0,0,.41-.78,3.86,3.86,0,0,0,.17-.63,3.86,3.86,0,0,1-.17.63A21.66,21.66,0,0,0,148,88.32a15.79,15.79,0,0,1,2.7-2.06c.59-.34,1.19-.67,1.79-1l.36-.2c1-.54,2-1.1,2.93-1.72a25.71,25.71,0,0,0,2.13-1.54,11.41,11.41,0,0,0,0,1.86c0,.62,0,1.25,0,1.89l.17.08-.17-.08c-1-.46-3.47-1.1-4.56-.42a1.18,1.18,0,0,0-.33.14,4.07,4.07,0,0,0-1.54,1.92l-.29.63a31.94,31.94,0,0,0-2.25,5.58,23.37,23.37,0,0,0-.55,4.6c-.1,2.6,0,5.57.1,8.48,0,.83.06,1.69.08,2.55l-.18-.21a.45.45,0,0,0-.23-.29,18.82,18.82,0,0,1-2-5.1,2.71,2.71,0,0,0,.26-3,3.38,3.38,0,0,0,1.14-2.5,3.19,3.19,0,0,0-.1-.8,5,5,0,0,0-3.52-3.48A10.6,10.6,0,0,0,144.35,92.63Zm-8.71,3.15a9.33,9.33,0,0,0,.94.1h.19l-.19.13c-.34.23-.66.46-.94.68a20.28,20.28,0,0,0-1.59,1.3l0,0-.15.16a16.59,16.59,0,0,1-1-3.27A7.86,7.86,0,0,0,135.64,95.78Zm-4.22-6a3,3,0,0,0-.66,2.21,3.73,3.73,0,0,0,.94,2,19.74,19.74,0,0,0,1.43,4.79l-.24.13a2.41,2.41,0,0,0-1.39,1.54.49.49,0,0,0,0,.44.51.51,0,0,0,.21.17.47.47,0,0,0,.61-.26,1.59,1.59,0,0,1,.95-1.06,4,4,0,0,0,.94-.61l0,0a.76.76,0,0,0,.09-.09c.1-.09.21-.2.32-.32s.42-.37.94-.78c.26-.22.58-.47.94-.72a22.39,22.39,0,0,1,2-1.32c.44-.25.88-.48,1.33-.68s.63-.27.94-.38a5,5,0,0,1,2.24-.29l.21,0a4,4,0,0,1,3.1,2.85,2.44,2.44,0,0,1-.8,2.43,8.25,8.25,0,0,1-1-.49,7.85,7.85,0,0,0-1.72-.75,3.82,3.82,0,0,0-2,.08,8.07,8.07,0,0,0-.94.33c-.3.12-.58.25-.85.37l-.51.23a6,6,0,0,1-.63.2,7.25,7.25,0,0,0-1.34.51,1.5,1.5,0,0,0-.79.78.46.46,0,0,0,.27.6l.16,0a.49.49,0,0,0,.36-.17.39.39,0,0,0,.08-.14c.11-.28,1.07-.57,1.53-.71.29-.09.54-.16.73-.24l.52-.23.47-.21a9.25,9.25,0,0,1,.94-.38,3.22,3.22,0,0,1,1.8-.15,7.19,7.19,0,0,1,1.51.67,8.55,8.55,0,0,0,1.18.57h0a1.9,1.9,0,0,1-.25,2.37,10.48,10.48,0,0,1-1.25,1.25,2.41,2.41,0,0,1-.51-.36,3,3,0,0,0-.69-.48,4,4,0,0,0-1.8-.45,1.84,1.84,0,0,0-.33,0l-.15,0-.46.08a9.19,9.19,0,0,0-3.33,1.07l-.29.23a.46.46,0,0,0,0,.66.49.49,0,0,0,.31.14h0a.44.44,0,0,0,.32-.13,7.07,7.07,0,0,1,3-1l.62-.1.15,0h.17a3,3,0,0,1,1.4.35,2.76,2.76,0,0,1,.49.36,3.59,3.59,0,0,0,.73.49,3.72,3.72,0,0,1-.54,3.8,6.45,6.45,0,0,1-2.08,1.07,7.71,7.71,0,0,1-.77.26l-.17-.06a8.53,8.53,0,0,0-3.33-.35,5.59,5.59,0,0,0-.94.17l-.23.06c-.19.06-.37.12-.54.19a7,7,0,0,1-3-2.07,2.14,2.14,0,0,1-.48-1.06,13.52,13.52,0,0,0-1-5.83l-.24-.56a14.33,14.33,0,0,0-.74-1.35l.12-.09c-1.45-1.8-4.13-10.21-3.93-11.15s1.3-2.15,5.18-3.32C130,86.39,130.24,88,131.42,89.73Zm17.07-8.48a17.45,17.45,0,0,0,3.06-3,18.39,18.39,0,0,0,3.72-7,8.46,8.46,0,0,1,1,.93A19.59,19.59,0,0,1,148,81.59ZM134.85,68.74a7.22,7.22,0,0,1,.79-.35,7.45,7.45,0,0,1,.94-.28l.63-.12a10.8,10.8,0,0,1,2.34,0l.3,0h.06l.27,0,.67.07a6.33,6.33,0,0,1,2.45.81A8.88,8.88,0,0,1,144.72,70a1.54,1.54,0,0,1,.51.75,4.33,4.33,0,0,1,.11,1,2.53,2.53,0,0,1-.22.91c0,.07-.14.26-.25.44a8.42,8.42,0,0,0-2.15-1.63,6.33,6.33,0,0,0-1.87-.37c-.28,0-.57,0-.84,0h-.1a6.93,6.93,0,0,1-1.63-.16.47.47,0,1,0-.25.9,7.9,7.9,0,0,0,1.88.19H140c.29,0,.58,0,.86,0a5.07,5.07,0,0,1,1.53.3,9.39,9.39,0,0,1,2.18,1.78h0v0l0,0a2.33,2.33,0,0,1,.84,2,1.48,1.48,0,0,1-.65,1.08,7.86,7.86,0,0,0-2.53-1.58,7.38,7.38,0,0,0-1.41-.38l-.53-.09a2.73,2.73,0,0,0-.41,0,6.11,6.11,0,0,0-1.06.06,4.46,4.46,0,0,1-1.31,0,.46.46,0,1,0-.19.91,4.77,4.77,0,0,0,1.6,0,6.35,6.35,0,0,1,1-.06l.27,0,.67.12a7.56,7.56,0,0,1,1.06.3,6.47,6.47,0,0,1,2.53,1.68h0a3.07,3.07,0,0,1,.1,2.49,1.57,1.57,0,0,1-1,.71l-.06-.2a4,4,0,0,0-2.65-3,1.17,1.17,0,0,0-.2-.06,3.71,3.71,0,0,0-.74-.07,9.47,9.47,0,0,0-1.07.05,10.22,10.22,0,0,1-1.08,0L136.9,78l-.32,0c-.31,0-.63,0-.94,0a4.53,4.53,0,0,0-2.26.48,2.53,2.53,0,0,0-.55.41,1.79,1.79,0,0,1,.23-.62l.09-.12,0-.12a3.72,3.72,0,0,0,.33-1.09,8.46,8.46,0,0,0-.06-2.58c0-.2,0-.41-.08-.65l0-.37a10.38,10.38,0,0,1-.11-2.53A2.72,2.72,0,0,1,134.85,68.74Zm-5.78,4.1L129,72.7c1-.46,2.35-1,3.26-1.35a19.77,19.77,0,0,0,.16,2.05l0,.37c0,.24.05.46.08.66a7.87,7.87,0,0,1,.05,2.33,2.09,2.09,0,0,1-.09.41A26.25,26.25,0,0,1,129.07,72.84Zm2.21-5.24c-.93.6-4.26,2.89-5.63,5.94a.13.13,0,0,0,0,.06s0,0,0,.06,0,.07,0,.11,0,0,0,.08,0,.06,0,.08a.06.06,0,0,0,0,0A19.49,19.49,0,0,0,131.89,79a3.1,3.1,0,0,0,.07.63c-.47.08-2.11-.62-7-4.13-.52-.39-.9-.66-1.12-.8a.44.44,0,0,0-.16-.06,4.82,4.82,0,0,1-1.23-.39,5.21,5.21,0,0,1,1-.8.46.46,0,0,0,.17-.17c.88-1.55,1.19-2,1.52-2.54s.6-.92,1.27-2.06a29,29,0,0,0,3.75-2.59A5.11,5.11,0,0,0,131.28,67.6Zm-4.67-23.32a11.33,11.33,0,0,1-22.28,3.8,14.9,14.9,0,0,0,.1-1.88,13.29,13.29,0,0,1,.09-1.89A11.73,11.73,0,0,1,110,35.93a10.79,10.79,0,0,1,16.65,8.35ZM88.23,58a20.78,20.78,0,0,0,1.25-1.74c0,2-.24,4.29-.45,6.08a11.54,11.54,0,0,0-1.3,0c-.37,0-.83-.74-1-1C86.61,60.05,87.3,59.15,88.23,58Zm16.07,9.28.21.14-.23-.14Zm.77.52.21.14.11.09ZM90.12,60.9a43.66,43.66,0,0,0,.26-6.46,1.21,1.21,0,0,0,.05-.14c0,.47.08.88.1,1.21,0,.52.07.86.08,1A14.67,14.67,0,0,1,90.12,60.9Zm3.27-27.64A14.79,14.79,0,0,0,92.18,35a6.34,6.34,0,0,0-.53,3.75,7.66,7.66,0,0,1-.15,2.67A19.22,19.22,0,0,0,90,48.61l0,.24a9.1,9.1,0,0,1-4.08-6.6,8.84,8.84,0,0,1,7-9.59c.32-.06.49-.09.78-.12A.5.5,0,0,0,94,32.4C93.82,32.69,93.61,33,93.39,33.26Zm49.36-12.89-.05.11-.23.6.23-.6Zm-.49,1.32,2.32-2.52,2,6.72c-1.69-.61-3.45-1.22-5-1.63h0A12.54,12.54,0,0,1,142.26,21.69ZM157,24l.43,7.81A41.05,41.05,0,0,0,151.06,28Zm9.76,17a52.31,52.31,0,0,0-4.59-5.22l6.53-1.73Zm4,5.13,7-1.47-2.5,7.46C173.77,50,172.23,48.06,170.72,46.14Zm9.48,15.17c-.44-.92-.93-1.9-1.47-3l7.73.12-4.26,7C181.58,64.05,180.91,62.66,180.2,61.31Zm-4.94,61.5a.42.42,0,0,0-.15,0,.42.42,0,0,1,.15,0,.44.44,0,0,1,.15.12A.44.44,0,0,0,175.26,122.81Zm5-.51-2-.38c.47-.52.9-1,1.32-1.6Zm4.65-6.34-2.9.4a17.41,17.41,0,0,0,1.06-2.75Zm1.81-9.71-3.18,2.22c0-.4,0-.79-.06-1.16-.05-.85-.11-1.73-.1-2.59Zm2.17-7.31-4.64.83c.36-1.46.76-3,1.23-4.44,0-.09,0-.18.08-.27ZM184,70.12,192.19,72l-5.88,6.28A53.48,53.48,0,0,0,184,70.12Z"/><g id="ojo_izquierdo" data-name="ojo izquierdo"><path id="ojo_izquierda" data-name="ojo izquierda" class="cls-5" d="M85.94,42.25A9.1,9.1,0,0,0,90,48.85l0-.24a19.22,19.22,0,0,1,1.46-7.17,7.66,7.66,0,0,0,.15-2.67A6.34,6.34,0,0,1,92.18,35a14.79,14.79,0,0,1,1.21-1.76c.22-.3.43-.57.63-.86a.5.5,0,0,1-.28.14c-.29,0-.46.06-.78.12A8.84,8.84,0,0,0,85.94,42.25Z"/><circle id="pupila" class="cls-6" cx="89.17" cy="42.9" r="2.52"/><g id="parpado_izquierdo" data-name="parpado izquierdo"><path id="relleno_parpado" data-name="relleno parpado" class="cls-4" d="M92.93,34.59c-1.14,1.64-.5,3.82-.8,6.18-.17,1.36-.91,3.31-1,4.64a9.1,9.1,0,0,1-.36,1.46c-.06.26-.26.28-.38,0C89.12,44.57,85.1,36.39,87.14,34c1.9-2.2,5.88-3,7.41-3.2a.28.28,0,0,1,.27.44C94.35,32,93.79,33.34,92.93,34.59Z"/><path id="contorno_parpado" data-name="contorno parpado" class="cls-2" d="M90.54,47.54a.71.71,0,0,1-.62-.41c-1.66-3.2-5.3-10.9-3.14-13.4,2-2.31,6-3.12,7.7-3.36a.71.71,0,0,1,.74.34.74.74,0,0,1,0,.82c-.18.28-.38.66-.61,1.1a20.12,20.12,0,0,1-1.29,2.22h0a6,6,0,0,0-.63,3.54,18.26,18.26,0,0,1-.08,2.43,17.93,17.93,0,0,1-.53,2.31,16.2,16.2,0,0,0-.52,2.33,5.63,5.63,0,0,1-.27,1.14c0,.14-.08.26-.1.37a.7.7,0,0,1-.56.57Zm3.68-16.18c-1.72.28-5.07,1.07-6.73,3-1.4,1.62.66,7.23,3,11.78a4.14,4.14,0,0,0,.16-.75,15.6,15.6,0,0,1,.55-2.48,17.85,17.85,0,0,0,.5-2.18,16.42,16.42,0,0,0,.08-2.31,6.63,6.63,0,0,1,.79-4.08h0a17.67,17.67,0,0,0,1.23-2.12C93.93,31.89,94.08,31.6,94.22,31.36Z"/></g><g id="rimel_y_pestaña_izquierdo" data-name="rimel y pestaña izquierdo"><path class="cls-6" d="M84.66,39.2a6.19,6.19,0,0,1-.63-.46,4.57,4.57,0,0,1-.71-.79,5.65,5.65,0,0,1-.5-.82l-.19-.38s0,.16,0,.42a5.45,5.45,0,0,0,.23,1,4.2,4.2,0,0,0,.53,1.11,3.13,3.13,0,0,0,.73.73,3.69,3.69,0,0,0,.92.35,6.32,6.32,0,0,0,1.18.2,2.43,2.43,0,0,0,1-.1.47.47,0,0,0,.24-.22.25.25,0,0,0,0-.11.39.39,0,0,1-.07.09.36.36,0,0,1-.25.09,2.14,2.14,0,0,1-.9-.21c-.34-.14-.69-.32-1-.48Z"/><path class="cls-6" d="M85.61,42.12a5,5,0,0,1-.64-.25,3.65,3.65,0,0,1-.79-.51,5.15,5.15,0,0,1-.62-.59l-.24-.28a3.27,3.27,0,0,0,.13.35,4.49,4.49,0,0,0,.42.8,3.67,3.67,0,0,0,.71.82,2.63,2.63,0,0,0,.78.46,3.19,3.19,0,0,0,.87.09,5.41,5.41,0,0,0,1-.1,2,2,0,0,0,.87-.33.38.38,0,0,0,.16-.24.24.24,0,0,0,0-.1.19.19,0,0,1,0,.09.4.4,0,0,1-.2.14,1.94,1.94,0,0,1-.81,0,9.59,9.59,0,0,1-1-.18Z"/><path class="cls-6" d="M86.48,44.8a5.76,5.76,0,0,1-.68-.07,4.48,4.48,0,0,1-.9-.29,8,8,0,0,1-.75-.41l-.3-.21a3.05,3.05,0,0,0,.21.3,4.39,4.39,0,0,0,.61.66,3.79,3.79,0,0,0,.9.62,2.67,2.67,0,0,0,.87.24,3.32,3.32,0,0,0,.86-.14,6.3,6.3,0,0,0,1-.36,2.13,2.13,0,0,0,.75-.54.44.44,0,0,0,.09-.28.24.24,0,0,0,0-.1.19.19,0,0,1,0,.1.42.42,0,0,1-.15.19,2.32,2.32,0,0,1-.79.23,7.89,7.89,0,0,1-1,.06C86.9,44.81,86.61,44.8,86.48,44.8Z"/><path class="cls-6" d="M84.45,36a7.72,7.72,0,0,1-.53-.78,8.38,8.38,0,0,1-.57-1.12c-.18-.39-.31-.76-.41-1s-.08-.25-.11-.33l0-.13v.13c0,.09,0,.21,0,.36a10.24,10.24,0,0,0,.06,1.14,7.71,7.71,0,0,0,.28,1.35,4.38,4.38,0,0,0,.47,1l.15.19.19.21a3.27,3.27,0,0,0,.51.39,6.94,6.94,0,0,0,1.2.66,2.33,2.33,0,0,0,1.18.24.4.4,0,0,0,.3-.23c0-.09,0-.13,0-.13a.59.59,0,0,1-.07.1.3.3,0,0,1-.28.09,2,2,0,0,1-.9-.52,9.4,9.4,0,0,1-.91-.87l-.34-.4-.11-.17Z"/><path class="cls-6" d="M85,34c-.07-.15-.18-.39-.29-.67a6.32,6.32,0,0,1-.28-.93c-.08-.32-.13-.63-.17-.85l0-.37s0,.14-.07.36a7.69,7.69,0,0,0-.11.89,5.37,5.37,0,0,0,0,1.06,2.89,2.89,0,0,0,.22.84s0,.1.08.16l.12.19a3.8,3.8,0,0,0,.33.37,5.87,5.87,0,0,0,.83.66,1.77,1.77,0,0,0,.86.35.3.3,0,0,0,.27-.13.2.2,0,0,0,0-.1.19.19,0,0,1-.07.07.23.23,0,0,1-.22,0,1.79,1.79,0,0,1-.62-.53,7.08,7.08,0,0,1-.56-.79l-.21-.35L85,34.08A1.39,1.39,0,0,1,85,34Z"/><path class="cls-6" d="M85.86,31.73c0-.16,0-.42-.06-.72a6.49,6.49,0,0,1,0-1c0-.33.08-.63.12-.86s.07-.36.07-.36-.08.12-.19.32a8.67,8.67,0,0,0-.39.8,6,6,0,0,0-.31,1,3.09,3.09,0,0,0-.06.87,1.68,1.68,0,0,0,0,.18c0,.06,0,.13,0,.21a3.05,3.05,0,0,0,.2.46,6.08,6.08,0,0,0,.57.89,1.77,1.77,0,0,0,.71.6.35.35,0,0,0,.3,0S87,34,87,34.05l-.09,0a.23.23,0,0,1-.22,0,1.77,1.77,0,0,1-.42-.69,8.45,8.45,0,0,1-.29-.94c0-.14-.07-.29-.08-.39s0-.11,0-.16S85.86,31.77,85.86,31.73Z"/><path class="cls-6" d="M90.55,45.78c-1.22-4.24-2.21-8.21-1.61-10.37,1.18-4.21,3.69-3.36,5.28-4,.26-.12.6-1,.6-1-1,.24-9.21.69-8.74,6,.38,4.22,2,7.07,4,11.25Z"/></g></g><g id="ojo_derecho" data-name="ojo derecho"><path id="ojo_derecha" data-name="ojo derecha" class="cls-5" d="M104.33,48.08A11.33,11.33,0,1,0,117.44,34.3,11.43,11.43,0,0,0,110,35.93a11.73,11.73,0,0,0-5.44,8.38,13.29,13.29,0,0,0-.09,1.89A14.9,14.9,0,0,1,104.33,48.08Z"/><g id="parpado_derecho" data-name="parpado derecho"><path id="relleno_parpado_derecho" data-name="relleno parpado derecho" class="cls-4" d="M137.73,39.35c-2.14,1.47-7.4,1-9.62-.25-3.27-1.79-4.58-4-8.93-5.43a12.08,12.08,0,0,0-15.69,9.94c-.24,1.69.12,3.39-.47,5s-3.32,3.21-2.46,4.91l.06.06S112,44.71,116.35,43c4.94-1.95,21.31-3.6,21.31-3.6Z"/><path id="contorno_parpado_derecho" data-name="contorno parpado derecho" class="cls-2" d="M100.57,54.18l-.43-.47c-.69-1.37.37-2.6,1.3-3.69a6.32,6.32,0,0,0,1.14-1.61,8.15,8.15,0,0,0,.34-2.86,15.42,15.42,0,0,1,.11-2,12.62,12.62,0,0,1,5.89-9.07,12.23,12.23,0,0,1,10.4-1.24,18.62,18.62,0,0,1,5.91,3.34,23.09,23.09,0,0,0,3.11,2.13,10,10,0,0,0,3.11.93c3.33-.43,5.9-.69,6.17-.72l0,.29.35.53c-1.49,1-4.16,1.18-6.53.84-5.15.66-12.07,1.71-15,2.84C112.23,45.1,101,53.83,100.9,53.92Zm14.89-20.65a11.48,11.48,0,0,0-6,1.73A11.76,11.76,0,0,0,104,43.67a15,15,0,0,0-.09,1.89,8.93,8.93,0,0,1-.41,3.18,6.81,6.81,0,0,1-1.3,1.89c-.74.87-1.27,1.53-1.29,2.14,2.33-1.79,11.41-8.69,15.31-10.23,2.55-1,8-1.91,12.75-2.58a5.49,5.49,0,0,1-1-.45,23.87,23.87,0,0,1-3.23-2.2,17.71,17.71,0,0,0-5.63-3.2A11.26,11.26,0,0,0,115.46,33.53Z"/></g><g id="pupila-2" data-name="pupila"><circle class="cls-6" cx="116.27" cy="44.42" r="4.29"/></g><g id="rimel_pestañas_derecho" data-name="rimel pestañas derecho"><path class="cls-6" d="M142.11,37.1c-3,.55-5.32,1.49-8,1.64-7.65.44-14.56-.79-18.2.64-2.8,1.1-8.47,7-12.24,11.13-.67.74-1.9,1.52-2.42,2.12a4.74,4.74,0,0,0-1.27,2.07S112.42,45,116.82,43.31c7.16-2.78,14.61-1.56,19.63-2.06C138.2,41.08,138.49,40.69,142.11,37.1Z"/><path class="cls-6" d="M126.58,39.55a3.16,3.16,0,0,0,.43-1,4.74,4.74,0,0,0,.1-1.35A6,6,0,0,0,127,36c0-.15-.06-.26-.08-.34l0-.12,0,.46a7.87,7.87,0,0,1-.21,1.06,5.11,5.11,0,0,1-.42,1.12,5.47,5.47,0,0,1-.46.75,8.4,8.4,0,0,1-.54.71,11.76,11.76,0,0,1-.83.91,2.36,2.36,0,0,1-.84.59.41.41,0,0,1-.3,0,.26.26,0,0,1-.1-.07.24.24,0,0,0,.07.11.54.54,0,0,0,.34.14,2.54,2.54,0,0,0,1.13-.31,9.4,9.4,0,0,0,1.14-.7c.17-.13.32-.26.46-.38l.19-.19.08-.1Z"/><path class="cls-6" d="M123.33,39a3.09,3.09,0,0,0,0-1.13,5.15,5.15,0,0,0-.43-1.29,6,6,0,0,0-.58-1l-.21-.28-.08-.1s.06.17.14.45a6.81,6.81,0,0,1,.22,1.05,6.19,6.19,0,0,1,.06,1.2,7.22,7.22,0,0,1-.13.87c0,.15-.12.5-.22.87a11.52,11.52,0,0,1-.41,1.16,2.23,2.23,0,0,1-.54.86.37.37,0,0,1-.28.11c-.08,0-.12,0-.12,0s0,0,.11.06a.51.51,0,0,0,.37,0,2.57,2.57,0,0,0,.91-.73,7.2,7.2,0,0,0,.77-1.09,5.48,5.48,0,0,0,.28-.53c0-.09.07-.17.09-.25a.56.56,0,0,0,0-.12A1,1,0,0,0,123.33,39Z"/><path class="cls-6" d="M120.44,38.81a3.09,3.09,0,0,0-.25-1.1,5.18,5.18,0,0,0-.7-1.18,7.25,7.25,0,0,0-.77-.83l-.26-.22-.1-.08a4.19,4.19,0,0,1,.23.41,7.18,7.18,0,0,1,.44,1,5.84,5.84,0,0,1,.3,1.16,5.14,5.14,0,0,1,.06.88c0,.15,0,.51,0,.89a10.46,10.46,0,0,1-.16,1.22,2.15,2.15,0,0,1-.35,1,.42.42,0,0,1-.25.17h-.12a.4.4,0,0,0,.12,0A.54.54,0,0,0,119,42a2.6,2.6,0,0,0,.74-.91,7.21,7.21,0,0,0,.52-1.22,5.11,5.11,0,0,0,.16-.58c0-.09,0-.18.05-.26s0-.09,0-.13Z"/><path class="cls-6" d="M118.16,39.68a2.92,2.92,0,0,0-.26-1.1,5.14,5.14,0,0,0-.69-1.18,7.1,7.1,0,0,0-.77-.82l-.26-.23-.1-.08s.1.16.23.41a8.66,8.66,0,0,1,.44,1,5.84,5.84,0,0,1,.3,1.16,5.26,5.26,0,0,1,.06.88,8.59,8.59,0,0,1,0,.89,8.47,8.47,0,0,1-.15,1.22,2.42,2.42,0,0,1-.35,1,.4.4,0,0,1-.25.17.45.45,0,0,1-.13,0,.36.36,0,0,0,.13,0,.49.49,0,0,0,.36-.08,2.52,2.52,0,0,0,.73-.9,6.92,6.92,0,0,0,.53-1.23,5.11,5.11,0,0,0,.16-.58c0-.09,0-.18.05-.26s0-.09,0-.13Z"/><path class="cls-6" d="M116,40.58a3.09,3.09,0,0,0-.25-1.1,5.34,5.34,0,0,0-.7-1.17,6.49,6.49,0,0,0-.77-.83l-.26-.23-.1-.08s.1.16.23.41a6.84,6.84,0,0,1,.44,1,5.63,5.63,0,0,1,.36,2c0,.16,0,.52,0,.9a10.46,10.46,0,0,1-.16,1.22,2.19,2.19,0,0,1-.35,1,.4.4,0,0,1-.25.16.19.19,0,0,1-.12,0,.26.26,0,0,0,.12,0,.54.54,0,0,0,.36-.08,2.6,2.6,0,0,0,.74-.91,8.29,8.29,0,0,0,.53-1.23q.09-.3.15-.57a2.56,2.56,0,0,0,.05-.27s0-.08,0-.13Z"/><path class="cls-6" d="M110.85,42a5.64,5.64,0,0,1-.13-.87,6.09,6.09,0,0,1,.06-1.19,9.86,9.86,0,0,1,.23-1.06c.08-.27.15-.45.15-.45l-.08.1a2.88,2.88,0,0,0-.21.28,6.79,6.79,0,0,0-.59,1,5.17,5.17,0,0,0-.44,1.29,3.37,3.37,0,0,0,0,1.13l0,.11a.5.5,0,0,0,0,.13c0,.08.06.16.1.25a3.79,3.79,0,0,0,.27.53,7.34,7.34,0,0,0,.76,1.09,2.5,2.5,0,0,0,.91.74.59.59,0,0,0,.37,0,.46.46,0,0,0,.11-.07.29.29,0,0,1-.12,0,.36.36,0,0,1-.28-.11,2.41,2.41,0,0,1-.54-.87,10.63,10.63,0,0,1-.4-1.16C111,42.45,110.87,42.1,110.85,42Z"/><path class="cls-6" d="M113.33,40.71a17.89,17.89,0,0,1-.43-2,4.15,4.15,0,0,1,0-1,1.56,1.56,0,0,1,.07-.32l0-.11-.07.09a2.32,2.32,0,0,0-.18.28,3.91,3.91,0,0,0-.38,1,6.36,6.36,0,0,0-.07,2.27c.1.36.24,1.29.48,2.09a2.58,2.58,0,0,0,.47,1,.41.41,0,0,0,.18.12s.07,0,.09,0l.07,0a.46.46,0,0,0,.11-.07.29.29,0,0,1-.12,0,0,0,0,0,1,0,0l-.06,0a.27.27,0,0,1-.09-.12,2.59,2.59,0,0,1-.08-1c0-.39,0-.82.07-1.21a5.14,5.14,0,0,0,0-.55,1.14,1.14,0,0,0,0-.26A1.78,1.78,0,0,0,113.33,40.71Z"/><path class="cls-6" d="M108.78,43l0-.07a.64.64,0,0,1,0-.09c0-.06,0-.13-.07-.2s-.09-.33-.12-.52a4.84,4.84,0,0,1,0-1.27,7.09,7.09,0,0,1,.21-1.14c0-.15.08-.27.1-.35l0-.13-.09.11a3.51,3.51,0,0,0-.22.29,6.28,6.28,0,0,0-.6,1.07,4.49,4.49,0,0,0-.37,1.45,2.64,2.64,0,0,0,0,.69,2.54,2.54,0,0,0,0,.29.74.74,0,0,0,0,.14.42.42,0,0,0,0,.12,4.1,4.1,0,0,0,.57,1,8,8,0,0,0,.92,1.11,2.89,2.89,0,0,0,1,.72.59.59,0,0,0,.39,0,.19.19,0,0,0,.1-.05h0a.15.15,0,0,1-.1,0,.51.51,0,0,1-.3-.13,2.79,2.79,0,0,1-.65-.9A19.36,19.36,0,0,1,108.78,43Z"/><path class="cls-6" d="M107,45.23l-.1-.11,0,0-.06-.07a3.33,3.33,0,0,1-.24-.34,2.8,2.8,0,0,1-.37-.9,4.06,4.06,0,0,1-.12-.9c0-.24,0-.39,0-.39a3.43,3.43,0,0,0-.15.37,4.66,4.66,0,0,0-.19.95,3.16,3.16,0,0,0,.13,1.18,2.89,2.89,0,0,0,.21.5l.07.11.07.1.12.15A6.33,6.33,0,0,0,108,47a2.46,2.46,0,0,0,.94.28.5.5,0,0,0,.3-.06c.07,0,.09-.07.09-.06l-.1,0a.52.52,0,0,1-.26,0,2.91,2.91,0,0,1-.72-.52C107.74,46.13,107.24,45.5,107,45.23Z"/><path class="cls-6" d="M105.78,46.7l-.19-.18a2.2,2.2,0,0,1-.57-.94,2.16,2.16,0,0,1-.1-.71c0-.19,0-.32,0-.32a1.85,1.85,0,0,0-.12.3,2.5,2.5,0,0,0-.15.77,2.77,2.77,0,0,0,0,.49,1.9,1.9,0,0,0,.15.46,2.06,2.06,0,0,0,.21.39l.22.25a5.33,5.33,0,0,0,1.36.88,2.3,2.3,0,0,0,.75.22.54.54,0,0,0,.24,0,.16.16,0,0,0,.08-.05.15.15,0,0,1-.08,0,.52.52,0,0,1-.22,0,2.31,2.31,0,0,1-.58-.42C106.42,47.41,106,46.92,105.78,46.7Z"/></g></g><g id="fosa_nasal_derecha" data-name="fosa nasal derecha"><path class="cls-6" d="M103.42,61.94c-.58.27-1,.84-1.54.57a1.16,1.16,0,0,1,1-2.11c.32.15,2.5-.2,2.59.11S104,61.66,103.42,61.94Z"/></g><g id="fosa_nasal_izquierda" data-name="fosa nasal izquierda"><path class="cls-6" d="M87.55,58.85c0,.46-.31.85,0,1.19a.8.8,0,0,0,1.15,0,.87.87,0,0,0,0-1.19c-.18-.18-.48-1.76-.71-1.74S87.58,58.37,87.55,58.85Z"/></g></g></g></svg>