<svg id="Capa_1" data-name="Capa 1" xmlns="http://www.w3.org/2000/svg" viewBox="0 0 300 200"><defs><style>.cls-1{fill:#363760;}.cls-2{fill:#1f1429;}.cls-3{fill:#d3443f;}.cls-4{fill:#57a8c9;}.cls-5{fill:#e8bc2b;}.cls-6{fill:#fff;}</style></defs><title>charlyysebas_logo_dark</title><path class="cls-1" d="M219.89,0l-139,6.8C70.69,7.32,62.65,18.24,63,31.1l2.25,89c.33,12.86,8.9,23.71,19,24.11l38.61,1.55-3.58,8.88,17.4-1.21-12.64,16,20.71.51L123.39,200l60-46.75-24.11-.59,3.76-5.34,48.06,1.93c10.15.4,19.07-9.78,19.82-22.62L237,22.47C237.73,9.63,230-.48,219.89,0Z"/><path class="cls-2" d="M215.37,6.61,88,12.84c-10.16.5-18.2,11.42-17.87,24.28l1.91,75.41c.33,12.86,8.9,23.7,19,24.11l40.09,1.6L127,148.77l20.65-1.44-13.35,16.83,19.7.48L139.68,184l33.55-27.09-20.6-.5,11.85-16.84,42.91,1.71c10.15.41,19.07-9.77,19.82-22.61l5.25-89.62C233.21,16.22,225.52,6.12,215.37,6.61Z"/><path class="cls-3" d="M108.65,22.35h6.8a2.77,2.77,0,0,1,2,.74,2.54,2.54,0,0,1,.8,1.91,2.69,2.69,0,0,1-.1.74l-.83,4h-5.08l.7-3.39h-3.46l-6.15,29.46h3.41l.38-1.82h5.09l-.51,2.42a4.13,4.13,0,0,1-1.49,2.4,4,4,0,0,1-2.65,1l-6.79,0a2.77,2.77,0,0,1-2-.74,2.51,2.51,0,0,1-.8-1.91,3.06,3.06,0,0,1,.09-.74l6.46-30.67a4.4,4.4,0,0,1,4.13-3.41Z"/><path class="cls-3" d="M122.48,22.1h5.38l-6,28.71,3.74-.33,6-28.39h5.38l-7.84,37.32h-5.38l.81-4-3.69.29L120,59.41h-5.37Z"/><path class="cls-3" d="M143.78,22.06l7.58,0L148.5,59.36h-4.19l.23-2.79-5.73.48-.69,2.33h-5.39Zm1.12,29.67,1.58-20.45L140.3,52.16Z"/><path class="cls-3" d="M159.32,22.21h5.35v.05c1.27.06,2.57.09,3.91.09a3.36,3.36,0,0,1,2.19,3.57,120.12,120.12,0,0,1-3.17,20.43,5.92,5.92,0,0,1-3.34,4.29l-.61.23L166,59.74l-5.6,2.71-2-9.3-.28.13-1.32,6.25h-5.33Zm4,6.42-3.7,17.52,1.86-.77A2.73,2.73,0,0,0,163,43.56a55.82,55.82,0,0,0,2-13.68,1.15,1.15,0,0,0-1.16-1.25Z"/><path class="cls-3" d="M176.23,22h5.43l-6.75,31.88,7.9,0L181.7,59.3l-13.3,0Z"/><path class="cls-3" d="M192.63,51l-1.75,8.2h-5.41l1.76-8.2h-2.52a1,1,0,0,1-1.07-1.07,3,3,0,0,1,.09-.7l5.68-27.13h5.42l-5,23.5h2.37l5-23.5h5.43l-5.81,27.55A1.62,1.62,0,0,1,195,51Z"/><path class="cls-4" d="M136.29,67.36l-1.16,6-5,.1.7-3.67a2.23,2.23,0,0,0-1.37-.45,3.09,3.09,0,0,0-1.57.51l-1.25,6.56,6.29,1.08c.74.13,1.12.48,1.13,1a4.15,4.15,0,0,1-.08.86l-3.74,19.44c-.18.89-1.23,1.57-3.14,2a17.16,17.16,0,0,1-3.86.5,15.72,15.72,0,0,1-3.66-.31c-1.68-.43-2.41-1.15-2.2-2.15l2.11-11,5-.09-1.72,9a2.39,2.39,0,0,0,1.38.4,3.56,3.56,0,0,0,1.58-.46L128.49,82l-6.39-1.09a1.25,1.25,0,0,1-1-1.22,2,2,0,0,1,0-.47l2.19-11.44c.18-.95,1.21-1.69,3.09-2.21a16.46,16.46,0,0,1,3.95-.68,12.18,12.18,0,0,1,3.66.36C135.75,65.63,136.5,66.35,136.29,67.36Z"/><path class="cls-4" d="M139.35,92.37l-.53,2.73,6.52-.13-1,5-6.54.13-5,.1,6.64-34.59L151,65.43l-.94,5.06-6.55.12-3.3,17.23,3.79-.37L143.14,92Z"/><path class="cls-4" d="M154.66,65.36h.22l3.74-.07,1,0v0c1.21,0,2.41,0,3.61,0a3.07,3.07,0,0,1,2.05,3.28,105.56,105.56,0,0,1-2.56,18.93,5.5,5.5,0,0,1-2.42,3.66l1.21,2.91a3.29,3.29,0,0,1,.17,1.76,4.33,4.33,0,0,1-.74,1.69,5.42,5.42,0,0,1-2.84,2.33L148,100Zm1.24,27.9-1.79.81-.32,1.9,3.44-.07Zm2.92-23.54-3.4,17.73,1.7-.76A2.36,2.36,0,0,0,158.5,85q2.08-8.94,1.9-14.18c0-.77-.41-1.15-1.12-1.14Z"/><path class="cls-4" d="M172.77,65l7-.14-2,34.55-3.87.07.16-2.58-5.29.53-.6,2.16-5,.1Zm1.52,27.42,1.12-18.94L170,92.89Z"/><path class="cls-4" d="M198.94,66.14l-1.16,6-5,.1.71-3.67a2.25,2.25,0,0,0-1.38-.45,3.06,3.06,0,0,0-1.56.51l-1.26,6.56,6.29,1.08q1.13.19,1.14,1a5.13,5.13,0,0,1-.09.86l-3.73,19.44c-.19.89-1.23,1.57-3.15,2a17.08,17.08,0,0,1-3.86.5,15.82,15.82,0,0,1-3.66-.31c-1.67-.43-2.4-1.15-2.19-2.15l2.1-11,5-.1-1.72,9a2.43,2.43,0,0,0,1.38.4,3.63,3.63,0,0,0,1.58-.45l2.81-14.82-6.4-1.09a1.25,1.25,0,0,1-1-1.22,2,2,0,0,1,0-.47L186,66.52c.18-1,1.22-1.69,3.1-2.21a16.38,16.38,0,0,1,3.94-.68,12.28,12.28,0,0,1,3.67.36C198.41,64.41,199.15,65.13,198.94,66.14Z"/><path class="cls-5" d="M105.86,92.55l-1.76,8.2H98.7l1.75-8.2H97.94a1,1,0,0,1-1.08-1.07,2.57,2.57,0,0,1,.1-.7l5.67-27.13h5.42l-5,23.5h2.37l5-23.5h5.42L110,91.2a1.62,1.62,0,0,1-1.81,1.35Z"/><path class="cls-6" d="M162,108.58,157.67,131l-3.83.08,4.33-22.47-2.71,0,.75-3.83,9.19-.18-.71,3.84Z"/><path class="cls-6" d="M169.71,104.38l4.76-.09a1.94,1.94,0,0,1,1.38.5,1.73,1.73,0,0,1,.58,1.32,2.24,2.24,0,0,1-.06.52l-4.15,21.59a3.07,3.07,0,0,1-2.85,2.43l-4.76.09a1.89,1.89,0,0,1-1.38-.47,1.69,1.69,0,0,1-.58-1.31,2.2,2.2,0,0,1,0-.56l4.15-21.58a3.08,3.08,0,0,1,1-1.72A2.89,2.89,0,0,1,169.71,104.38Zm.64,2.73-4,20.8,2.42,0,4-20.8Z"/><path class="cls-6" d="M181.42,124.55l-1.13,5.76-3.79.07,1.13-5.76-1.76,0a.66.66,0,0,1-.77-.73,2.18,2.18,0,0,1,.06-.49l3.64-19.09,3.8-.08-3.22,16.54,1.66,0,3.22-16.54,3.8-.07-3.73,19.38a1.13,1.13,0,0,1-1.25,1Z"/><path class="cls-6" d="M199.87,105.07l-.88,4.59-3.8.07.53-2.79a1.69,1.69,0,0,0-1-.33,2.28,2.28,0,0,0-1.19.38l-1,5,4.77.82c.57.09.85.36.86.79a3.42,3.42,0,0,1-.06.66L195.27,129c-.14.67-.93,1.19-2.38,1.54a13,13,0,0,1-2.93.39,11.85,11.85,0,0,1-2.78-.24c-1.27-.33-1.82-.87-1.66-1.64l1.6-8.35,3.76-.07-1.3,6.82a1.91,1.91,0,0,0,1,.3,2.7,2.7,0,0,0,1.2-.35L194,116.15l-4.84-.83a.94.94,0,0,1-.75-.93,1.5,1.5,0,0,1,0-.35l1.66-8.68c.14-.72.92-1.28,2.35-1.68a12.75,12.75,0,0,1,3-.51,9.7,9.7,0,0,1,2.78.27C199.46,103.76,200,104.31,199.87,105.07Z"/></svg>