<svg id="close_icon_svg" data-name="close_icon_svg" xmlns="http://www.w3.org/2000/svg" viewBox="0 0 25 25"><defs><style>.cls-1{fill:#333;}.cls-2{fill:#666;}</style></defs><title>close_icon</title><path class="cls-1" d="M12.5,2A10.5,10.5,0,1,1,2,12.5,10.51,10.51,0,0,1,12.5,2m0-2A12.5,12.5,0,1,0,25,12.5,12.5,12.5,0,0,0,12.5,0Z"/><path class="cls-2" d="M13.91,12.5l5-5a1,1,0,1,0-1.42-1.42l-5,5-5-5A1,1,0,1,0,6.06,7.48l5,5-5,5a1,1,0,0,0,0,1.42,1,1,0,0,0,1.42,0l5-5,5,5a1,1,0,0,0,1.42,0,1,1,0,0,0,0-1.42Z"/></svg>