<svg id="coffee_mug_icon_svg" data-name="coffee_mug_icon_svg" xmlns="http://www.w3.org/2000/svg" viewBox="0 0 24 24"><defs><style>.cls-1{fill:#999;}.cls-2{fill:#e6e6e6;}.cls-3{fill:#f2f2f2;}.cls-4{fill:#42210b;}.cls-5{fill:#c69c6d;}</style></defs><title>coffee_mug_icon_svg copia</title><path class="cls-1" d="M8.62,10.93H9.5L6.48.34A.41.41,0,0,0,6,.05a.43.43,0,0,0-.29.52Z"/><path class="cls-2" d="M8,8.43H4A2.78,2.78,0,0,0,1.19,11.2v6.93A2.78,2.78,0,0,0,4,20.9H8a2.78,2.78,0,0,0,2.77-2.77V11.2A2.78,2.78,0,0,0,8,8.43Zm1.38,9.7A1.38,1.38,0,0,1,8,19.51H4a1.38,1.38,0,0,1-1.39-1.38V11.2A1.38,1.38,0,0,1,4,9.82H8A1.38,1.38,0,0,1,9.37,11.2Z"/><path class="cls-3" d="M6.75,5.19H21.27a1.55,1.55,0,0,1,1.55,1.55v16a.73.73,0,0,1-.73.73H5.93a.73.73,0,0,1-.73-.73v-16A1.55,1.55,0,0,1,6.75,5.19Z"/><rect class="cls-4" x="5.2" y="7.42" width="17.61" height="13.74"/><path class="cls-5" d="M10.07,15.83a4.6,4.6,0,0,1-.92.1,1.67,1.67,0,0,1-.66-.11.83.83,0,0,1-.39-.35,1.38,1.38,0,0,1-.19-.55,4,4,0,0,1-.06-.76,4.26,4.26,0,0,1,.06-.78,1.44,1.44,0,0,1,.19-.55.86.86,0,0,1,.38-.35,1.73,1.73,0,0,1,.65-.11,5,5,0,0,1,.94.11v.33a5.25,5.25,0,0,0-.9-.09.77.77,0,0,0-.73.32,2.53,2.53,0,0,0-.18,1.12,3.67,3.67,0,0,0,0,.64,1.43,1.43,0,0,0,.12.43.56.56,0,0,0,.28.27,1.25,1.25,0,0,0,.54.09,4.63,4.63,0,0,0,.83-.09Z"/><path class="cls-5" d="M10.48,14.63a1.6,1.6,0,0,1,.24-1,1,1,0,0,1,.83-.31,1,1,0,0,1,.83.31,1.6,1.6,0,0,1,.24,1,1.7,1.7,0,0,1-.23,1,1,1,0,0,1-.84.31,1,1,0,0,1-.84-.31A1.62,1.62,0,0,1,10.48,14.63Zm.38,0a1.59,1.59,0,0,0,.14.77.6.6,0,0,0,.55.22.6.6,0,0,0,.55-.22,1.59,1.59,0,0,0,.13-.77,1.52,1.52,0,0,0-.14-.76.65.65,0,0,0-.54-.2.65.65,0,0,0-.54.2A1.38,1.38,0,0,0,10.86,14.62Z"/><path class="cls-5" d="M13.71,13.71v2.17h-.38V13.71H13v-.33h.31v-.22a1.26,1.26,0,0,1,.15-.73.67.67,0,0,1,.53-.19l.5,0v.31h-.46a.28.28,0,0,0-.26.12.83.83,0,0,0-.08.46v.22h.72v.33Z"/><path class="cls-5" d="M15.36,13.71v2.17H15V13.71h-.32v-.33H15v-.22a1.26,1.26,0,0,1,.15-.73.64.64,0,0,1,.52-.19l.51,0v.31H15.7a.29.29,0,0,0-.26.12.94.94,0,0,0-.08.46v.22h.73v.33Z"/><path class="cls-5" d="M18.19,15.57h.15v.29a6.3,6.3,0,0,1-1,.08.86.86,0,0,1-.76-.31,1.67,1.67,0,0,1-.23-1q0-1.32,1.05-1.32a1,1,0,0,1,.75.28,1.31,1.31,0,0,1,.25.89l0,.29H16.76a1,1,0,0,0,.15.61.61.61,0,0,0,.53.2Zm-.13-1.08a1.05,1.05,0,0,0-.15-.65.57.57,0,0,0-.48-.19.6.6,0,0,0-.5.2,1,1,0,0,0-.17.64Z"/><path class="cls-5" d="M20.72,15.57h.14v.29a6.18,6.18,0,0,1-1,.08.88.88,0,0,1-.77-.31,1.68,1.68,0,0,1-.22-1c0-.88.35-1.32,1-1.32a1,1,0,0,1,.76.28,1.37,1.37,0,0,1,.25.89l0,.29H19.29a1,1,0,0,0,.15.61.59.59,0,0,0,.52.2Zm-.14-1.08a1.14,1.14,0,0,0-.14-.65.57.57,0,0,0-.48-.19.58.58,0,0,0-.5.2,1,1,0,0,0-.18.64Z"/></svg>