<svg id="degree_icon" data-name="degree_icon" xmlns="http://www.w3.org/2000/svg" viewBox="0 0 50 50"><defs><style>.cls-1{fill:#fff;}.cls-2{fill:#963;}.cls-3{fill:#633;}</style></defs><title>degree_icon</title><rect x="15.89" y="1.77" width="18.21" height="14.41" rx="1.48"/><rect class="cls-1" x="18.04" y="4.24" width="13.92" height="11.01" rx="0.79"/><rect class="cls-2" y="8.98" width="50" height="39.55" rx="1.46"/><path class="cls-3" d="M44.73,46.23H5.27A2.73,2.73,0,0,1,2.55,43.5V14a2.73,2.73,0,0,1,2.72-2.73H44.73A2.73,2.73,0,0,1,47.45,14V43.5A2.73,2.73,0,0,1,44.73,46.23ZM5.27,12.47A1.53,1.53,0,0,0,3.74,14V43.5A1.54,1.54,0,0,0,5.27,45H44.73a1.54,1.54,0,0,0,1.53-1.53V14a1.53,1.53,0,0,0-1.53-1.53Z"/></svg>