<svg id="Capa_1" data-name="Capa 1" xmlns="http://www.w3.org/2000/svg" viewBox="0 0 25 4.23"><defs><style>.cls-1{fill:red;}</style></defs><title>menu_icon</title><path class="cls-1" d="M0,2.14A2.37,2.37,0,0,1,.47.49,2.25,2.25,0,0,1,2.14,0,2.31,2.31,0,0,1,3.85.49a2.37,2.37,0,0,1,.47,1.65,2.26,2.26,0,0,1-.47,1.62,2.41,2.41,0,0,1-1.71.47A2.35,2.35,0,0,1,.47,3.76,2.26,2.26,0,0,1,0,2.14Z"/><path class="cls-1" d="M20.68,2.14A2.37,2.37,0,0,1,21.15.49,2.25,2.25,0,0,1,22.82,0a2.31,2.31,0,0,1,1.71.49A2.37,2.37,0,0,1,25,2.14a2.26,2.26,0,0,1-.47,1.62,2.41,2.41,0,0,1-1.71.47,2.35,2.35,0,0,1-1.67-.47A2.26,2.26,0,0,1,20.68,2.14Z"/><path class="cls-1" d="M10.34,2.14A2.37,2.37,0,0,1,10.81.49,2.25,2.25,0,0,1,12.48,0a2.31,2.31,0,0,1,1.71.49,2.37,2.37,0,0,1,.47,1.65,2.26,2.26,0,0,1-.47,1.62,2.41,2.41,0,0,1-1.71.47,2.35,2.35,0,0,1-1.67-.47A2.26,2.26,0,0,1,10.34,2.14Z"/></svg>