<svg id="Capa_1" data-name="Capa 1" xmlns="http://www.w3.org/2000/svg" viewBox="0 0 24 24"><defs><style>.cls-1{fill:#999;}.cls-2{fill:#f2f2f2;}.cls-3{fill:#2e0a76;}.cls-4{fill:#177a99;}.cls-5{fill:#a5a5a5;}.cls-6{fill:#4d4d4d;}.cls-7{fill:#bc1344;}.cls-8{fill:#999917;}.cls-9{fill:#ff931e;}</style></defs><title>mug_icon_svg</title><path class="cls-1" d="M8.62,10.93H9.5L6.48.34A.41.41,0,0,0,6,.05a.43.43,0,0,0-.29.52Z"/><path class="cls-2" d="M8,8.43H4A2.78,2.78,0,0,0,1.19,11.2v6.93A2.78,2.78,0,0,0,4,20.9H8a2.78,2.78,0,0,0,2.77-2.77V11.2A2.78,2.78,0,0,0,8,8.43Zm1.38,9.7A1.38,1.38,0,0,1,8,19.51H4a1.38,1.38,0,0,1-1.39-1.38V11.2A1.38,1.38,0,0,1,4,9.82H8A1.38,1.38,0,0,1,9.37,11.2Z"/><path class="cls-2" d="M6.75,5.19H21.27a1.55,1.55,0,0,1,1.55,1.55v16a.73.73,0,0,1-.73.73H5.93a.73.73,0,0,1-.73-.73v-16A1.55,1.55,0,0,1,6.75,5.19Z"/><path class="cls-3" d="M7.05,8.34h.08l.11.49h0l.13-.48h.09l.13.48h0l.12-.49h.08L7.7,8.9H7.56l-.12-.44-.12.44H7.18Z"/><path class="cls-3" d="M8,8.9H8V8.1H8v.27a.38.38,0,0,1,.17,0q.12,0,.15.06a.37.37,0,0,1,0,.21v.3H8.31V8.61a.3.3,0,0,0,0-.16s0,0-.09,0a.32.32,0,0,0-.14,0H8Z"/><path class="cls-3" d="M8.55,8.21V8.12h.08v.09Zm0,.69V8.34h.08V8.9Z"/><path class="cls-3" d="M8.8,8.9V8.1h.08v.8Z"/><path class="cls-3" d="M9.43,8.83h0v.06a.94.94,0,0,1-.22,0,.18.18,0,0,1-.17-.07A.34.34,0,0,1,9,8.62c0-.19.07-.29.23-.29a.24.24,0,0,1,.17.06.28.28,0,0,1,.05.2v.06H9.11a.24.24,0,0,0,0,.14.17.17,0,0,0,.12.05Zm0-.24a.28.28,0,0,0,0-.15.17.17,0,0,0-.22,0,.21.21,0,0,0,0,.15Z"/><path class="cls-4" d="M10,9a1.28,1.28,0,0,1-.11-.48,1,1,0,0,1,0-.23,1.67,1.67,0,0,1,.06-.2l0-.07H10a2.5,2.5,0,0,0-.08.25,1.49,1.49,0,0,0,0,.25.89.89,0,0,0,0,.22A.74.74,0,0,0,10,9L10,9Z"/><path d="M10.1,8.34h.09l.11.49h0l.13-.48h.09l.13.48h0l.11-.49h.09l-.13.56h-.14l-.12-.44-.12.44h-.14Z"/><path d="M11,8.62A.32.32,0,0,1,11,8.4a.21.21,0,0,1,.18-.07.22.22,0,0,1,.19.07.4.4,0,0,1,0,.22.33.33,0,0,1,0,.22.21.21,0,0,1-.19.07c-.09,0-.15,0-.18-.07A.32.32,0,0,1,11,8.62Zm.09,0a.34.34,0,0,0,0,.17.14.14,0,0,0,.12.05.14.14,0,0,0,.13-.05.34.34,0,0,0,0-.17.25.25,0,0,0,0-.17.14.14,0,0,0-.12,0,.17.17,0,0,0-.12,0A.34.34,0,0,0,11.06,8.62Z"/><path d="M11.59,8.9V8.34h.08v.08a.48.48,0,0,1,.21-.09v.08l-.1,0-.08,0,0,0V8.9Z"/><path d="M12.06,8.9H12V8.1h.08v.47h.09l.16-.23h.09l-.18.26.19.3h-.09l-.17-.26h-.09Z"/><path d="M12.51,8.21V8.12h.09v.09Zm0,.69V8.34h.09V8.9Z"/><path d="M12.84,8.9h-.08V8.34h.08v0A.41.41,0,0,1,13,8.33a.18.18,0,0,1,.16.06.51.51,0,0,1,0,.21v.3h-.08V8.61a.51.51,0,0,0,0-.16.11.11,0,0,0-.1,0h-.08l-.06,0h0Z"/><path d="M13.58,9.16a.41.41,0,0,1-.19,0s-.05-.07-.05-.14a.08.08,0,0,1,0-.07l.06-.06a.1.1,0,0,1,0-.08.17.17,0,0,1,0-.07v0a.17.17,0,0,1-.09-.17c0-.13.07-.19.21-.19h.28v.07h-.1a.16.16,0,0,1,0,.11.17.17,0,0,1,0,.15.24.24,0,0,1-.16,0h-.06l0,.06s0,0,0,0h.13a.32.32,0,0,1,.16,0,.18.18,0,0,1,0,.14C13.82,9.1,13.74,9.16,13.58,9.16ZM13.42,9a.1.1,0,0,0,0,.08l.12,0,.13,0a.09.09,0,0,0,0-.08s0-.07,0-.08a.23.23,0,0,0-.11,0h-.12l-.05,0A.07.07,0,0,0,13.42,9Zm0-.47s0,.08,0,.09a.12.12,0,0,0,.09,0,.13.13,0,0,0,.1,0s0,0,0-.09,0-.08,0-.09a.13.13,0,0,0-.1,0,.12.12,0,0,0-.09,0S13.43,8.48,13.43,8.52Z"/><path class="cls-4" d="M14.08,8.42a.81.81,0,0,1,0,.16.88.88,0,0,1,0,.21A1.06,1.06,0,0,1,14,9L14,9H13.9A1.84,1.84,0,0,0,14,8.8a1.12,1.12,0,0,0,0-.24,2,2,0,0,0,0-.22,1.67,1.67,0,0,0-.06-.2l0-.08H14A1.36,1.36,0,0,1,14.08,8.42Z"/><path class="cls-4" d="M14.62,8.26v.13s0,.09,0,.11a.19.19,0,0,1-.09.05.19.19,0,0,1,.09,0,.18.18,0,0,1,0,.11v.13a.2.2,0,0,0,0,.09.12.12,0,0,0,.11,0V9a.23.23,0,0,1-.16,0,.2.2,0,0,1,0-.14V8.71a.1.1,0,0,0-.12-.12V8.52a.19.19,0,0,0,.1,0,.15.15,0,0,0,0-.08V8.25a.21.21,0,0,1,0-.15.3.3,0,0,1,.16,0v.08a.16.16,0,0,0-.11,0A.22.22,0,0,0,14.62,8.26Z"/><path d="M8.29,9.67l.12,0h0v.07H8.3a.17.17,0,0,0-.13,0,.5.5,0,0,0,0,.34.16.16,0,0,0,.13,0h.14v.07H8.28a.24.24,0,0,1-.18-.06.44.44,0,0,1,0-.23.3.3,0,0,1,.06-.22C8.14,9.69,8.2,9.67,8.29,9.67Z"/><path d="M8.53,10a.34.34,0,0,1,.06-.22.25.25,0,0,1,.18-.07A.26.26,0,0,1,9,9.74.34.34,0,0,1,9,10a.37.37,0,0,1,0,.23.24.24,0,0,1-.19.06.22.22,0,0,1-.18-.06A.37.37,0,0,1,8.53,10Zm.09,0a.34.34,0,0,0,0,.17s.06,0,.12,0,.11,0,.13,0a.34.34,0,0,0,0-.17.25.25,0,0,0,0-.17s-.06,0-.12,0a.16.16,0,0,0-.12,0A.34.34,0,0,0,8.62,10Z"/><path d="M9.26,9.76v.48H9.17V9.76H9.1V9.68h.07v0a.22.22,0,0,1,0-.16.12.12,0,0,1,.11,0h.12v.07H9.33l-.06,0a.25.25,0,0,0,0,.1v0h.16v.08Z"/><path d="M9.63,9.76v.48H9.54V9.76H9.47V9.68h.07v0a.28.28,0,0,1,0-.16s.06,0,.12,0h.11v.07H9.7a.05.05,0,0,0,0,0s0,.05,0,.1v0h.16v.08Z"/><path d="M10.26,10.17h0v.07h-.22a.18.18,0,0,1-.17-.07A.3.3,0,0,1,9.86,10c0-.2.07-.3.23-.3a.19.19,0,0,1,.17.07.25.25,0,0,1,.06.19V10H9.94a.26.26,0,0,0,0,.14.16.16,0,0,0,.12,0Zm0-.24a.22.22,0,0,0,0-.14.15.15,0,0,0-.22,0,.2.2,0,0,0,0,.14Z"/><path d="M10.83,10.17h0v.07h-.22a.19.19,0,0,1-.17-.07.36.36,0,0,1-.05-.21q0-.3.24-.3a.18.18,0,0,1,.16.07.25.25,0,0,1,.06.19V10h-.37a.26.26,0,0,0,0,.14s.06,0,.12,0Zm0-.24c0-.07,0-.12,0-.14a.11.11,0,0,0-.1,0,.17.17,0,0,0-.12,0,.26.26,0,0,0,0,.14Z"/><path class="cls-5" d="M11,10.24v-.12h.09v.12Z"/><path class="cls-5" d="M11.68,9.44v.8H11.6v0a.35.35,0,0,1-.17,0h-.08s0,0-.06,0a.3.3,0,0,1-.06-.22.48.48,0,0,1,0-.24.25.25,0,0,1,.18-.07l.14,0V9.44Zm-.29.73h.13l.06,0h0V9.76h-.13c-.06,0-.1,0-.12.05a.37.37,0,0,0,0,.17.34.34,0,0,0,0,.17Z"/><path class="cls-5" d="M11.85,10.24V9.68h.08v.08a.72.72,0,0,1,.2-.09v.09l-.09,0-.08,0h0v.41Z"/><path class="cls-5" d="M12.23,9.56v-.1h.09v.1Zm0,.68V9.68h.09v.56Z"/><path class="cls-5" d="M12.56,10.24h-.08V9.68h.08v0a.41.41,0,0,1,.17-.05.18.18,0,0,1,.16.06.54.54,0,0,1,0,.22v.29h-.08V10a.51.51,0,0,0,0-.16.11.11,0,0,0-.1,0h-.08l-.06,0h0Z"/><path class="cls-5" d="M13.16,10.24h-.08v-.8h.08v.47h.09l.16-.23h.1l-.19.26.19.3h-.09L13.25,10h-.09Z"/><path class="cls-6" d="M13.71,10.38a1.13,1.13,0,0,1-.12-.47,1.05,1.05,0,0,1,0-.24,1.08,1.08,0,0,1,.06-.19l0-.08h.08a1.38,1.38,0,0,0-.07.26.85.85,0,0,0,0,.25.88.88,0,0,0,0,.21c0,.08,0,.14,0,.19l0,.07Z"/><path class="cls-6" d="M14.06,9.76a.91.91,0,0,1,0,.17.88.88,0,0,1,0,.2,1.45,1.45,0,0,1-.06.19l0,.06h-.08a.9.9,0,0,0,.07-.23.85.85,0,0,0,0-.24,1,1,0,0,0,0-.23,1.93,1.93,0,0,0,0-.2l0-.08H14A1.5,1.5,0,0,1,14.06,9.76Z"/><path d="M14.23,10.12h.09l-.07.26h-.07Zm0-.24V9.76h.09v.12Z"/><path d="M8,11h.09l.11.48h0L8.38,11h.09l.13.47h0L8.73,11h.09l-.14.56H8.54l-.12-.44-.12.44H8.16Z"/><path d="M8.9,11.31a.44.44,0,0,1,0-.23.33.33,0,0,1,.38,0,.44.44,0,0,1,.05.23.42.42,0,0,1-.05.22.29.29,0,0,1-.38,0A.42.42,0,0,1,8.9,11.31Zm.09,0a.39.39,0,0,0,0,.18.17.17,0,0,0,.24,0,.37.37,0,0,0,0-.17.32.32,0,0,0,0-.17s-.06-.05-.12-.05-.1,0-.12.05A.3.3,0,0,0,9,11.3Z"/><path d="M9.52,11.59V11H9.6v.07A.5.5,0,0,1,9.8,11v.08l-.09,0-.08,0,0,0v.41Z"/><path d="M10,11.59H9.9v-.81H10v.48h.08l.16-.22h.1l-.18.25.19.31h-.1l-.16-.26H10Z"/><path class="cls-5" d="M10.43,11.59v-.13h.1v.13Z"/><path class="cls-5" d="M11.06,11.52h0v.07l-.22,0a.18.18,0,0,1-.17-.07.34.34,0,0,1-.05-.22c0-.2.07-.29.23-.29a.22.22,0,0,1,.17.06.28.28,0,0,1,.06.2v.06h-.37a.2.2,0,0,0,0,.14.12.12,0,0,0,.11,0Zm0-.25a.26.26,0,0,0,0-.14.17.17,0,0,0-.22,0,.2.2,0,0,0,0,.14Z"/><path class="cls-5" d="M11.19,11h.09l.13.22.14-.22h.09l-.17.28.17.28h-.09l-.14-.22-.13.22h-.09l.17-.28Z"/><path class="cls-5" d="M12.12,11.52h0v.07l-.22,0a.18.18,0,0,1-.17-.07.42.42,0,0,1,0-.22c0-.2.08-.29.23-.29a.21.21,0,0,1,.17.06.28.28,0,0,1,.06.2v.06H11.8a.26.26,0,0,0,0,.14s.06,0,.12,0Zm0-.25a.26.26,0,0,0,0-.14.12.12,0,0,0-.1,0,.16.16,0,0,0-.12,0,.39.39,0,0,0,0,.14Z"/><path class="cls-5" d="M12.51,11h.15v.07h-.13a.14.14,0,0,0-.13.05.22.22,0,0,0,0,.16.28.28,0,0,0,0,.18s.06,0,.13,0h.13v.07l-.15,0c-.09,0-.15,0-.18-.07a.34.34,0,0,1-.05-.23.33.33,0,0,1,.05-.22A.24.24,0,0,1,12.51,11Z"/><path class="cls-5" d="M13.14,11h.08v.56h-.08v0a.37.37,0,0,1-.17,0,.18.18,0,0,1-.15-.06.5.5,0,0,1,0-.22V11h.09v.29a.32.32,0,0,0,0,.16s0,0,.09,0h.08l.06,0h0Z"/><path class="cls-5" d="M13.67,11.1H13.5v.27a.35.35,0,0,0,0,.12s0,0,.07,0h.1v.07h-.11c-.06,0-.1,0-.12,0a.25.25,0,0,1,0-.17V11.1h-.08V11h.08v-.17h.09V11h.17Z"/><path class="cls-5" d="M14.16,11.52h0v.07l-.22,0a.19.19,0,0,1-.17-.07.42.42,0,0,1-.05-.22c0-.2.08-.29.24-.29a.2.2,0,0,1,.16.06.28.28,0,0,1,.06.2v.06h-.37a.26.26,0,0,0,0,.14s.06,0,.12,0Zm0-.25a.2.2,0,0,0,0-.14.11.11,0,0,0-.1,0,.16.16,0,0,0-.12,0,.26.26,0,0,0,0,.14Z"/><path class="cls-6" d="M14.43,11.73a1.37,1.37,0,0,1-.11-.48,1,1,0,0,1,0-.23,1.24,1.24,0,0,1,.06-.2l0-.07h.09a1.23,1.23,0,0,0-.08.25,1.38,1.38,0,0,0,0,.25.82.82,0,0,0,0,.21.83.83,0,0,0,.05.2l0,.07Z"/><path class="cls-6" d="M14.78,11.1a1,1,0,0,1,0,.17.88.88,0,0,1,0,.21.93.93,0,0,1-.06.18l0,.07H14.6a1.84,1.84,0,0,0,.07-.24,1.29,1.29,0,0,0,0-.24.9.9,0,0,0,0-.22,1.24,1.24,0,0,0-.06-.2l0-.08h.08A1.4,1.4,0,0,1,14.78,11.1Z"/><path d="M15,11.47h.09l-.07.25h-.07Zm0-.24V11.1H15v.13Z"/><path class="cls-3" d="M8.08,12.24v-.09h.08v.09Zm0,.69v-.56h.08v.56Z"/><path class="cls-3" d="M8.43,12.44v.49H8.35v-.49H8.28v-.07h.07v0a.3.3,0,0,1,0-.16s.06,0,.12,0h.11v.07h-.1a.06.06,0,0,0-.06,0,.22.22,0,0,0,0,.1v0h.16v.07Z"/><path class="cls-7" d="M9,13.07a1.11,1.11,0,0,1-.11-.48,2,2,0,0,1,0-.23,1.67,1.67,0,0,1,.06-.2l0-.07h.08a2.3,2.3,0,0,0-.07.26,1.29,1.29,0,0,0,0,.24,1.8,1.8,0,0,0,0,.22,1.45,1.45,0,0,0,.06.19l0,.07Z"/><path d="M9.69,12.36h.15v.06H9.71a.14.14,0,0,0-.13.05.32.32,0,0,0,0,.17.25.25,0,0,0,0,.17.14.14,0,0,0,.13,0h.13v.07H9.69c-.09,0-.15,0-.18-.07a.33.33,0,0,1,0-.22.44.44,0,0,1,0-.23A.24.24,0,0,1,9.69,12.36Z"/><path d="M9.94,12.65a.4.4,0,0,1,.05-.22.22.22,0,0,1,.19-.07.2.2,0,0,1,.18.07.32.32,0,0,1,.06.22.4.4,0,0,1-.05.22.22.22,0,0,1-.19.07.21.21,0,0,1-.19-.07A.4.4,0,0,1,9.94,12.65Zm.08,0a.34.34,0,0,0,0,.17.14.14,0,0,0,.13,0,.14.14,0,0,0,.12,0,.5.5,0,0,0,0-.34.17.17,0,0,0-.24,0A.32.32,0,0,0,10,12.65Z"/><path d="M10.66,12.44v.49h-.08v-.49h-.07v-.07h.07v0a.3.3,0,0,1,0-.16s.06,0,.12,0h.11v.07h-.1a.06.06,0,0,0-.06,0,.22.22,0,0,0,0,.1v0h.16v.07Z"/><path d="M11,12.44v.49H11v-.49h-.07v-.07H11v0a.3.3,0,0,1,0-.16s.06,0,.12,0h.11v.07h-.1a.06.06,0,0,0-.06,0,.22.22,0,0,0,0,.1v0h.16v.07Z"/><path d="M11.67,12.86h0v.06a.9.9,0,0,1-.22,0,.18.18,0,0,1-.17-.07.4.4,0,0,1-.05-.22c0-.19.08-.29.23-.29a.21.21,0,0,1,.17.06.3.3,0,0,1,.06.2v.07h-.36a.23.23,0,0,0,0,.13.14.14,0,0,0,.12,0Zm0-.24a.27.27,0,0,0,0-.15.12.12,0,0,0-.11,0,.16.16,0,0,0-.11.05.21.21,0,0,0,0,.14Z"/><path d="M12.23,12.86h0v.06a.94.94,0,0,1-.22,0,.18.18,0,0,1-.17-.07.33.33,0,0,1-.05-.22c0-.19.07-.29.23-.29a.24.24,0,0,1,.17.06.3.3,0,0,1,0,.2v.07h-.37a.23.23,0,0,0,0,.13.17.17,0,0,0,.12,0Zm0-.24a.28.28,0,0,0,0-.15.12.12,0,0,0-.11,0,.13.13,0,0,0-.11.05s0,.07,0,.14Z"/><path class="cls-8" d="M12.65,12.58v-.07h.49v.07Zm0,.21v-.08h.49v.08Z"/><path class="cls-8" d="M13.28,12.58v-.07h.48v.07Zm0,.21v-.08h.48v.08Z"/><path class="cls-8" d="M13.91,12.58v-.07h.48v.07Zm0,.21v-.08h.48v.08Z"/><path class="cls-9" d="M14.9,12.14l-.05.24h-.08l.07-.24Zm.17,0,0,.24h-.09l.07-.24Z"/><path class="cls-9" d="M15.57,12.86h0v.06a.94.94,0,0,1-.22,0,.18.18,0,0,1-.17-.07.4.4,0,0,1-.05-.22c0-.19.08-.29.23-.29a.21.21,0,0,1,.17.06.3.3,0,0,1,.06.2v.07h-.36a.23.23,0,0,0,0,.13.14.14,0,0,0,.12,0Zm0-.24a.27.27,0,0,0,0-.15.12.12,0,0,0-.11,0,.14.14,0,0,0-.11.05.21.21,0,0,0,0,.14Z"/><path class="cls-9" d="M15.83,12.93h-.08v-.56h.08v0a.37.37,0,0,1,.17-.05.16.16,0,0,1,.14.06l.1,0,.1,0q.12,0,.15.06a.39.39,0,0,1,0,.22v.29h-.08v-.29a.3.3,0,0,0,0-.16s0-.05-.09-.05l-.08,0-.06,0h0a.47.47,0,0,1,0,.16v.29H16.1v-.29a.51.51,0,0,0,0-.16.1.1,0,0,0-.1-.05l-.07,0-.06,0h0Z"/><path class="cls-9" d="M16.69,13.18v-.81h.08v0a.37.37,0,0,1,.17-.05.16.16,0,0,1,.15.07.4.4,0,0,1,.05.22.32.32,0,0,1-.06.22.2.2,0,0,1-.18.07h-.13v.25Zm.23-.75-.07,0-.06,0h0v.38h.12a.17.17,0,0,0,.13,0,.5.5,0,0,0,0-.34A.11.11,0,0,0,16.92,12.43Z"/><path class="cls-9" d="M17.56,12.44h-.18v.27a.31.31,0,0,0,0,.13s0,0,.07,0h.1v.07h-.11c-.06,0-.1,0-.12,0a.22.22,0,0,1,0-.16v-.3h-.08v-.07h.08V12.2h.08v.17h.18Z"/><path class="cls-9" d="M17.61,12.37h.09l.14.49h0l.15-.49h.08l-.23.81h-.09l.08-.25h-.09Z"/><path class="cls-9" d="M18.19,12.38l0-.24h.09l-.07.24Zm.17,0,.05-.24h.09l-.07.24Z"/><path class="cls-7" d="M18.77,12.45a.7.7,0,0,1,0,.37.93.93,0,0,1-.06.18l0,.07h-.08a2.19,2.19,0,0,0,.07-.23,1.41,1.41,0,0,0,0-.25,1,1,0,0,0,0-.22c0-.08,0-.15-.05-.2l0-.08h.08A1.36,1.36,0,0,1,18.77,12.45Z"/><path class="cls-7" d="M19.31,12.29v.13a.16.16,0,0,1,0,.11.13.13,0,0,1-.09.05q.07,0,.09.06a.13.13,0,0,1,0,.1v.13a.12.12,0,0,0,0,.09.11.11,0,0,0,.1,0v.07a.22.22,0,0,1-.16-.05s-.05-.07-.05-.14v-.14a.11.11,0,0,0,0-.08.19.19,0,0,0-.09,0v-.07a.19.19,0,0,0,.09-.05.09.09,0,0,0,0-.07v-.15a.17.17,0,0,1,.05-.15.22.22,0,0,1,.16,0v.07a.13.13,0,0,0-.1,0A.15.15,0,0,0,19.31,12.29Z"/><path class="cls-3" d="M9.06,13.59v-.1h.09v.1Zm0,.68v-.56h.09v.56Z"/><path class="cls-3" d="M9.41,13.79v.48H9.33v-.48H9.26v-.08h.07v-.05a.32.32,0,0,1,0-.16.16.16,0,0,1,.12,0H9.6v.07h-.1a.06.06,0,0,0-.06,0,.23.23,0,0,0,0,.11v0h.17v.08Z"/><path class="cls-6" d="M10,14.41a1,1,0,0,1-.09-.71,1.08,1.08,0,0,1,.06-.19l0-.08h.08a1.38,1.38,0,0,0-.07.26.85.85,0,0,0,0,.25.88.88,0,0,0,0,.21,1.67,1.67,0,0,0,.05.19l0,.07Z"/><path d="M10.41,13.7l.12,0h0v.07h-.13c-.07,0-.11,0-.13,0a.25.25,0,0,0,0,.17.34.34,0,0,0,0,.17.18.18,0,0,0,.14.05h.13v.07l-.15,0a.22.22,0,0,1-.18-.07.36.36,0,0,1-.05-.23.33.33,0,0,1,.05-.22A.21.21,0,0,1,10.41,13.7Z"/><path d="M10.66,14a.34.34,0,0,1,.05-.22.26.26,0,0,1,.19-.07.23.23,0,0,1,.18.07.34.34,0,0,1,.06.22.35.35,0,0,1-.06.23.22.22,0,0,1-.18.07.24.24,0,0,1-.19-.07A.36.36,0,0,1,10.66,14Zm.08,0a.34.34,0,0,0,0,.17s.06.05.13.05.1,0,.12-.05a.5.5,0,0,0,0-.34s-.06,0-.12,0-.1,0-.12,0A.25.25,0,0,0,10.74,14Z"/><path d="M11.38,13.79v.48H11.3v-.48h-.07v-.08h.07v-.05a.32.32,0,0,1,0-.16s.06,0,.12,0h.11v.07h-.1a.06.06,0,0,0-.06,0,.23.23,0,0,0,0,.11v0h.16v.08Z"/><path d="M11.75,13.79v.48h-.08v-.48H11.6v-.08h.07v-.05a.32.32,0,0,1,0-.16s.06,0,.12,0h.11v.07h-.1a.06.06,0,0,0-.06,0,.23.23,0,0,0,0,.11v0h.16v.08Z"/><path d="M12.38,14.21h0v.07l-.22,0a.21.21,0,0,1-.17-.07A.42.42,0,0,1,12,14c0-.2.08-.3.23-.3a.19.19,0,0,1,.17.07.28.28,0,0,1,.06.2V14h-.37a.26.26,0,0,0,0,.14.12.12,0,0,0,.11,0Zm0-.25a.22.22,0,0,0,0-.14.13.13,0,0,0-.11-.05.14.14,0,0,0-.11.05.26.26,0,0,0,0,.14Z"/><path d="M13,14.21h0v.07l-.21,0a.25.25,0,0,1-.18-.07.42.42,0,0,1-.05-.22q0-.3.24-.3a.21.21,0,0,1,.17.07A.34.34,0,0,1,13,14V14h-.37a.26.26,0,0,0,0,.14.15.15,0,0,0,.12,0Zm0-.25a.22.22,0,0,0,0-.14.14.14,0,0,0-.11-.05.13.13,0,0,0-.11.05.2.2,0,0,0,0,.14Z"/><path d="M13.43,14h-.19v.26h-.09V13.5h.28a.22.22,0,0,1,.25.25C13.68,13.93,13.6,14,13.43,14Zm-.19-.07h.19c.11,0,.16-.07.16-.19a.17.17,0,0,0,0-.13s-.06,0-.12,0h-.19Z"/><path d="M13.77,14a.42.42,0,0,1,.05-.22A.26.26,0,0,1,14,13.7a.22.22,0,0,1,.18.07.34.34,0,0,1,.06.22.44.44,0,0,1-.05.23.29.29,0,0,1-.38,0A.44.44,0,0,1,13.77,14Zm.09,0a.34.34,0,0,0,0,.17s.06.05.12.05.1,0,.12-.05a.5.5,0,0,0,0-.34s-.06,0-.12,0-.1,0-.12,0A.34.34,0,0,0,13.86,14Z"/><path d="M14.67,13.79h-.18v.27a.29.29,0,0,0,0,.12.06.06,0,0,0,.06,0h.1v.06l-.12,0a.17.17,0,0,1-.12,0,.28.28,0,0,1,0-.16v-.29h-.08v-.08h.08v-.17h.08v.17h.18Z"/><path class="cls-8" d="M15,13.93v-.08h.48v.08Zm0,.21v-.08h.48v.08Z"/><path class="cls-8" d="M15.64,13.93v-.08h.48v.08Zm0,.21v-.08h.48v.08Z"/><path class="cls-8" d="M16.26,13.93v-.08h.49v.08Zm0,.21v-.08h.49v.08Z"/><path class="cls-9" d="M17.26,13.48l-.05.25h-.09l.08-.25Zm.17,0-.05.25H17.3l.07-.25Z"/><path class="cls-9" d="M17.92,14.21h0v.07l-.22,0a.21.21,0,0,1-.17-.07.34.34,0,0,1-.05-.22c0-.2.08-.3.23-.3a.19.19,0,0,1,.17.07A.28.28,0,0,1,18,14V14H17.6a.2.2,0,0,0,0,.14.12.12,0,0,0,.11,0Zm0-.25a.22.22,0,0,0,0-.14.13.13,0,0,0-.11-.05.14.14,0,0,0-.11.05.26.26,0,0,0,0,.14Z"/><path class="cls-9" d="M18.19,14.27h-.08v-.56h.08v0a.37.37,0,0,1,.16-.05.18.18,0,0,1,.15.06l.1,0,.1,0a.18.18,0,0,1,.15.06.41.41,0,0,1,0,.22v.29H18.8V14a.32.32,0,0,0,0-.16s0,0-.09,0h-.08l-.06,0h0a.58.58,0,0,1,0,.16v.29h-.08V14a.54.54,0,0,0,0-.17.11.11,0,0,0-.1,0h-.07l-.06,0h0Z"/><path class="cls-9" d="M19,14.52v-.81h.09v0a.33.33,0,0,1,.16-.05.19.19,0,0,1,.16.07.42.42,0,0,1,.05.22.35.35,0,0,1-.06.23.26.26,0,0,1-.19.07l-.12,0v.25Zm.24-.74h-.07l-.06,0h0v.38h.12a.14.14,0,0,0,.13-.05.34.34,0,0,0,0-.17.32.32,0,0,0,0-.16S19.33,13.78,19.28,13.78Z"/><path class="cls-9" d="M19.92,13.79h-.18v.27a.29.29,0,0,0,0,.12.06.06,0,0,0,.06,0h.1v.06l-.12,0a.17.17,0,0,1-.12,0,.28.28,0,0,1,0-.16v-.29h-.08v-.08h.08v-.17h.08v.17h.18Z"/><path class="cls-9" d="M20,13.71h.09l.14.49h0l.14-.49h.09l-.24.81h-.08l.07-.25h-.08Z"/><path class="cls-9" d="M20.54,13.73l.05-.25h.09l-.07.25Zm.18,0,.05-.25h.09l-.07.25Z"/><path class="cls-6" d="M21.13,13.79a.91.91,0,0,1,0,.17,1.68,1.68,0,0,1,0,.2,1.08,1.08,0,0,1-.06.19l0,.06H21a1.63,1.63,0,0,0,.07-.23,1.29,1.29,0,0,0,0-.24.86.86,0,0,0,0-.22,1.42,1.42,0,0,0-.06-.21l0-.08H21A1.48,1.48,0,0,1,21.13,13.79Z"/><path class="cls-6" d="M21.67,13.63v.14a.13.13,0,0,1,0,.1.23.23,0,0,1-.09.06.15.15,0,0,1,.09.05.15.15,0,0,1,0,.1v.13a.13.13,0,0,0,0,.1s.05,0,.1,0v.07a.34.34,0,0,1-.16-.05.21.21,0,0,1,0-.15v-.13s0-.06,0-.08a.19.19,0,0,0-.1,0v-.07a.19.19,0,0,0,.1,0,.11.11,0,0,0,0-.08v-.14a.21.21,0,0,1,0-.15.26.26,0,0,1,.17-.05v.07a.12.12,0,0,0-.1,0A.12.12,0,0,0,21.67,13.63Z"/><path d="M10.26,15.05h.15v.07h-.14a.17.17,0,0,0-.13.05.32.32,0,0,0,0,.17.37.37,0,0,0,0,.17s.07,0,.13,0h.14v.07l-.16,0a.21.21,0,0,1-.18-.07.4.4,0,0,1-.05-.22.33.33,0,0,1,.06-.23A.22.22,0,0,1,10.26,15.05Z"/><path d="M10.5,15.34a.3.3,0,0,1,.06-.22.21.21,0,0,1,.18-.07.22.22,0,0,1,.19.07s.05.11.05.22a.34.34,0,0,1-.05.22.21.21,0,0,1-.19.07c-.09,0-.15,0-.18-.07A.34.34,0,0,1,10.5,15.34Zm.09,0a.37.37,0,0,0,0,.17.14.14,0,0,0,.12.05.14.14,0,0,0,.13-.05.34.34,0,0,0,0-.17c0-.09,0-.14,0-.17a.14.14,0,0,0-.12-.05.17.17,0,0,0-.12.05A.32.32,0,0,0,10.59,15.34Z"/><path d="M11.23,15.13v.49h-.09v-.49h-.07v-.07h.07V15c0-.08,0-.14,0-.16a.13.13,0,0,1,.11,0h.12v.07H11.3l-.06,0a.31.31,0,0,0,0,.11v.05h.16v.07Z"/><path d="M11.6,15.13v.49h-.09v-.49h-.07v-.07h.07V15a.26.26,0,0,1,0-.16.14.14,0,0,1,.12,0h.11v.07h-.11l-.05,0s0,.06,0,.11v.05h.16v.07Z"/><path d="M12.23,15.55h0v.06l-.22,0a.18.18,0,0,1-.17-.07.34.34,0,0,1-.05-.22c0-.19.07-.29.23-.29a.22.22,0,0,1,.17.06.28.28,0,0,1,.06.2v.06h-.37a.2.2,0,0,0,0,.14.13.13,0,0,0,.11.05Zm0-.24a.28.28,0,0,0,0-.15.17.17,0,0,0-.22,0,.21.21,0,0,0,0,.15Z"/><path d="M12.71,15.36h-.19v.26h-.09v-.78h.28a.25.25,0,0,1,.19.06.29.29,0,0,1,.06.19C13,15.27,12.88,15.36,12.71,15.36Zm-.19-.08h.19c.11,0,.16-.06.16-.19a.23.23,0,0,0,0-.13.17.17,0,0,0-.13,0h-.19Z"/><path d="M13.05,15.34a.3.3,0,0,1,.06-.22s.09-.07.18-.07a.22.22,0,0,1,.19.07.37.37,0,0,1,0,.22.42.42,0,0,1,0,.22.29.29,0,0,1-.38,0A.42.42,0,0,1,13.05,15.34Zm.09,0a.37.37,0,0,0,0,.17.14.14,0,0,0,.12.05.16.16,0,0,0,.13-.05.59.59,0,0,0,0-.17.32.32,0,0,0,0-.17.17.17,0,0,0-.24,0A.32.32,0,0,0,13.14,15.34Z"/><path d="M14,15.13h-.18v.27a.35.35,0,0,0,0,.13s0,0,.07,0H14v.07h-.11c-.06,0-.1,0-.12,0a.22.22,0,0,1,0-.16v-.3h-.08v-.07h.08v-.17h.08v.17H14Z"/><path class="cls-5" d="M14.05,15.62v-.13h.09v.13Z"/><path class="cls-5" d="M14.55,15.05a.18.18,0,0,1,.15.06.41.41,0,0,1,.05.23.32.32,0,0,1-.06.22s-.1.07-.21.07H14.3v-.81h.08v.28A.35.35,0,0,1,14.55,15.05Zm-.07.5c.08,0,.12,0,.15-.05a.3.3,0,0,0,0-.16.59.59,0,0,0,0-.17.12.12,0,0,0-.1-.05.35.35,0,0,0-.14,0h0v.4Z"/><path class="cls-5" d="M14.89,15.62v-.56H15v.07a.5.5,0,0,1,.2-.08v.08l-.09,0-.08,0,0,0v.41Z"/><path class="cls-5" d="M15.64,15.55h0v.06l-.22,0a.18.18,0,0,1-.17-.07.34.34,0,0,1,0-.22c0-.19.08-.29.23-.29a.22.22,0,0,1,.17.06.28.28,0,0,1,.06.2v.06h-.37a.2.2,0,0,0,0,.14.13.13,0,0,0,.11.05Zm0-.24a.28.28,0,0,0,0-.15.12.12,0,0,0-.11,0,.14.14,0,0,0-.11,0,.27.27,0,0,0,0,.15Z"/><path class="cls-5" d="M15.78,15.06h.08l.11.49h0l.13-.48h.09l.14.48h0l.12-.49h.08l-.13.56h-.14l-.12-.44-.12.44h-.14Z"/><path class="cls-4" d="M16.77,15.76a1.21,1.21,0,0,1-.12-.48,1,1,0,0,1,0-.23,1.24,1.24,0,0,1,.06-.2l0-.07h.08a1.26,1.26,0,0,0-.07.25.91.91,0,0,0,0,.25,1,1,0,0,0,0,.22c0,.08,0,.14.05.19l0,.07Z"/><path class="cls-4" d="M17.12,15.14a.81.81,0,0,1,0,.16.88.88,0,0,1,0,.21.93.93,0,0,1-.06.18l0,.07h-.08a1,1,0,0,0,.07-.24.85.85,0,0,0,0-.24,1,1,0,0,0,0-.22,1.93,1.93,0,0,0-.05-.2l0-.08H17A1.37,1.37,0,0,1,17.12,15.14Z"/><path d="M17.29,15.5h.09l-.07.26h-.07Zm0-.24v-.13h.1v.13Z"/><path class="cls-6" d="M9.16,16.9v-.13a.22.22,0,0,1,0-.1.2.2,0,0,1,.09-.06.19.19,0,0,1-.09-.05.25.25,0,0,1,0-.1v-.14a.15.15,0,0,0,0-.1.13.13,0,0,0-.1,0v-.07a.23.23,0,0,1,.16.05.18.18,0,0,1,.05.14v.15a.09.09,0,0,0,0,.07.19.19,0,0,0,.09,0v.07a.19.19,0,0,0-.09,0,.11.11,0,0,0,0,.08v.14a.21.21,0,0,1-.05.15.3.3,0,0,1-.16.05V17a.13.13,0,0,0,.1,0A.17.17,0,0,0,9.16,16.9Z"/><path d="M9.27,17.73l.13,0h0v.07H9.29c-.07,0-.11,0-.13,0a.38.38,0,0,0,0,.34s.06,0,.13,0h.13v.07l-.16,0a.22.22,0,0,1-.18-.07A.44.44,0,0,1,9,18a.4.4,0,0,1,.05-.22A.25.25,0,0,1,9.27,17.73Z"/><path d="M9.52,18a.42.42,0,0,1,.05-.22.26.26,0,0,1,.19-.07.22.22,0,0,1,.18.07A.34.34,0,0,1,10,18a.44.44,0,0,1-.05.23.26.26,0,0,1-.19.07.24.24,0,0,1-.19-.07A.44.44,0,0,1,9.52,18Zm.09,0a.59.59,0,0,0,0,.17s.07,0,.13,0,.1,0,.12,0a.39.39,0,0,0,0-.18.34.34,0,0,0,0-.17s-.06,0-.12,0-.1,0-.12,0A.34.34,0,0,0,9.61,18Z"/><path d="M10.24,17.82v.49h-.08v-.49h-.07v-.07h.07V17.7a.34.34,0,0,1,0-.17s.06,0,.12,0h.11v.07h-.1s-.05,0-.06,0a.23.23,0,0,0,0,.11v.05h.16v.07Z"/><path d="M10.61,17.82v.49h-.08v-.49h-.07v-.07h.07V17.7a.34.34,0,0,1,0-.17.15.15,0,0,1,.12,0h.11v.07h-.1s0,0-.06,0a.23.23,0,0,0,0,.11v.05h.17v.07Z"/><path d="M11.25,18.24h0v.07l-.22,0a.22.22,0,0,1-.17-.07.42.42,0,0,1-.05-.22q0-.3.24-.3a.2.2,0,0,1,.16.07.28.28,0,0,1,.06.2v.06h-.37a.26.26,0,0,0,0,.14s.06,0,.12,0Zm0-.25a.18.18,0,0,0,0-.14.11.11,0,0,0-.1-.05.17.17,0,0,0-.12.05.26.26,0,0,0,0,.14Z"/><path class="cls-5" d="M11.43,18.31v-.13h.09v.13Z"/><path class="cls-5" d="M11.67,18.31v-.56h.09v.07a.72.72,0,0,1,.2-.09v.09l-.1,0-.07,0h0v.42Z"/><path class="cls-5" d="M12.43,18.24h0v.07l-.21,0a.21.21,0,0,1-.17-.07A.34.34,0,0,1,12,18q0-.3.24-.3a.24.24,0,0,1,.17.07.28.28,0,0,1,.05.2v.06h-.37a.26.26,0,0,0,0,.14.15.15,0,0,0,.12,0Zm0-.25a.24.24,0,0,0,0-.14.14.14,0,0,0-.11-.05.13.13,0,0,0-.11.05.2.2,0,0,0,0,.14Z"/><path class="cls-5" d="M12.72,17.82v.49h-.08v-.49h-.07v-.07h.07V17.7a.34.34,0,0,1,0-.17s.06,0,.12,0h.11v.07h-.1s-.05,0-.06,0a.23.23,0,0,0,0,.11v.05h.16v.07Z"/><path class="cls-5" d="M13,17.62v-.1h.08v.1Zm0,.69v-.56h.08v.56Z"/><path class="cls-5" d="M13.24,18.31V17.5h.08v.81Z"/><path class="cls-5" d="M13.5,18.31V17.5h.08v.81Z"/><path class="cls-6" d="M13.84,18.45a1.21,1.21,0,0,1-.12-.48,1.12,1.12,0,0,1,0-.24,1.45,1.45,0,0,1,.06-.19l0-.07h.08a2.06,2.06,0,0,0-.07.25,1.29,1.29,0,0,0,0,.25.82.82,0,0,0,0,.21,1.08,1.08,0,0,0,.06.19l0,.08Z"/><path class="cls-6" d="M14.19,17.82a1,1,0,0,1,0,.17.88.88,0,0,1,0,.21,1.25,1.25,0,0,1-.06.18l0,.07H14a1.67,1.67,0,0,0,.08-.24,1.29,1.29,0,0,0,0-.24.89.89,0,0,0,0-.22.93.93,0,0,0-.05-.21l0-.07h.08A1.42,1.42,0,0,1,14.19,17.82Z"/><path d="M14.36,18.19h.1l-.08.25h-.07Zm0-.25v-.12h.09v.12Z"/><path class="cls-7" d="M8.17,19.59v-.13a.18.18,0,0,1,0-.11.13.13,0,0,1,.09-.05.13.13,0,0,1-.09-.05.16.16,0,0,1,0-.11V19A.11.11,0,0,0,8,18.88V18.8a.27.27,0,0,1,.16.05.17.17,0,0,1,.05.15v.14a.1.1,0,0,0,0,.08.19.19,0,0,0,.09.05v.06l-.09.05a.11.11,0,0,0,0,.08v.14a.16.16,0,0,1-.05.14.22.22,0,0,1-.16.05v-.07a.13.13,0,0,0,.1,0A.12.12,0,0,0,8.17,19.59Z"/><path d="M7.18,20.93V20.8a.25.25,0,0,1,0-.1.2.2,0,0,1,.09-.06.19.19,0,0,1-.09-.05.25.25,0,0,1,0-.1v-.14s0-.07,0-.09a.11.11,0,0,0-.1,0v-.07a.23.23,0,0,1,.16.05.2.2,0,0,1,0,.14v.15a.11.11,0,0,0,0,.08.19.19,0,0,0,.09,0v.07a.19.19,0,0,0-.09.05.09.09,0,0,0,0,.07v.14a.21.21,0,0,1,0,.15.3.3,0,0,1-.16.05v-.08a.13.13,0,0,0,.1,0A.15.15,0,0,0,7.18,20.93Z"/></svg>