<svg id="Capa_1" data-name="Capa 1" xmlns="http://www.w3.org/2000/svg" viewBox="0 0 18 18"><defs><style>.cls-1,.cls-2{fill:red;}.cls-2{fill-rule:evenodd;}</style></defs><title>social_icon</title><circle class="cls-1" cx="4.19" cy="9.3" r="4.19"/><path class="cls-2" d="M15.2,12.4a2.79,2.79,0,0,0-1.85.72L9.82,11.06a5.82,5.82,0,0,1-1,1.86L12.42,15c0,.06,0,.13,0,.19a2.8,2.8,0,1,0,2.8-2.8Z"/><path class="cls-2" d="M15.2,0a2.8,2.8,0,0,0-2.8,2.8c0,.13,0,.26,0,.39L8.62,5.42A5.76,5.76,0,0,1,9.7,7.22L13.5,5a2.75,2.75,0,0,0,1.7.6,2.8,2.8,0,1,0,0-5.6Z"/></svg>