<svg id="Capa_1" data-name="Capa 1" xmlns="http://www.w3.org/2000/svg" viewBox="0 0 24 24"><defs><style>.cls-1{fill:#999;}.cls-2{fill:#f2f2f2;}.cls-3{fill:#39c;}.cls-4{fill:#c60;}.cls-5{fill:#339;}.cls-6{fill:#336;}.cls-7{fill:#600e0e;}.cls-8{fill:#68c2e7;}.cls-9{fill:#930;}.cls-10{fill:#c6b198;}.cls-11{fill:#c96;}.cls-12{fill:#e42320;}</style></defs><title>taza_icon_svg</title><rect class="cls-1" x="10.21" y="-0.18" width="0.81" height="24.02" rx="0.41" transform="translate(-3.21 3.99) rotate(-18.56)"/><path class="cls-2" d="M8,8.43H4A2.78,2.78,0,0,0,1.19,11.2v6.93A2.78,2.78,0,0,0,4,20.9H8a2.78,2.78,0,0,0,2.77-2.77V11.2A2.78,2.78,0,0,0,8,8.43Zm1.38,9.7A1.38,1.38,0,0,1,8,19.51H4a1.38,1.38,0,0,1-1.39-1.38V11.2A1.38,1.38,0,0,1,4,9.82H8A1.38,1.38,0,0,1,9.37,11.2Z"/><path class="cls-2" d="M8.22,5.29h13a1.55,1.55,0,0,1,1.55,1.55v16a.73.73,0,0,1-.73.73H7.41a.73.73,0,0,1-.73-.73v-16A1.55,1.55,0,0,1,8.22,5.29Z"/><rect class="cls-3" x="6.68" y="7.57" width="16.14" height="13.73"/><circle class="cls-4" cx="7.34" cy="8.56" r="0.42"/><circle class="cls-4" cx="8.71" cy="8.52" r="0.42"/><circle class="cls-4" cx="10.21" cy="8.48" r="0.42"/><circle class="cls-4" cx="11.67" cy="8.65" r="0.42"/><circle class="cls-4" cx="13.06" cy="8.52" r="0.42"/><circle class="cls-4" cx="14.47" cy="8.61" r="0.42"/><circle class="cls-4" cx="15.95" cy="8.52" r="0.42"/><circle class="cls-4" cx="17.27" cy="8.69" r="0.42"/><circle class="cls-4" cx="18.42" cy="8.52" r="0.42"/><circle class="cls-4" cx="19.68" cy="8.69" r="0.42"/><circle class="cls-5" cx="7.36" cy="12.9" r="0.42"/><circle class="cls-5" cx="8.72" cy="12.86" r="0.42"/><circle class="cls-5" cx="10.23" cy="12.82" r="0.42"/><circle class="cls-5" cx="11.69" cy="12.98" r="0.42"/><circle class="cls-5" cx="13.07" cy="12.86" r="0.42"/><circle class="cls-5" cx="14.49" cy="12.94" r="0.42"/><circle class="cls-5" cx="15.97" cy="12.86" r="0.42"/><circle class="cls-5" cx="17.28" cy="13.03" r="0.42"/><circle class="cls-5" cx="18.44" cy="12.86" r="0.42"/><circle class="cls-5" cx="19.69" cy="13.03" r="0.42"/><circle class="cls-6" cx="7.36" cy="20.46" r="0.42"/><circle class="cls-6" cx="8.72" cy="20.42" r="0.42"/><circle class="cls-6" cx="10.23" cy="20.38" r="0.42"/><circle class="cls-6" cx="11.69" cy="20.55" r="0.42"/><circle class="cls-6" cx="13.07" cy="20.42" r="0.42"/><circle class="cls-6" cx="14.49" cy="20.51" r="0.42"/><circle class="cls-6" cx="15.97" cy="20.43" r="0.42"/><circle class="cls-6" cx="17.28" cy="20.59" r="0.42"/><circle class="cls-6" cx="18.44" cy="20.43" r="0.42"/><circle class="cls-6" cx="19.69" cy="20.59" r="0.42"/><circle class="cls-7" cx="7.17" cy="18.68" r="0.42"/><circle class="cls-7" cx="8.54" cy="18.64" r="0.42"/><circle class="cls-7" cx="10.04" cy="18.6" r="0.42"/><circle class="cls-7" cx="11.5" cy="18.77" r="0.42"/><circle class="cls-7" cx="12.89" cy="18.64" r="0.42"/><circle class="cls-7" cx="14.3" cy="18.73" r="0.42"/><circle class="cls-7" cx="15.78" cy="18.64" r="0.42"/><circle class="cls-7" cx="17.09" cy="18.81" r="0.42"/><circle class="cls-7" cx="18.25" cy="18.64" r="0.42"/><circle class="cls-7" cx="19.51" cy="18.81" r="0.42"/><circle class="cls-8" cx="7.48" cy="14.35" r="0.42"/><circle class="cls-8" cx="8.84" cy="14.31" r="0.42"/><circle class="cls-8" cx="10.35" cy="14.26" r="0.42"/><circle class="cls-8" cx="11.81" cy="14.43" r="0.42"/><circle class="cls-8" cx="13.2" cy="14.31" r="0.42"/><circle class="cls-8" cx="14.61" cy="14.39" r="0.42"/><circle class="cls-8" cx="16.09" cy="14.31" r="0.42"/><circle class="cls-8" cx="17.4" cy="14.47" r="0.42"/><circle class="cls-8" cx="18.56" cy="14.31" r="0.42"/><circle class="cls-8" cx="19.81" cy="14.47" r="0.42"/><circle class="cls-9" cx="7.14" cy="15.79" r="0.42"/><circle class="cls-9" cx="8.5" cy="15.75" r="0.42"/><circle class="cls-9" cx="10.01" cy="15.71" r="0.42"/><circle class="cls-9" cx="11.47" cy="15.88" r="0.42"/><circle class="cls-9" cx="12.85" cy="15.75" r="0.42"/><circle class="cls-9" cx="14.27" cy="15.84" r="0.42"/><circle class="cls-9" cx="15.75" cy="15.75" r="0.42"/><circle class="cls-9" cx="17.06" cy="15.92" r="0.42"/><circle class="cls-9" cx="18.22" cy="15.75" r="0.42"/><circle class="cls-9" cx="19.47" cy="15.92" r="0.42"/><circle class="cls-10" cx="19.68" cy="10.05" r="0.42"/><circle class="cls-10" cx="18.31" cy="10.09" r="0.42"/><circle class="cls-10" cx="16.8" cy="10.14" r="0.42"/><circle class="cls-10" cx="15.35" cy="9.97" r="0.42"/><circle class="cls-10" cx="13.96" cy="10.09" r="0.42"/><circle class="cls-10" cx="12.55" cy="10.01" r="0.42"/><circle class="cls-10" cx="11.07" cy="10.09" r="0.42"/><circle class="cls-10" cx="9.75" cy="9.93" r="0.42"/><circle class="cls-10" cx="8.6" cy="10.09" r="0.42"/><circle class="cls-10" cx="7.34" cy="9.93" r="0.42"/><circle class="cls-11" cx="19.64" cy="17.28" r="0.42"/><circle class="cls-11" cx="18.28" cy="17.32" r="0.42"/><circle class="cls-11" cx="16.77" cy="17.37" r="0.42"/><circle class="cls-11" cx="15.31" cy="17.2" r="0.42"/><circle class="cls-11" cx="13.93" cy="17.32" r="0.42"/><circle class="cls-11" cx="12.51" cy="17.24" r="0.42"/><circle class="cls-11" cx="11.03" cy="17.32" r="0.42"/><circle class="cls-11" cx="9.72" cy="17.16" r="0.42"/><circle class="cls-11" cx="8.56" cy="17.32" r="0.42"/><circle class="cls-11" cx="7.31" cy="17.16" r="0.42"/><circle class="cls-12" cx="19.71" cy="11.5" r="0.42"/><circle class="cls-12" cx="18.34" cy="11.54" r="0.42"/><circle class="cls-12" cx="16.84" cy="11.58" r="0.42"/><circle class="cls-12" cx="15.38" cy="11.42" r="0.42"/><circle class="cls-12" cx="13.99" cy="11.54" r="0.42"/><circle class="cls-12" cx="12.58" cy="11.46" r="0.42"/><circle class="cls-4" cx="20.89" cy="8.52" r="0.42"/><circle class="cls-4" cx="22.3" cy="8.61" r="0.42"/><circle class="cls-5" cx="20.9" cy="12.86" r="0.42"/><circle class="cls-5" cx="22.2" cy="12.94" r="0.42"/><circle class="cls-6" cx="20.9" cy="20.42" r="0.42"/><circle class="cls-6" cx="22.13" cy="20.55" r="0.42"/><circle class="cls-7" cx="20.79" cy="18.72" r="0.42"/><circle class="cls-7" cx="22.13" cy="18.73" r="0.42"/><circle class="cls-8" cx="21.02" cy="14.31" r="0.42"/><circle class="cls-8" cx="22.27" cy="14.39" r="0.42"/><circle class="cls-9" cx="20.89" cy="15.75" r="0.42"/><circle class="cls-9" cx="22.13" cy="15.84" r="0.42"/><circle class="cls-10" cx="22.31" cy="10.09" r="0.42"/><circle class="cls-10" cx="20.9" cy="10.01" r="0.42"/><circle class="cls-11" cx="22.24" cy="17.32" r="0.42"/><circle class="cls-11" cx="20.82" cy="17.24" r="0.42"/><circle class="cls-12" cx="22.13" cy="11.54" r="0.42"/><circle class="cls-12" cx="20.9" cy="11.46" r="0.42"/><circle class="cls-12" cx="11.1" cy="11.54" r="0.42"/><circle class="cls-12" cx="9.79" cy="11.37" r="0.42"/><circle class="cls-12" cx="8.63" cy="11.54" r="0.42"/><circle class="cls-12" cx="7.37" cy="11.37" r="0.42"/></svg>