<svg id="behance_icon_svg" data-name="behance_icon_svg" xmlns="http://www.w3.org/2000/svg" viewBox="0 0 25 25">
<defs>
<style>
.cls-1{fill:#c00;}
</style>
</defs>
<title>Behance</title>
<path class="cls-1" d="M10.1,11.63a2.44,2.44,0,0,1,2.12,1,3.78,3.78,0,0,1,.78,2v1A5.31,5.31,0,0,1,12.5,18a3.35,3.35,0,0,1-1.25,1.45,6.41,6.41,0,0,1-1.47.68,6.32,6.32,0,0,1-1.23.27H0V4.28H8.05a4.52,4.52,0,0,1,3.17,1.1,4,4,0,0,1,1.23,3.19,3.28,3.28,0,0,1-.58,2,2.16,2.16,0,0,1-1.18.92l-.59.11M3.55,7.13v3.6H7.8a1.32,1.32,0,0,0,1-.38,2.35,2.35,0,0,0,.35-1.52,2.19,2.19,0,0,0-.27-1.18.94.94,0,0,0-.58-.47l-.25,0H3.55m4.3,10.39c1.23,0,1.85-.69,1.85-2.1a2.54,2.54,0,0,0-.4-1.54,1.27,1.27,0,0,0-.8-.6l-.45,0H3.55v4.29h4.3M19.54,8.38a5.63,5.63,0,0,1,2.95.72,4,4,0,0,1,1.67,1.75,8.65,8.65,0,0,1,.68,2.05A7,7,0,0,1,25,14.62l0,.76h-8a2.86,2.86,0,0,0,.68,2,1.93,1.93,0,0,0,1.37.7l.65,0a3.13,3.13,0,0,0,1.77-.42,1.3,1.3,0,0,0,.67-.83l.05-.45h2.7a3.75,3.75,0,0,1-1.32,3.11,4.55,4.55,0,0,1-2.62,1.09l-1.35,0a6.85,6.85,0,0,1-3.05-.62,4.14,4.14,0,0,1-1.79-1.55,8.67,8.67,0,0,1-.83-1.83,5.36,5.36,0,0,1-.27-1.5v-.64c0-.17,0-.4,0-.68A7.92,7.92,0,0,1,14,12.4a6.37,6.37,0,0,1,.9-1.87,5.32,5.32,0,0,1,1.8-1.48,5.85,5.85,0,0,1,2.87-.67M22,13.22c0-.07,0-.15,0-.27s-.07-.32-.15-.6a3.21,3.21,0,0,0-.33-.75,1.78,1.78,0,0,0-.7-.6,2.28,2.28,0,0,0-1.15-.28,2.5,2.5,0,0,0-1.74.63,2.42,2.42,0,0,0-.85,1.27l-.16.6H22m.65-8V7.18h-6.4V5.23h6.4"/></svg>