<svg id="Capa_1" data-name="Capa 1" xmlns="http://www.w3.org/2000/svg" viewBox="0 0 134.66 25"><defs><style>.cls-1{fill:#ccc;}</style></defs><title>behance_logotipo</title><path id="path12" class="cls-1" d="M11.57,0a12.3,12.3,0,0,1,3.18.35,6.89,6.89,0,0,1,2.48,1,4.17,4.17,0,0,1,1.59,1.85A7.11,7.11,0,0,1,19.35,6a4.94,4.94,0,0,1-.89,3.09,6.42,6.42,0,0,1-2.47,2,5.93,5.93,0,0,1,3.36,2.3,7.34,7.34,0,0,1,.44,7.06,5.79,5.79,0,0,1-1.95,2.21A9.18,9.18,0,0,1,15,23.94a13.39,13.39,0,0,1-3.18.44H0V0Zm-.7,9.89a4,4,0,0,0,2.38-.7A2.57,2.57,0,0,0,14.13,7a3.29,3.29,0,0,0-.26-1.41,2.49,2.49,0,0,0-.8-.89,4.66,4.66,0,0,0-1.14-.44,7.12,7.12,0,0,0-1.42-.09H5.39V9.89Zm.26,10.43a7.61,7.61,0,0,0,1.5-.18,3.11,3.11,0,0,0,2.12-1.5,4.14,4.14,0,0,0,.36-1.59,3.43,3.43,0,0,0-1.06-2.74,4.67,4.67,0,0,0-2.83-.79H5.39v6.8Z"/><path id="path14" class="cls-1" d="M28.18,20.23a4.32,4.32,0,0,0,3.18,1.06,4.83,4.83,0,0,0,2.56-.71A3.55,3.55,0,0,0,35.25,19h4.33a8.7,8.7,0,0,1-3.18,4.6A9.51,9.51,0,0,1,31.27,25a10.24,10.24,0,0,1-3.8-.71,7.07,7.07,0,0,1-2.82-1.94,7,7,0,0,1-1.77-2.92,10.36,10.36,0,0,1-.62-3.79,10.22,10.22,0,0,1,.62-3.71,9.5,9.5,0,0,1,1.86-3A8.93,8.93,0,0,1,27.56,7a10,10,0,0,1,3.71-.71,8.25,8.25,0,0,1,4,.89A7.11,7.11,0,0,1,38,9.54a11,11,0,0,1,1.59,3.36,18.82,18.82,0,0,1,.17,3.88H26.94A5.07,5.07,0,0,0,28.18,20.23ZM33.75,11A3.87,3.87,0,0,0,31,10a4.29,4.29,0,0,0-2,.44,4.54,4.54,0,0,0-1.23,1,2.3,2.3,0,0,0-.62,1.23A6,6,0,0,0,27,13.78H35A4.72,4.72,0,0,0,33.75,11Z"/><path id="path16" class="cls-1" d="M46.64,0V9.19h.09A5.17,5.17,0,0,1,49.12,7a6.68,6.68,0,0,1,2.82-.71,8,8,0,0,1,3.18.53,4.9,4.9,0,0,1,2,1.5,6.15,6.15,0,0,1,1,2.3,15,15,0,0,1,.26,3V24.47H53.45v-10a6.22,6.22,0,0,0-.71-3.27,2.59,2.59,0,0,0-2.39-1.06,3.38,3.38,0,0,0-2.82,1.15,6.44,6.44,0,0,0-.89,3.88v9.28H41.78V0Z"/><path id="path18" class="cls-1" d="M61.84,9.36a6.59,6.59,0,0,1,1.94-1.85,8.56,8.56,0,0,1,2.65-1,15.94,15.94,0,0,1,2.92-.27c.88,0,1.76.09,2.73.18a7.23,7.23,0,0,1,2.48.71,5.13,5.13,0,0,1,1.85,1.5,4.34,4.34,0,0,1,.71,2.56v9.27a18.34,18.34,0,0,0,.18,2.3,3.65,3.65,0,0,0,.62,1.68H73a2.17,2.17,0,0,1-.36-.8,3.25,3.25,0,0,1-.08-.88,6.73,6.73,0,0,1-2.74,1.68,10,10,0,0,1-3.18.44,7.24,7.24,0,0,1-2.39-.35,5.89,5.89,0,0,1-1.94-1A5.35,5.35,0,0,1,61,21.91a6.53,6.53,0,0,1-.44-2.39A5.16,5.16,0,0,1,61,17.05a5.87,5.87,0,0,1,1.33-1.59,6.39,6.39,0,0,1,1.94-.88,16,16,0,0,1,2.21-.45l2.12-.26c.71-.09,1.32-.18,1.85-.27A4.56,4.56,0,0,0,71.82,13a1.28,1.28,0,0,0,.44-1.15A2.44,2.44,0,0,0,72,10.6a3,3,0,0,0-.71-.71,3.48,3.48,0,0,0-1-.35,5.4,5.4,0,0,0-1.24-.09,3.31,3.31,0,0,0-2.21.62,3,3,0,0,0-1,2H61A5.3,5.3,0,0,1,61.84,9.36Zm9.63,6.89c-.27.09-.62.18-1,.27s-.7.09-1.14.18-.8.08-1.15.17l-1.06.27a2.06,2.06,0,0,0-.89.44,2.32,2.32,0,0,0-.61.71,1.67,1.67,0,0,0-.27,1.14,1.83,1.83,0,0,0,.27,1.06,2.32,2.32,0,0,0,.61.71,2.92,2.92,0,0,0,1,.35,4.51,4.51,0,0,0,1.14.09,4.79,4.79,0,0,0,2.21-.44,3.5,3.5,0,0,0,1.15-1.15,2.56,2.56,0,0,0,.44-1.32,5,5,0,0,0,.09-1.06V15.81A3.13,3.13,0,0,1,71.47,16.25Z"/><path id="path20" class="cls-1" d="M84.45,6.71V9.19h.09A5.17,5.17,0,0,1,86.93,7a7.47,7.47,0,0,1,3-.71,8,8,0,0,1,3.18.53,4.37,4.37,0,0,1,1.94,1.5,7.88,7.88,0,0,1,1.06,2.3,14.91,14.91,0,0,1,.27,3V24.47H91.52v-10a6.22,6.22,0,0,0-.71-3.27,2.68,2.68,0,0,0-2.47-1.15,3.53,3.53,0,0,0-2.92,1.33,6.52,6.52,0,0,0-.88,3.88v9.28H79.68V6.71Z"/><path id="path22" class="cls-1" d="M107.24,9.89a3.38,3.38,0,0,0-1.94.53A4.11,4.11,0,0,0,104,11.84a5.75,5.75,0,0,0-.71,1.85,7.79,7.79,0,0,0-.18,2,14.28,14.28,0,0,0,.18,2,5.24,5.24,0,0,0,.71,1.76,4.35,4.35,0,0,0,1.23,1.33,3.4,3.4,0,0,0,2,.53,4,4,0,0,0,2.73-1A4.1,4.1,0,0,0,111,17.67h4.68A8.16,8.16,0,0,1,113,23.06a8.93,8.93,0,0,1-5.83,1.85,9.32,9.32,0,0,1-3.63-.71,7.91,7.91,0,0,1-2.82-1.85,8.7,8.7,0,0,1-1.86-2.83,9.77,9.77,0,0,1-.62-3.62,10.45,10.45,0,0,1,.62-3.8A9.55,9.55,0,0,1,100.62,9a9.24,9.24,0,0,1,2.83-2,10.36,10.36,0,0,1,3.79-.71,11.46,11.46,0,0,1,3,.44A7.82,7.82,0,0,1,112.81,8a5.44,5.44,0,0,1,1.85,2.12,7.44,7.44,0,0,1,.8,3h-4.77A3.09,3.09,0,0,0,107.24,9.89Z"/><rect id="rect24" class="cls-1" x="25.97" y="1.68" width="9.89" height="2.39"/><path id="path26" class="cls-1" d="M123.06,20.23a4.43,4.43,0,0,0,3.18,1.06,4.85,4.85,0,0,0,2.56-.71A3.45,3.45,0,0,0,130.12,19h4.24a8.6,8.6,0,0,1-3.18,4.6A9.45,9.45,0,0,1,126.06,25a10.24,10.24,0,0,1-3.8-.71,7.1,7.1,0,0,1-2.83-1.94,7.05,7.05,0,0,1-1.76-2.92,10.36,10.36,0,0,1-.62-3.79,10.22,10.22,0,0,1,.62-3.71,9.66,9.66,0,0,1,1.85-3A9.09,9.09,0,0,1,122.35,7a10.33,10.33,0,0,1,3.71-.71,7.67,7.67,0,0,1,3.89.89,7.11,7.11,0,0,1,2.74,2.38,11,11,0,0,1,1.59,3.36,11.74,11.74,0,0,1,.35,4H121.82a5,5,0,0,0,1.24,3.36ZM128.71,11A3.87,3.87,0,0,0,126,10a4.28,4.28,0,0,0-1.94.44,3.62,3.62,0,0,0-1.24,1,3.32,3.32,0,0,0-.62,1.23,5.93,5.93,0,0,0-.17,1.15H130A6.13,6.13,0,0,0,128.71,11Z"/></svg>