<svg id="Capa_1" data-name="Capa 1" xmlns="http://www.w3.org/2000/svg" viewBox="0 0 25 25"><defs><style>.cls-1{fill:#1b1b1b;}.cls-2{fill:#ccc;}</style></defs><title>behance_icon_circle_2</title><circle class="cls-1" cx="12.5" cy="12.5" r="12.5"/><path class="cls-2" d="M9.1,6.49a7.09,7.09,0,0,1,1.53.14,3.32,3.32,0,0,1,1.18.49,2.31,2.31,0,0,1,.77.9,3.1,3.1,0,0,1,.27,1.38,2.55,2.55,0,0,1-.4,1.47,3,3,0,0,1-1.19,1,2.79,2.79,0,0,1,1.61,1.1,3.25,3.25,0,0,1,.54,1.89,3.13,3.13,0,0,1-.35,1.53,2.91,2.91,0,0,1-.91,1.06A4.25,4.25,0,0,1,10.8,18a6,6,0,0,1-1.53.18H3.57V6.49Zm-.33,4.75a1.84,1.84,0,0,0,1.14-.33,1.26,1.26,0,0,0,.44-1.07,1.42,1.42,0,0,0-.14-.67,1.12,1.12,0,0,0-.4-.41,1.52,1.52,0,0,0-.57-.21,3.68,3.68,0,0,0-.66-.06H6.16v2.75Zm.15,5a3.38,3.38,0,0,0,.72-.07,1.83,1.83,0,0,0,.61-.25,1.19,1.19,0,0,0,.42-.47,1.56,1.56,0,0,0,.16-.76,1.49,1.49,0,0,0-.51-1.28A2.16,2.16,0,0,0,9,13H6.16v3.22Z"/><path class="cls-2" d="M16.66,16a2.07,2.07,0,0,0,1.51.51,2.12,2.12,0,0,0,1.22-.35,1.53,1.53,0,0,0,.62-.75h2.06a3.93,3.93,0,0,1-1.52,2.19,4.43,4.43,0,0,1-2.46.65,4.87,4.87,0,0,1-1.81-.32A3.73,3.73,0,0,1,14.92,17a4,4,0,0,1-.87-1.42,5,5,0,0,1-.3-1.8A4.91,4.91,0,0,1,14.06,12a4.07,4.07,0,0,1,2.26-2.36,4.3,4.3,0,0,1,1.77-.35A4,4,0,0,1,20,9.69a3.78,3.78,0,0,1,1.32,1.13,4.52,4.52,0,0,1,.75,1.6,6.07,6.07,0,0,1,.16,1.9H16.08A2.41,2.41,0,0,0,16.66,16ZM19.3,11.5A1.64,1.64,0,0,0,18,11a2.12,2.12,0,0,0-.93.18,2,2,0,0,0-.59.47,1.69,1.69,0,0,0-.3.6,2.55,2.55,0,0,0-.11.55h3.78A2.68,2.68,0,0,0,19.3,11.5Z"/><rect class="cls-2" x="15.68" y="7.08" width="4.74" height="1.32"/></svg>