<svg id="Capa_1" data-name="Capa 1" xmlns="http://www.w3.org/2000/svg" viewBox="0 0 25 25"><defs><style>.cls-1{fill:#3498db;}.cls-2{fill:#fff;}</style></defs><title>behance_icon_circle</title><circle class="cls-1" cx="12.5" cy="12.5" r="12.5"/><path class="cls-2" d="M14.77,8.27v1h3.87v-1Zm-9.72-.5,4.45.05S12,7.68,12.27,9.64a2,2,0,0,1-1.22,2.41,2.36,2.36,0,0,1,1.68,2.68C12.45,17,9.82,17,9.82,17H5.05Zm2,3.68H8.86a2.22,2.22,0,0,0,.69-.09,1.41,1.41,0,0,0,.45-.22,1.13,1.13,0,0,0,.23-.41,3.26,3.26,0,0,0,.09-.46,1.6,1.6,0,0,0-.09-.41A.9.9,0,0,0,10,9.55a.78.78,0,0,0-.41-.23H7.09v2.13Zm0,3.87h2a2.39,2.39,0,0,0,.72-.09.88.88,0,0,0,.5-.28,1.51,1.51,0,0,0,.28-.45,1.17,1.17,0,0,0,.09-.5,1.43,1.43,0,0,0-.09-.45.72.72,0,0,0-.28-.37A1.47,1.47,0,0,0,9.82,13a3,3,0,0,0-.64-.09L7.05,13Zm8.13-1.23c0,.05,0,1.36,1.09,1.68A1.5,1.5,0,0,0,18.14,15h1.63c0,.19-.72,2.91-4.36,2.05-2.23-.55-2.14-3.18-2.14-3.41a3.56,3.56,0,0,1,.91-2.36,3.22,3.22,0,0,1,2.46-1.05,3.31,3.31,0,0,1,2.41.91,4.52,4.52,0,0,1,.86,3.05ZM18.09,13a1.2,1.2,0,0,0-.14-.59,4.45,4.45,0,0,0-.27-.45,1.47,1.47,0,0,0-.45-.32,1.27,1.27,0,0,0-.59-.09,1.21,1.21,0,0,0-.55.14,1.55,1.55,0,0,0-.77.77,1.79,1.79,0,0,0-.09.54Z"/></svg>