<svg id="behance_icon_sq_svg" data-name="behance_icon_sq_svg" xmlns="http://www.w3.org/2000/svg" viewBox="0 0 25 25"><defs><style>.cls-1{fill:#333;}.cls-2{fill:#ccc;fill-rule:evenodd;}</style></defs><title>behance_square</title><path class="cls-1" d="M3.91,0H21.09A3.91,3.91,0,0,1,25,3.91V21.09A3.91,3.91,0,0,1,21.09,25H3.91A3.91,3.91,0,0,1,0,21.09V3.91A3.91,3.91,0,0,1,3.91,0"/><path class="cls-2" d="M5.59,7.25h0c1.23,0,2.22,0,3,0a6.34,6.34,0,0,1,1.89.26,2.52,2.52,0,0,1,1.19.72,2.65,2.65,0,0,1,.55.89,2.62,2.62,0,0,1,.16,1,2.26,2.26,0,0,1-.49,1.5,2.62,2.62,0,0,1-.85.7,3.3,3.3,0,0,1,1.22.76,2.34,2.34,0,0,1,.67,1.77,2.82,2.82,0,0,1-1.22,2.44A5.66,5.66,0,0,1,8.39,18c-.75,0-1.67,0-2.78-.05h0a.23.23,0,0,1-.16-.1.26.26,0,0,1-.05-.17V7.53a.33.33,0,0,1,0-.17.25.25,0,0,1,.15-.11Zm4.56,6.4h0a2.31,2.31,0,0,0-1.51-.41H7.53v3.08l1,0a2.74,2.74,0,0,0,1.64-.4,1.36,1.36,0,0,0,.52-1.18,1.3,1.3,0,0,0-.5-1.11ZM8.49,8.89h-1v2.62h1a1.83,1.83,0,0,0,1.27-.36,1.19,1.19,0,0,0,.38-.92,1.2,1.2,0,0,0-.41-1,2.1,2.1,0,0,0-1.31-.34"/><path class="cls-2" d="M20.05,17.69h0a5.47,5.47,0,0,1-2.26.42,3.63,3.63,0,0,1-3-1.15h0a4.45,4.45,0,0,1-.92-2.87,4.61,4.61,0,0,1,1-3A3.29,3.29,0,0,1,17.55,9.9a2.9,2.9,0,0,1,2.42,1,3.61,3.61,0,0,1,.8,2.34,4.85,4.85,0,0,1-.06.93.29.29,0,0,1-.24.24,14.8,14.8,0,0,1-1.63.06H16.1a2.08,2.08,0,0,0,.52,1.37,2.07,2.07,0,0,0,1.56.54,4.3,4.3,0,0,0,1.73-.33L20,16a.16.16,0,0,1,.13,0,.18.18,0,0,1,.07.1.28.28,0,0,1,0,.09v1.15a.37.37,0,0,1-.14.29Zm-3.53-5.77A2.23,2.23,0,0,0,16.11,13h2.58v-.11a1.67,1.67,0,0,0-.29-1,1,1,0,0,0-.91-.42,1.14,1.14,0,0,0-1,.45"/></svg>