<svg id="Capa_1" data-name="Capa 1" xmlns="http://www.w3.org/2000/svg" viewBox="0 0 136.2 25"><defs><style>.cls-1{fill:#333;}</style></defs><title>codepen_logotipo</title><path class="cls-1" d="M32.09,25a1.15,1.15,0,0,1-.73-.25L20.14,17.31a1.34,1.34,0,0,1-.32-.31h0l0,0h0a1.23,1.23,0,0,1-.19-.66V8.71a1.17,1.17,0,0,1,.2-.67,1.19,1.19,0,0,1,.38-.36L31.42.21A1.19,1.19,0,0,1,32.06,0h0a1.22,1.22,0,0,1,.65.21l11.3,7.5a1.17,1.17,0,0,1,.48.65,1.34,1.34,0,0,1,.05.35v7.48a1.22,1.22,0,0,1-.2.78,1.18,1.18,0,0,1-.4.37L32.75,24.8a1.43,1.43,0,0,1-.38.17A1.27,1.27,0,0,1,32.09,25Zm1.18-8.16v4.77l8-5.31-3.57-2.4ZM22.91,16.3l8,5.31V16.83L26.48,13.9Zm5.69-3.83,3.49,2.31,3.49-2.31-3.49-2.35ZM22,10.9v3.18l2.39-1.6Zm17.88,1.58,2.38,1.6V10.9ZM22.92,8.69l3.55,2.36,4.44-3V3.39Zm10.35-.63,4.45,3,3.55-2.36-8-5.3Zm82.15,12.83h-9.25A1.18,1.18,0,0,1,105,19.71V12.62a.45.45,0,0,1,0-.11.49.49,0,0,1,0-.12V5.3a1.18,1.18,0,0,1,1.18-1.18h9.26a1.18,1.18,0,0,1,0,2.36h-8.08v4.84h5a1.19,1.19,0,0,1,0,2.37h-5v4.83h8.07a1.19,1.19,0,0,1,0,2.37Zm-26.75,0a1.18,1.18,0,0,1-1.18-1.18V5.3a1.18,1.18,0,0,1,1.18-1.18h6.17a5.3,5.3,0,1,1,0,10.59h-5v5A1.18,1.18,0,0,1,88.67,20.89Zm1.19-8.54h5a2.94,2.94,0,0,0,0-5.87h-5Zm-9.42,8.54H71.18A1.18,1.18,0,0,1,70,19.71V5.3a1.18,1.18,0,0,1,1.18-1.18h9.26a1.18,1.18,0,1,1,0,2.36H72.37v4.84h5a1.19,1.19,0,0,1,0,2.37h-5v4.83h8.07a1.19,1.19,0,1,1,0,2.37Zm54.54,0a1.17,1.17,0,0,1-.93-.45L124.84,8.71v11a1.18,1.18,0,0,1-2.36,0V5.29a1.18,1.18,0,0,1,2.11-.73l9.2,11.72v-11a1.19,1.19,0,0,1,2.37,0V19.7a1.18,1.18,0,0,1-.8,1.12A1.21,1.21,0,0,1,135,20.88Zm-78.2,0H51.64a1.18,1.18,0,0,1-1.19-1.18V5.29a1.18,1.18,0,0,1,1.19-1.18h5.14a8.2,8.2,0,0,1,8.39,8.38h0A8.2,8.2,0,0,1,56.78,20.88Zm-4-2.36h4a5.82,5.82,0,0,0,6-6h0a5.82,5.82,0,0,0-6-6h-4ZM8.43,20.88A8.2,8.2,0,0,1,0,12.5,8.2,8.2,0,0,1,8.43,4.12a8.28,8.28,0,0,1,6,2.4,1.18,1.18,0,0,1,0,1.67,1.2,1.2,0,0,1-1.68,0,5.86,5.86,0,0,0-4.3-1.71,5.82,5.82,0,0,0-6,6,5.82,5.82,0,0,0,6,6,6.34,6.34,0,0,0,4.34-1.75,1.18,1.18,0,1,1,1.6,1.74A8.64,8.64,0,0,1,8.43,20.88Z"/></svg>