<svg id="codepen_icon_svg" data-name="codepen_icon_svg" xmlns="http://www.w3.org/2000/svg" viewBox="0 0 25 25"><defs><style>.cls-1{fill:#333;}</style></defs><title>codepen_icon</title><path class="cls-1" d="M12.5,25a1.09,1.09,0,0,1-.65-.2L.55,17.3A1.22,1.22,0,0,1,.22,17l0,0A1.21,1.21,0,0,1,0,16.28V8.71a1.19,1.19,0,0,1,.11-.52,1.2,1.2,0,0,1,.31-.4l.09-.07,0,0L11.83.2a1.25,1.25,0,0,1,1.34,0l11.3,7.5a1.16,1.16,0,0,1,.46.59,1.23,1.23,0,0,1,.07.42V16.3a1.19,1.19,0,0,1-.53,1l-11.32,7.5A1.09,1.09,0,0,1,12.5,25Zm1.18-8.16V21.6l8-5.31-3.57-2.4ZM3.31,16.29l8,5.31V16.83L6.88,13.89ZM9,12.46l3.49,2.32L16,12.46,12.5,10.11Zm11.24,0,2.38,1.6V10.89ZM2.37,10.89v3.19l2.38-1.6ZM13.68,8.06l4.44,3,3.56-2.36-8-5.3ZM3.32,8.69l3.56,2.36,4.44-3V3.39Z"/></svg>