<svg id="gitHub_icon_svg" data-name="gitHub_icon_svg" xmlns="http://www.w3.org/2000/svg" viewBox="0 0 25 25"><defs><style>.cls-1,.cls-2{fill:#333;}.cls-1{fill-rule:evenodd;}</style></defs><title>gitHub_icon</title><path class="cls-1" d="M12.5.31A12.5,12.5,0,0,0,8.55,24.67c.62.12.85-.27.85-.6s0-1.28,0-2.33c-3.48.76-4.22-1.47-4.22-1.47a3.26,3.26,0,0,0-1.38-1.83c-1.14-.78.08-.76.08-.76A2.63,2.63,0,0,1,5.79,19a2.66,2.66,0,0,0,3.64,1,2.68,2.68,0,0,1,.79-1.67C7.44,18,4.52,17,4.52,12.16A4.85,4.85,0,0,1,5.81,8.8a4.49,4.49,0,0,1,.12-3.31S7,5.16,9.37,6.77a12.56,12.56,0,0,1,3.13-.42,12.56,12.56,0,0,1,3.13.42C18,5.16,19.07,5.49,19.07,5.49a4.49,4.49,0,0,1,.12,3.31,4.84,4.84,0,0,1,1.28,3.36c0,4.8-2.92,5.85-5.7,6.16a3,3,0,0,1,.84,2.32c0,1.67,0,3,0,3.43s.23.72.86.6A12.5,12.5,0,0,0,12.5.31Z"/><path class="cls-2" d="M4.73,18.26c0,.06-.12.08-.21,0s-.14-.12-.11-.18.12-.09.21,0,.15.12.11.19Z"/><path class="cls-2" d="M5.24,18.82c-.06.06-.18,0-.25-.06a.18.18,0,0,1,0-.26c.06-.05.17,0,.26.06a.19.19,0,0,1,0,.26Z"/><path class="cls-2" d="M5.73,19.54c-.07.05-.2,0-.28-.11a.22.22,0,0,1,0-.3c.07-.05.2,0,.28.11s.07.25,0,.3Z"/><path class="cls-2" d="M6.41,20.24a.24.24,0,0,1-.32,0C6,20.09,6,19.94,6,19.87s.21-.06.32.05a.24.24,0,0,1,.07.32Z"/><path class="cls-2" d="M7.34,20.64c0,.1-.17.14-.31.1s-.24-.16-.21-.26.17-.14.32-.1.23.16.2.26Z"/><path class="cls-2" d="M8.36,20.71c0,.11-.11.19-.26.2s-.27-.08-.27-.19.11-.19.26-.19.27.08.27.18Z"/><path class="cls-2" d="M9.32,20.55c0,.1-.09.21-.24.23s-.28,0-.3-.13.09-.21.24-.23.28,0,.3.13Z"/></svg>