<svg id="Capa_1" data-name="Capa 1" xmlns="http://www.w3.org/2000/svg" viewBox="0 0 93.2 25"><defs><style>.cls-1{fill:#900;}</style></defs><title>GitHub_text</title><path class="cls-1" d="M18.18,10.7H10.41a.36.36,0,0,0-.36.36v3.8a.36.36,0,0,0,.36.36h3v4.72a9,9,0,0,1-2.57.24c-2.22,0-5.32-.82-5.32-7.63s3.23-7.72,6.26-7.72a12.09,12.09,0,0,1,4.48.69.37.37,0,0,0,.43-.36l.87-3.67a.32.32,0,0,0-.14-.28C17.17,1,15.39,0,10.88,0,5.7,0,.38,2.21.38,12.81S6.47,25,11.6,25a12.63,12.63,0,0,0,6.83-1.82c.1-.05.12-.2.12-.27V11.06A.37.37,0,0,0,18.18,10.7Z"/><path class="cls-1" d="M58.22,1.27a.36.36,0,0,0-.36-.36H53.48a.36.36,0,0,0-.36.36V9.72H46.3V1.27a.36.36,0,0,0-.36-.36H41.57a.36.36,0,0,0-.36.36V24.16a.37.37,0,0,0,.36.37h4.37a.37.37,0,0,0,.36-.37V14.37h6.82v9.79a.37.37,0,0,0,.36.37h4.39a.37.37,0,0,0,.36-.37Z"/><path class="cls-1" d="M26.44,4.27a2.82,2.82,0,1,0-2.82,2.85A2.83,2.83,0,0,0,26.44,4.27Z"/><path class="cls-1" d="M26.12,19.33V8.77a.37.37,0,0,0-.36-.37H21.4a.42.42,0,0,0-.38.41V23.94c0,.45.28.58.64.58h3.93c.43,0,.53-.21.53-.58Z"/><path class="cls-1" d="M74.84,8.44H70.5a.36.36,0,0,0-.36.36V20a4.88,4.88,0,0,1-2.67.81c-1.56,0-2-.71-2-2.24V8.8a.36.36,0,0,0-.36-.36H60.72a.36.36,0,0,0-.36.36V19.33c0,4.55,2.54,5.66,6,5.66a10.18,10.18,0,0,0,5.17-1.58,9.26,9.26,0,0,0,.16.94.4.4,0,0,0,.32.19h2.8a.36.36,0,0,0,.36-.36V8.8A.36.36,0,0,0,74.84,8.44Z"/><path class="cls-1" d="M86.7,7.92A8.17,8.17,0,0,0,82.56,9V1.27A.36.36,0,0,0,82.2.91H77.81a.36.36,0,0,0-.36.36V24.16a.38.38,0,0,0,.37.37h3a.38.38,0,0,0,.32-.2,7.71,7.71,0,0,0,.18-1A7.84,7.84,0,0,0,86.55,25c4,0,6.27-2,6.27-9.08S89.17,7.92,86.7,7.92ZM85,20.82a5.24,5.24,0,0,1-2.52-.73V12.84a5.7,5.7,0,0,1,2.24-.73c1.56-.14,3.07.33,3.07,4.06C87.78,20.1,87.1,20.88,85,20.82Z"/><path class="cls-1" d="M38.7,8.4H35.41V4.06q0-.24-.27-.24H30.66c-.17,0-.26.07-.26.24V8.54s-2.24.54-2.4.59a.35.35,0,0,0-.26.34v2.82a.37.37,0,0,0,.36.37h2.3v6.77c0,5,3.52,5.52,5.91,5.52a10,10,0,0,0,2.6-.43.33.33,0,0,0,.2-.33V21.1a.37.37,0,0,0-.36-.37c-.2,0-.68.08-1.19.08-1.61,0-2.16-.75-2.16-1.72V12.66H38.7a.37.37,0,0,0,.36-.37V8.76A.36.36,0,0,0,38.7,8.4Z"/></svg>