<svg id="Capa_1" data-name="Capa 1" xmlns="http://www.w3.org/2000/svg" xmlns:xlink="http://www.w3.org/1999/xlink" viewBox="0 0 25 25"><defs><style>.cls-1{fill:url(#Degradado_sin_nombre_3);}.cls-2{fill:url(#Degradado_sin_nombre_3-3);}</style><linearGradient id="Degradado_sin_nombre_3" x1="12.5" y1="-504.07" x2="12.5" y2="-528.81" gradientTransform="translate(0 529)" gradientUnits="userSpaceOnUse"><stop offset="0" stop-color="#e09b3d"/><stop offset="0.3" stop-color="#c74c4d"/><stop offset="0.6" stop-color="#c21975"/><stop offset="1" stop-color="#7024c4"/></linearGradient><linearGradient id="Degradado_sin_nombre_3-3" x1="18.98" y1="-504.07" x2="18.98" y2="-528.81" xlink:href="#Degradado_sin_nombre_3"/></defs><title>instagram_icon</title><path class="cls-1" d="M17.55,0H7.45A7.46,7.46,0,0,0,0,7.45v10.1A7.46,7.46,0,0,0,7.45,25h10.1A7.46,7.46,0,0,0,25,17.55V7.45A7.46,7.46,0,0,0,17.55,0Zm4.94,17.55a4.93,4.93,0,0,1-4.94,4.93H7.45a4.93,4.93,0,0,1-4.94-4.93V7.45A4.94,4.94,0,0,1,7.45,2.51h10.1a4.93,4.93,0,0,1,4.93,4.94v10.1Z"/><path class="cls-1" d="M12.5,6A6.47,6.47,0,1,0,19,12.5,6.47,6.47,0,0,0,12.5,6Zm0,10.42a3.95,3.95,0,1,1,3.95-3.95A4,4,0,0,1,12.5,16.45Z"/><circle class="cls-2" cx="18.98" cy="6.08" r="1.55"/></svg>